M48
; DRILL file {KiCad 8.0.3} date 2025-09-07T10:29:00+0800
; FORMAT={-:-/ absolute / metric / decimal}
; #@! TF.CreationDate,2025-09-07T10:29:00+08:00
; #@! TF.GenerationSoftware,Kicad,Pcbnew,8.0.3
; #@! TF.FileFunction,Plated,1,2,PTH
FMAT,2
METRIC
; #@! TA.AperFunction,Plated,PTH,ViaDrill
T1C0.300
; #@! TA.AperFunction,Plated,PTH,ComponentDrill
T2C0.800
; #@! TA.AperFunction,Plated,PTH,ComponentDrill
T3C1.000
%
G90
G05
T1
X184.15Y-92.583
X185.42Y-129.54
X186.055Y-121.158
X186.436Y-134.366
X187.96Y-111.76
X187.96Y-115.57
X188.595Y-139.827
X189.23Y-113.095
X189.23Y-115.57
X190.246Y-101.473
X191.262Y-131.191
X192.913Y-142.494
X193.04Y-120.65
X194.31Y-104.14
X194.31Y-113.03
X194.31Y-115.57
X195.58Y-120.65
X196.088Y-133.858
X196.723Y-107.823
X201.168Y-109.728
X201.295Y-101.346
X202.184Y-91.694
X202.819Y-132.207
X203.2Y-113.03
X204.343Y-110.744
X205.359Y-121.666
X206.248Y-101.854
T2
X184.16Y-97.805
X184.16Y-105.425
X184.16Y-118.125
X184.16Y-125.745
X186.7Y-97.805
X186.7Y-105.425
X186.7Y-118.125
X186.7Y-125.745
X189.24Y-97.805
X189.24Y-105.425
X189.24Y-118.125
X189.24Y-125.745
X191.78Y-97.805
X191.78Y-105.425
X191.78Y-118.125
X191.78Y-125.745
X198.105Y-118.125
X198.105Y-125.745
X198.13Y-97.805
X198.13Y-105.425
X200.645Y-118.125
X200.645Y-125.745
X200.67Y-97.805
X200.67Y-105.425
X203.185Y-118.125
X203.185Y-125.745
X203.21Y-97.805
X203.21Y-105.425
X205.725Y-118.125
X205.725Y-125.745
X205.75Y-97.805
X205.75Y-105.425
T3
X184.15Y-133.35
X184.15Y-135.89
X184.15Y-138.43
X184.15Y-140.97
X184.15Y-143.51
X205.74Y-133.35
X205.74Y-135.89
X205.74Y-138.43
X205.74Y-140.97
X205.74Y-143.51
M30
