%TF.GenerationSoftware,KiCad,Pcbnew,8.0.3*%
%TF.CreationDate,2025-09-07T10:27:12+08:00*%
%TF.ProjectId,balancing-car,62616c61-6e63-4696-9e67-2d6361722e6b,rev?*%
%TF.SameCoordinates,Original*%
%TF.FileFunction,Paste,Top*%
%TF.FilePolarity,Positive*%
%FSLAX46Y46*%
G04 Gerber Fmt 4.6, Leading zero omitted, Abs format (unit mm)*
G04 Created by KiCad (PCBNEW 8.0.3) date 2025-09-07 10:27:12*
%MOMM*%
%LPD*%
G01*
G04 APERTURE LIST*
G04 Aperture macros list*
%AMRoundRect*
0 Rectangle with rounded corners*
0 $1 Rounding radius*
0 $2 $3 $4 $5 $6 $7 $8 $9 X,Y pos of 4 corners*
0 Add a 4 corners polygon primitive as box body*
4,1,4,$2,$3,$4,$5,$6,$7,$8,$9,$2,$3,0*
0 Add four circle primitives for the rounded corners*
1,1,$1+$1,$2,$3*
1,1,$1+$1,$4,$5*
1,1,$1+$1,$6,$7*
1,1,$1+$1,$8,$9*
0 Add four rect primitives between the rounded corners*
20,1,$1+$1,$2,$3,$4,$5,0*
20,1,$1+$1,$4,$5,$6,$7,0*
20,1,$1+$1,$6,$7,$8,$9,0*
20,1,$1+$1,$8,$9,$2,$3,0*%
G04 Aperture macros list end*
%ADD10RoundRect,0.250000X0.450000X-0.350000X0.450000X0.350000X-0.450000X0.350000X-0.450000X-0.350000X0*%
%ADD11RoundRect,0.250000X0.350000X0.450000X-0.350000X0.450000X-0.350000X-0.450000X0.350000X-0.450000X0*%
%ADD12RoundRect,0.237500X-0.237500X-0.237500X0.237500X-0.237500X0.237500X0.237500X-0.237500X0.237500X0*%
%ADD13RoundRect,0.075000X-0.362500X-0.075000X0.362500X-0.075000X0.362500X0.075000X-0.362500X0.075000X0*%
%ADD14RoundRect,0.075000X-0.075000X-0.362500X0.075000X-0.362500X0.075000X0.362500X-0.075000X0.362500X0*%
%ADD15RoundRect,0.250000X-0.450000X0.350000X-0.450000X-0.350000X0.450000X-0.350000X0.450000X0.350000X0*%
%ADD16RoundRect,0.250000X-0.350000X-0.450000X0.350000X-0.450000X0.350000X0.450000X-0.350000X0.450000X0*%
%ADD17RoundRect,0.250000X0.337500X0.475000X-0.337500X0.475000X-0.337500X-0.475000X0.337500X-0.475000X0*%
%ADD18RoundRect,0.250000X0.475000X-0.337500X0.475000X0.337500X-0.475000X0.337500X-0.475000X-0.337500X0*%
G04 APERTURE END LIST*
D10*
%TO.C,R14*%
X186436000Y-113395000D03*
X186436000Y-111395000D03*
%TD*%
D11*
%TO.C,R2*%
X190151000Y-134747000D03*
X192151000Y-134747000D03*
%TD*%
D12*
%TO.C,U5*%
X194482000Y-139745000D03*
X194482000Y-140925000D03*
X195662000Y-139745000D03*
X195662000Y-140925000D03*
D13*
X193134500Y-139360000D03*
X193134500Y-140010000D03*
X193134500Y-140660000D03*
X193134500Y-141310000D03*
D14*
X194097000Y-142272500D03*
X194747000Y-142272500D03*
X195397000Y-142272500D03*
X196047000Y-142272500D03*
D13*
X197009500Y-141310000D03*
X197009500Y-140660000D03*
X197009500Y-140010000D03*
X197009500Y-139360000D03*
D14*
X196047000Y-138397500D03*
X195397000Y-138397500D03*
X194747000Y-138397500D03*
X194097000Y-138397500D03*
%TD*%
D10*
%TO.C,R12*%
X191770000Y-115300000D03*
X191770000Y-113300000D03*
%TD*%
D11*
%TO.C,R9*%
X206105000Y-93091000D03*
X204105000Y-93091000D03*
%TD*%
D15*
%TO.C,R11*%
X184023000Y-111903000D03*
X184023000Y-113903000D03*
%TD*%
%TO.C,R10*%
X197231000Y-109490000D03*
X197231000Y-111490000D03*
%TD*%
D16*
%TO.C,R1*%
X192151000Y-132715000D03*
X190151000Y-132715000D03*
%TD*%
D17*
%TO.C,C3*%
X191537500Y-109220000D03*
X189462500Y-109220000D03*
%TD*%
%TO.C,C2*%
X186457500Y-109220000D03*
X184382500Y-109220000D03*
%TD*%
D16*
%TO.C,R8*%
X203978000Y-95250000D03*
X205978000Y-95250000D03*
%TD*%
%TO.C,R4*%
X190960000Y-93345000D03*
X192960000Y-93345000D03*
%TD*%
%TO.C,R5*%
X195040000Y-93345000D03*
X197040000Y-93345000D03*
%TD*%
D11*
%TO.C,R3*%
X189150000Y-93345000D03*
X187150000Y-93345000D03*
%TD*%
%TO.C,R13*%
X202041000Y-94996000D03*
X200041000Y-94996000D03*
%TD*%
%TO.C,R7*%
X203184000Y-108204000D03*
X201184000Y-108204000D03*
%TD*%
D18*
%TO.C,C1*%
X194818000Y-102637500D03*
X194818000Y-100562500D03*
%TD*%
D15*
%TO.C,R6*%
X194945000Y-105807000D03*
X194945000Y-107807000D03*
%TD*%
M02*
