%TF.GenerationSoftware,KiCad,Pcbnew,8.0.3*%
%TF.CreationDate,2025-09-07T10:27:12+08:00*%
%TF.ProjectId,balancing-car,62616c61-6e63-4696-9e67-2d6361722e6b,rev?*%
%TF.SameCoordinates,Original*%
%TF.FileFunction,Soldermask,Bot*%
%TF.FilePolarity,Negative*%
%FSLAX46Y46*%
G04 Gerber Fmt 4.6, Leading zero omitted, Abs format (unit mm)*
G04 Created by KiCad (PCBNEW 8.0.3) date 2025-09-07 10:27:12*
%MOMM*%
%LPD*%
G01*
G04 APERTURE LIST*
%ADD10O,1.700000X1.700000*%
%ADD11R,1.700000X1.700000*%
%ADD12O,1.600000X2.400000*%
%ADD13R,1.600000X2.400000*%
G04 APERTURE END LIST*
D10*
%TO.C,J1*%
X184150000Y-143510000D03*
X184150000Y-140970000D03*
X184150000Y-138430000D03*
X184150000Y-135890000D03*
D11*
X184150000Y-133350000D03*
%TD*%
D12*
%TO.C,U1*%
X184160000Y-97805000D03*
X186700000Y-97805000D03*
X189240000Y-97805000D03*
X191780000Y-97805000D03*
X191780000Y-105425000D03*
X189240000Y-105425000D03*
X186700000Y-105425000D03*
D13*
X184160000Y-105425000D03*
%TD*%
D11*
%TO.C,J2*%
X205740000Y-133350000D03*
D10*
X205740000Y-135890000D03*
X205740000Y-138430000D03*
X205740000Y-140970000D03*
X205740000Y-143510000D03*
%TD*%
D12*
%TO.C,U4*%
X198105000Y-118125000D03*
X200645000Y-118125000D03*
X203185000Y-118125000D03*
X205725000Y-118125000D03*
X205725000Y-125745000D03*
X203185000Y-125745000D03*
X200645000Y-125745000D03*
D13*
X198105000Y-125745000D03*
%TD*%
%TO.C,U2*%
X198130000Y-105425000D03*
D12*
X200670000Y-105425000D03*
X203210000Y-105425000D03*
X205750000Y-105425000D03*
X205750000Y-97805000D03*
X203210000Y-97805000D03*
X200670000Y-97805000D03*
X198130000Y-97805000D03*
%TD*%
%TO.C,U3*%
X184160000Y-118125000D03*
X186700000Y-118125000D03*
X189240000Y-118125000D03*
X191780000Y-118125000D03*
X191780000Y-125745000D03*
X189240000Y-125745000D03*
X186700000Y-125745000D03*
D13*
X184160000Y-125745000D03*
%TD*%
M02*
