%TF.GenerationSoftware,KiCad,Pcbnew,8.0.3*%
%TF.CreationDate,2025-09-07T10:27:12+08:00*%
%TF.ProjectId,balancing-car,62616c61-6e63-4696-9e67-2d6361722e6b,rev?*%
%TF.SameCoordinates,Original*%
%TF.FileFunction,Legend,Top*%
%TF.FilePolarity,Positive*%
%FSLAX46Y46*%
G04 Gerber Fmt 4.6, Leading zero omitted, Abs format (unit mm)*
G04 Created by KiCad (PCBNEW 8.0.3) date 2025-09-07 10:27:12*
%MOMM*%
%LPD*%
G01*
G04 APERTURE LIST*
%ADD10C,0.150000*%
%ADD11C,0.120000*%
G04 APERTURE END LIST*
D10*
X185240819Y-113037857D02*
X184764628Y-113371190D01*
X185240819Y-113609285D02*
X184240819Y-113609285D01*
X184240819Y-113609285D02*
X184240819Y-113228333D01*
X184240819Y-113228333D02*
X184288438Y-113133095D01*
X184288438Y-113133095D02*
X184336057Y-113085476D01*
X184336057Y-113085476D02*
X184431295Y-113037857D01*
X184431295Y-113037857D02*
X184574152Y-113037857D01*
X184574152Y-113037857D02*
X184669390Y-113085476D01*
X184669390Y-113085476D02*
X184717009Y-113133095D01*
X184717009Y-113133095D02*
X184764628Y-113228333D01*
X184764628Y-113228333D02*
X184764628Y-113609285D01*
X185240819Y-112085476D02*
X185240819Y-112656904D01*
X185240819Y-112371190D02*
X184240819Y-112371190D01*
X184240819Y-112371190D02*
X184383676Y-112466428D01*
X184383676Y-112466428D02*
X184478914Y-112561666D01*
X184478914Y-112561666D02*
X184526533Y-112656904D01*
X184574152Y-111228333D02*
X185240819Y-111228333D01*
X184193200Y-111466428D02*
X184907485Y-111704523D01*
X184907485Y-111704523D02*
X184907485Y-111085476D01*
X190984333Y-136851819D02*
X190651000Y-136375628D01*
X190412905Y-136851819D02*
X190412905Y-135851819D01*
X190412905Y-135851819D02*
X190793857Y-135851819D01*
X190793857Y-135851819D02*
X190889095Y-135899438D01*
X190889095Y-135899438D02*
X190936714Y-135947057D01*
X190936714Y-135947057D02*
X190984333Y-136042295D01*
X190984333Y-136042295D02*
X190984333Y-136185152D01*
X190984333Y-136185152D02*
X190936714Y-136280390D01*
X190936714Y-136280390D02*
X190889095Y-136328009D01*
X190889095Y-136328009D02*
X190793857Y-136375628D01*
X190793857Y-136375628D02*
X190412905Y-136375628D01*
X191365286Y-135947057D02*
X191412905Y-135899438D01*
X191412905Y-135899438D02*
X191508143Y-135851819D01*
X191508143Y-135851819D02*
X191746238Y-135851819D01*
X191746238Y-135851819D02*
X191841476Y-135899438D01*
X191841476Y-135899438D02*
X191889095Y-135947057D01*
X191889095Y-135947057D02*
X191936714Y-136042295D01*
X191936714Y-136042295D02*
X191936714Y-136137533D01*
X191936714Y-136137533D02*
X191889095Y-136280390D01*
X191889095Y-136280390D02*
X191317667Y-136851819D01*
X191317667Y-136851819D02*
X191936714Y-136851819D01*
X194310095Y-136459819D02*
X194310095Y-137269342D01*
X194310095Y-137269342D02*
X194357714Y-137364580D01*
X194357714Y-137364580D02*
X194405333Y-137412200D01*
X194405333Y-137412200D02*
X194500571Y-137459819D01*
X194500571Y-137459819D02*
X194691047Y-137459819D01*
X194691047Y-137459819D02*
X194786285Y-137412200D01*
X194786285Y-137412200D02*
X194833904Y-137364580D01*
X194833904Y-137364580D02*
X194881523Y-137269342D01*
X194881523Y-137269342D02*
X194881523Y-136459819D01*
X195833904Y-136459819D02*
X195357714Y-136459819D01*
X195357714Y-136459819D02*
X195310095Y-136936009D01*
X195310095Y-136936009D02*
X195357714Y-136888390D01*
X195357714Y-136888390D02*
X195452952Y-136840771D01*
X195452952Y-136840771D02*
X195691047Y-136840771D01*
X195691047Y-136840771D02*
X195786285Y-136888390D01*
X195786285Y-136888390D02*
X195833904Y-136936009D01*
X195833904Y-136936009D02*
X195881523Y-137031247D01*
X195881523Y-137031247D02*
X195881523Y-137269342D01*
X195881523Y-137269342D02*
X195833904Y-137364580D01*
X195833904Y-137364580D02*
X195786285Y-137412200D01*
X195786285Y-137412200D02*
X195691047Y-137459819D01*
X195691047Y-137459819D02*
X195452952Y-137459819D01*
X195452952Y-137459819D02*
X195357714Y-137412200D01*
X195357714Y-137412200D02*
X195310095Y-137364580D01*
X190574819Y-114942857D02*
X190098628Y-115276190D01*
X190574819Y-115514285D02*
X189574819Y-115514285D01*
X189574819Y-115514285D02*
X189574819Y-115133333D01*
X189574819Y-115133333D02*
X189622438Y-115038095D01*
X189622438Y-115038095D02*
X189670057Y-114990476D01*
X189670057Y-114990476D02*
X189765295Y-114942857D01*
X189765295Y-114942857D02*
X189908152Y-114942857D01*
X189908152Y-114942857D02*
X190003390Y-114990476D01*
X190003390Y-114990476D02*
X190051009Y-115038095D01*
X190051009Y-115038095D02*
X190098628Y-115133333D01*
X190098628Y-115133333D02*
X190098628Y-115514285D01*
X190574819Y-113990476D02*
X190574819Y-114561904D01*
X190574819Y-114276190D02*
X189574819Y-114276190D01*
X189574819Y-114276190D02*
X189717676Y-114371428D01*
X189717676Y-114371428D02*
X189812914Y-114466666D01*
X189812914Y-114466666D02*
X189860533Y-114561904D01*
X189670057Y-113609523D02*
X189622438Y-113561904D01*
X189622438Y-113561904D02*
X189574819Y-113466666D01*
X189574819Y-113466666D02*
X189574819Y-113228571D01*
X189574819Y-113228571D02*
X189622438Y-113133333D01*
X189622438Y-113133333D02*
X189670057Y-113085714D01*
X189670057Y-113085714D02*
X189765295Y-113038095D01*
X189765295Y-113038095D02*
X189860533Y-113038095D01*
X189860533Y-113038095D02*
X190003390Y-113085714D01*
X190003390Y-113085714D02*
X190574819Y-113657142D01*
X190574819Y-113657142D02*
X190574819Y-113038095D01*
X204811333Y-92021819D02*
X204478000Y-91545628D01*
X204239905Y-92021819D02*
X204239905Y-91021819D01*
X204239905Y-91021819D02*
X204620857Y-91021819D01*
X204620857Y-91021819D02*
X204716095Y-91069438D01*
X204716095Y-91069438D02*
X204763714Y-91117057D01*
X204763714Y-91117057D02*
X204811333Y-91212295D01*
X204811333Y-91212295D02*
X204811333Y-91355152D01*
X204811333Y-91355152D02*
X204763714Y-91450390D01*
X204763714Y-91450390D02*
X204716095Y-91498009D01*
X204716095Y-91498009D02*
X204620857Y-91545628D01*
X204620857Y-91545628D02*
X204239905Y-91545628D01*
X205287524Y-92021819D02*
X205478000Y-92021819D01*
X205478000Y-92021819D02*
X205573238Y-91974200D01*
X205573238Y-91974200D02*
X205620857Y-91926580D01*
X205620857Y-91926580D02*
X205716095Y-91783723D01*
X205716095Y-91783723D02*
X205763714Y-91593247D01*
X205763714Y-91593247D02*
X205763714Y-91212295D01*
X205763714Y-91212295D02*
X205716095Y-91117057D01*
X205716095Y-91117057D02*
X205668476Y-91069438D01*
X205668476Y-91069438D02*
X205573238Y-91021819D01*
X205573238Y-91021819D02*
X205382762Y-91021819D01*
X205382762Y-91021819D02*
X205287524Y-91069438D01*
X205287524Y-91069438D02*
X205239905Y-91117057D01*
X205239905Y-91117057D02*
X205192286Y-91212295D01*
X205192286Y-91212295D02*
X205192286Y-91450390D01*
X205192286Y-91450390D02*
X205239905Y-91545628D01*
X205239905Y-91545628D02*
X205287524Y-91593247D01*
X205287524Y-91593247D02*
X205382762Y-91640866D01*
X205382762Y-91640866D02*
X205573238Y-91640866D01*
X205573238Y-91640866D02*
X205668476Y-91593247D01*
X205668476Y-91593247D02*
X205716095Y-91545628D01*
X205716095Y-91545628D02*
X205763714Y-91450390D01*
X186127819Y-113545857D02*
X185651628Y-113879190D01*
X186127819Y-114117285D02*
X185127819Y-114117285D01*
X185127819Y-114117285D02*
X185127819Y-113736333D01*
X185127819Y-113736333D02*
X185175438Y-113641095D01*
X185175438Y-113641095D02*
X185223057Y-113593476D01*
X185223057Y-113593476D02*
X185318295Y-113545857D01*
X185318295Y-113545857D02*
X185461152Y-113545857D01*
X185461152Y-113545857D02*
X185556390Y-113593476D01*
X185556390Y-113593476D02*
X185604009Y-113641095D01*
X185604009Y-113641095D02*
X185651628Y-113736333D01*
X185651628Y-113736333D02*
X185651628Y-114117285D01*
X186127819Y-112593476D02*
X186127819Y-113164904D01*
X186127819Y-112879190D02*
X185127819Y-112879190D01*
X185127819Y-112879190D02*
X185270676Y-112974428D01*
X185270676Y-112974428D02*
X185365914Y-113069666D01*
X185365914Y-113069666D02*
X185413533Y-113164904D01*
X186127819Y-111641095D02*
X186127819Y-112212523D01*
X186127819Y-111926809D02*
X185127819Y-111926809D01*
X185127819Y-111926809D02*
X185270676Y-112022047D01*
X185270676Y-112022047D02*
X185365914Y-112117285D01*
X185365914Y-112117285D02*
X185413533Y-112212523D01*
X199335819Y-111132857D02*
X198859628Y-111466190D01*
X199335819Y-111704285D02*
X198335819Y-111704285D01*
X198335819Y-111704285D02*
X198335819Y-111323333D01*
X198335819Y-111323333D02*
X198383438Y-111228095D01*
X198383438Y-111228095D02*
X198431057Y-111180476D01*
X198431057Y-111180476D02*
X198526295Y-111132857D01*
X198526295Y-111132857D02*
X198669152Y-111132857D01*
X198669152Y-111132857D02*
X198764390Y-111180476D01*
X198764390Y-111180476D02*
X198812009Y-111228095D01*
X198812009Y-111228095D02*
X198859628Y-111323333D01*
X198859628Y-111323333D02*
X198859628Y-111704285D01*
X199335819Y-110180476D02*
X199335819Y-110751904D01*
X199335819Y-110466190D02*
X198335819Y-110466190D01*
X198335819Y-110466190D02*
X198478676Y-110561428D01*
X198478676Y-110561428D02*
X198573914Y-110656666D01*
X198573914Y-110656666D02*
X198621533Y-110751904D01*
X198335819Y-109561428D02*
X198335819Y-109466190D01*
X198335819Y-109466190D02*
X198383438Y-109370952D01*
X198383438Y-109370952D02*
X198431057Y-109323333D01*
X198431057Y-109323333D02*
X198526295Y-109275714D01*
X198526295Y-109275714D02*
X198716771Y-109228095D01*
X198716771Y-109228095D02*
X198954866Y-109228095D01*
X198954866Y-109228095D02*
X199145342Y-109275714D01*
X199145342Y-109275714D02*
X199240580Y-109323333D01*
X199240580Y-109323333D02*
X199288200Y-109370952D01*
X199288200Y-109370952D02*
X199335819Y-109466190D01*
X199335819Y-109466190D02*
X199335819Y-109561428D01*
X199335819Y-109561428D02*
X199288200Y-109656666D01*
X199288200Y-109656666D02*
X199240580Y-109704285D01*
X199240580Y-109704285D02*
X199145342Y-109751904D01*
X199145342Y-109751904D02*
X198954866Y-109799523D01*
X198954866Y-109799523D02*
X198716771Y-109799523D01*
X198716771Y-109799523D02*
X198526295Y-109751904D01*
X198526295Y-109751904D02*
X198431057Y-109704285D01*
X198431057Y-109704285D02*
X198383438Y-109656666D01*
X198383438Y-109656666D02*
X198335819Y-109561428D01*
X183816666Y-130034819D02*
X183816666Y-130749104D01*
X183816666Y-130749104D02*
X183769047Y-130891961D01*
X183769047Y-130891961D02*
X183673809Y-130987200D01*
X183673809Y-130987200D02*
X183530952Y-131034819D01*
X183530952Y-131034819D02*
X183435714Y-131034819D01*
X184816666Y-131034819D02*
X184245238Y-131034819D01*
X184530952Y-131034819D02*
X184530952Y-130034819D01*
X184530952Y-130034819D02*
X184435714Y-130177676D01*
X184435714Y-130177676D02*
X184340476Y-130272914D01*
X184340476Y-130272914D02*
X184245238Y-130320533D01*
X189825333Y-131518819D02*
X189492000Y-131042628D01*
X189253905Y-131518819D02*
X189253905Y-130518819D01*
X189253905Y-130518819D02*
X189634857Y-130518819D01*
X189634857Y-130518819D02*
X189730095Y-130566438D01*
X189730095Y-130566438D02*
X189777714Y-130614057D01*
X189777714Y-130614057D02*
X189825333Y-130709295D01*
X189825333Y-130709295D02*
X189825333Y-130852152D01*
X189825333Y-130852152D02*
X189777714Y-130947390D01*
X189777714Y-130947390D02*
X189730095Y-130995009D01*
X189730095Y-130995009D02*
X189634857Y-131042628D01*
X189634857Y-131042628D02*
X189253905Y-131042628D01*
X190777714Y-131518819D02*
X190206286Y-131518819D01*
X190492000Y-131518819D02*
X190492000Y-130518819D01*
X190492000Y-130518819D02*
X190396762Y-130661676D01*
X190396762Y-130661676D02*
X190301524Y-130756914D01*
X190301524Y-130756914D02*
X190206286Y-130804533D01*
X193510819Y-99694904D02*
X194320342Y-99694904D01*
X194320342Y-99694904D02*
X194415580Y-99647285D01*
X194415580Y-99647285D02*
X194463200Y-99599666D01*
X194463200Y-99599666D02*
X194510819Y-99504428D01*
X194510819Y-99504428D02*
X194510819Y-99313952D01*
X194510819Y-99313952D02*
X194463200Y-99218714D01*
X194463200Y-99218714D02*
X194415580Y-99171095D01*
X194415580Y-99171095D02*
X194320342Y-99123476D01*
X194320342Y-99123476D02*
X193510819Y-99123476D01*
X194510819Y-98123476D02*
X194510819Y-98694904D01*
X194510819Y-98409190D02*
X193510819Y-98409190D01*
X193510819Y-98409190D02*
X193653676Y-98504428D01*
X193653676Y-98504428D02*
X193748914Y-98599666D01*
X193748914Y-98599666D02*
X193796533Y-98694904D01*
X190333333Y-111259580D02*
X190285714Y-111307200D01*
X190285714Y-111307200D02*
X190142857Y-111354819D01*
X190142857Y-111354819D02*
X190047619Y-111354819D01*
X190047619Y-111354819D02*
X189904762Y-111307200D01*
X189904762Y-111307200D02*
X189809524Y-111211961D01*
X189809524Y-111211961D02*
X189761905Y-111116723D01*
X189761905Y-111116723D02*
X189714286Y-110926247D01*
X189714286Y-110926247D02*
X189714286Y-110783390D01*
X189714286Y-110783390D02*
X189761905Y-110592914D01*
X189761905Y-110592914D02*
X189809524Y-110497676D01*
X189809524Y-110497676D02*
X189904762Y-110402438D01*
X189904762Y-110402438D02*
X190047619Y-110354819D01*
X190047619Y-110354819D02*
X190142857Y-110354819D01*
X190142857Y-110354819D02*
X190285714Y-110402438D01*
X190285714Y-110402438D02*
X190333333Y-110450057D01*
X190666667Y-110354819D02*
X191285714Y-110354819D01*
X191285714Y-110354819D02*
X190952381Y-110735771D01*
X190952381Y-110735771D02*
X191095238Y-110735771D01*
X191095238Y-110735771D02*
X191190476Y-110783390D01*
X191190476Y-110783390D02*
X191238095Y-110831009D01*
X191238095Y-110831009D02*
X191285714Y-110926247D01*
X191285714Y-110926247D02*
X191285714Y-111164342D01*
X191285714Y-111164342D02*
X191238095Y-111259580D01*
X191238095Y-111259580D02*
X191190476Y-111307200D01*
X191190476Y-111307200D02*
X191095238Y-111354819D01*
X191095238Y-111354819D02*
X190809524Y-111354819D01*
X190809524Y-111354819D02*
X190714286Y-111307200D01*
X190714286Y-111307200D02*
X190666667Y-111259580D01*
X205406666Y-130034819D02*
X205406666Y-130749104D01*
X205406666Y-130749104D02*
X205359047Y-130891961D01*
X205359047Y-130891961D02*
X205263809Y-130987200D01*
X205263809Y-130987200D02*
X205120952Y-131034819D01*
X205120952Y-131034819D02*
X205025714Y-131034819D01*
X205835238Y-130130057D02*
X205882857Y-130082438D01*
X205882857Y-130082438D02*
X205978095Y-130034819D01*
X205978095Y-130034819D02*
X206216190Y-130034819D01*
X206216190Y-130034819D02*
X206311428Y-130082438D01*
X206311428Y-130082438D02*
X206359047Y-130130057D01*
X206359047Y-130130057D02*
X206406666Y-130225295D01*
X206406666Y-130225295D02*
X206406666Y-130320533D01*
X206406666Y-130320533D02*
X206359047Y-130463390D01*
X206359047Y-130463390D02*
X205787619Y-131034819D01*
X205787619Y-131034819D02*
X206406666Y-131034819D01*
X185253333Y-111259580D02*
X185205714Y-111307200D01*
X185205714Y-111307200D02*
X185062857Y-111354819D01*
X185062857Y-111354819D02*
X184967619Y-111354819D01*
X184967619Y-111354819D02*
X184824762Y-111307200D01*
X184824762Y-111307200D02*
X184729524Y-111211961D01*
X184729524Y-111211961D02*
X184681905Y-111116723D01*
X184681905Y-111116723D02*
X184634286Y-110926247D01*
X184634286Y-110926247D02*
X184634286Y-110783390D01*
X184634286Y-110783390D02*
X184681905Y-110592914D01*
X184681905Y-110592914D02*
X184729524Y-110497676D01*
X184729524Y-110497676D02*
X184824762Y-110402438D01*
X184824762Y-110402438D02*
X184967619Y-110354819D01*
X184967619Y-110354819D02*
X185062857Y-110354819D01*
X185062857Y-110354819D02*
X185205714Y-110402438D01*
X185205714Y-110402438D02*
X185253333Y-110450057D01*
X185634286Y-110450057D02*
X185681905Y-110402438D01*
X185681905Y-110402438D02*
X185777143Y-110354819D01*
X185777143Y-110354819D02*
X186015238Y-110354819D01*
X186015238Y-110354819D02*
X186110476Y-110402438D01*
X186110476Y-110402438D02*
X186158095Y-110450057D01*
X186158095Y-110450057D02*
X186205714Y-110545295D01*
X186205714Y-110545295D02*
X186205714Y-110640533D01*
X186205714Y-110640533D02*
X186158095Y-110783390D01*
X186158095Y-110783390D02*
X185586667Y-111354819D01*
X185586667Y-111354819D02*
X186205714Y-111354819D01*
X195229819Y-122696904D02*
X196039342Y-122696904D01*
X196039342Y-122696904D02*
X196134580Y-122649285D01*
X196134580Y-122649285D02*
X196182200Y-122601666D01*
X196182200Y-122601666D02*
X196229819Y-122506428D01*
X196229819Y-122506428D02*
X196229819Y-122315952D01*
X196229819Y-122315952D02*
X196182200Y-122220714D01*
X196182200Y-122220714D02*
X196134580Y-122173095D01*
X196134580Y-122173095D02*
X196039342Y-122125476D01*
X196039342Y-122125476D02*
X195229819Y-122125476D01*
X195563152Y-121220714D02*
X196229819Y-121220714D01*
X195182200Y-121458809D02*
X195896485Y-121696904D01*
X195896485Y-121696904D02*
X195896485Y-121077857D01*
X195254819Y-102376904D02*
X196064342Y-102376904D01*
X196064342Y-102376904D02*
X196159580Y-102329285D01*
X196159580Y-102329285D02*
X196207200Y-102281666D01*
X196207200Y-102281666D02*
X196254819Y-102186428D01*
X196254819Y-102186428D02*
X196254819Y-101995952D01*
X196254819Y-101995952D02*
X196207200Y-101900714D01*
X196207200Y-101900714D02*
X196159580Y-101853095D01*
X196159580Y-101853095D02*
X196064342Y-101805476D01*
X196064342Y-101805476D02*
X195254819Y-101805476D01*
X195350057Y-101376904D02*
X195302438Y-101329285D01*
X195302438Y-101329285D02*
X195254819Y-101234047D01*
X195254819Y-101234047D02*
X195254819Y-100995952D01*
X195254819Y-100995952D02*
X195302438Y-100900714D01*
X195302438Y-100900714D02*
X195350057Y-100853095D01*
X195350057Y-100853095D02*
X195445295Y-100805476D01*
X195445295Y-100805476D02*
X195540533Y-100805476D01*
X195540533Y-100805476D02*
X195683390Y-100853095D01*
X195683390Y-100853095D02*
X196254819Y-101424523D01*
X196254819Y-101424523D02*
X196254819Y-100805476D01*
X193383819Y-122696904D02*
X194193342Y-122696904D01*
X194193342Y-122696904D02*
X194288580Y-122649285D01*
X194288580Y-122649285D02*
X194336200Y-122601666D01*
X194336200Y-122601666D02*
X194383819Y-122506428D01*
X194383819Y-122506428D02*
X194383819Y-122315952D01*
X194383819Y-122315952D02*
X194336200Y-122220714D01*
X194336200Y-122220714D02*
X194288580Y-122173095D01*
X194288580Y-122173095D02*
X194193342Y-122125476D01*
X194193342Y-122125476D02*
X193383819Y-122125476D01*
X193383819Y-121744523D02*
X193383819Y-121125476D01*
X193383819Y-121125476D02*
X193764771Y-121458809D01*
X193764771Y-121458809D02*
X193764771Y-121315952D01*
X193764771Y-121315952D02*
X193812390Y-121220714D01*
X193812390Y-121220714D02*
X193860009Y-121173095D01*
X193860009Y-121173095D02*
X193955247Y-121125476D01*
X193955247Y-121125476D02*
X194193342Y-121125476D01*
X194193342Y-121125476D02*
X194288580Y-121173095D01*
X194288580Y-121173095D02*
X194336200Y-121220714D01*
X194336200Y-121220714D02*
X194383819Y-121315952D01*
X194383819Y-121315952D02*
X194383819Y-121601666D01*
X194383819Y-121601666D02*
X194336200Y-121696904D01*
X194336200Y-121696904D02*
X194288580Y-121744523D01*
X201509333Y-93672819D02*
X201176000Y-93196628D01*
X200937905Y-93672819D02*
X200937905Y-92672819D01*
X200937905Y-92672819D02*
X201318857Y-92672819D01*
X201318857Y-92672819D02*
X201414095Y-92720438D01*
X201414095Y-92720438D02*
X201461714Y-92768057D01*
X201461714Y-92768057D02*
X201509333Y-92863295D01*
X201509333Y-92863295D02*
X201509333Y-93006152D01*
X201509333Y-93006152D02*
X201461714Y-93101390D01*
X201461714Y-93101390D02*
X201414095Y-93149009D01*
X201414095Y-93149009D02*
X201318857Y-93196628D01*
X201318857Y-93196628D02*
X200937905Y-93196628D01*
X202080762Y-93101390D02*
X201985524Y-93053771D01*
X201985524Y-93053771D02*
X201937905Y-93006152D01*
X201937905Y-93006152D02*
X201890286Y-92910914D01*
X201890286Y-92910914D02*
X201890286Y-92863295D01*
X201890286Y-92863295D02*
X201937905Y-92768057D01*
X201937905Y-92768057D02*
X201985524Y-92720438D01*
X201985524Y-92720438D02*
X202080762Y-92672819D01*
X202080762Y-92672819D02*
X202271238Y-92672819D01*
X202271238Y-92672819D02*
X202366476Y-92720438D01*
X202366476Y-92720438D02*
X202414095Y-92768057D01*
X202414095Y-92768057D02*
X202461714Y-92863295D01*
X202461714Y-92863295D02*
X202461714Y-92910914D01*
X202461714Y-92910914D02*
X202414095Y-93006152D01*
X202414095Y-93006152D02*
X202366476Y-93053771D01*
X202366476Y-93053771D02*
X202271238Y-93101390D01*
X202271238Y-93101390D02*
X202080762Y-93101390D01*
X202080762Y-93101390D02*
X201985524Y-93149009D01*
X201985524Y-93149009D02*
X201937905Y-93196628D01*
X201937905Y-93196628D02*
X201890286Y-93291866D01*
X201890286Y-93291866D02*
X201890286Y-93482342D01*
X201890286Y-93482342D02*
X201937905Y-93577580D01*
X201937905Y-93577580D02*
X201985524Y-93625200D01*
X201985524Y-93625200D02*
X202080762Y-93672819D01*
X202080762Y-93672819D02*
X202271238Y-93672819D01*
X202271238Y-93672819D02*
X202366476Y-93625200D01*
X202366476Y-93625200D02*
X202414095Y-93577580D01*
X202414095Y-93577580D02*
X202461714Y-93482342D01*
X202461714Y-93482342D02*
X202461714Y-93291866D01*
X202461714Y-93291866D02*
X202414095Y-93196628D01*
X202414095Y-93196628D02*
X202366476Y-93149009D01*
X202366476Y-93149009D02*
X202271238Y-93101390D01*
X191793333Y-92149819D02*
X191460000Y-91673628D01*
X191221905Y-92149819D02*
X191221905Y-91149819D01*
X191221905Y-91149819D02*
X191602857Y-91149819D01*
X191602857Y-91149819D02*
X191698095Y-91197438D01*
X191698095Y-91197438D02*
X191745714Y-91245057D01*
X191745714Y-91245057D02*
X191793333Y-91340295D01*
X191793333Y-91340295D02*
X191793333Y-91483152D01*
X191793333Y-91483152D02*
X191745714Y-91578390D01*
X191745714Y-91578390D02*
X191698095Y-91626009D01*
X191698095Y-91626009D02*
X191602857Y-91673628D01*
X191602857Y-91673628D02*
X191221905Y-91673628D01*
X192650476Y-91483152D02*
X192650476Y-92149819D01*
X192412381Y-91102200D02*
X192174286Y-91816485D01*
X192174286Y-91816485D02*
X192793333Y-91816485D01*
X195873333Y-92149819D02*
X195540000Y-91673628D01*
X195301905Y-92149819D02*
X195301905Y-91149819D01*
X195301905Y-91149819D02*
X195682857Y-91149819D01*
X195682857Y-91149819D02*
X195778095Y-91197438D01*
X195778095Y-91197438D02*
X195825714Y-91245057D01*
X195825714Y-91245057D02*
X195873333Y-91340295D01*
X195873333Y-91340295D02*
X195873333Y-91483152D01*
X195873333Y-91483152D02*
X195825714Y-91578390D01*
X195825714Y-91578390D02*
X195778095Y-91626009D01*
X195778095Y-91626009D02*
X195682857Y-91673628D01*
X195682857Y-91673628D02*
X195301905Y-91673628D01*
X196778095Y-91149819D02*
X196301905Y-91149819D01*
X196301905Y-91149819D02*
X196254286Y-91626009D01*
X196254286Y-91626009D02*
X196301905Y-91578390D01*
X196301905Y-91578390D02*
X196397143Y-91530771D01*
X196397143Y-91530771D02*
X196635238Y-91530771D01*
X196635238Y-91530771D02*
X196730476Y-91578390D01*
X196730476Y-91578390D02*
X196778095Y-91626009D01*
X196778095Y-91626009D02*
X196825714Y-91721247D01*
X196825714Y-91721247D02*
X196825714Y-91959342D01*
X196825714Y-91959342D02*
X196778095Y-92054580D01*
X196778095Y-92054580D02*
X196730476Y-92102200D01*
X196730476Y-92102200D02*
X196635238Y-92149819D01*
X196635238Y-92149819D02*
X196397143Y-92149819D01*
X196397143Y-92149819D02*
X196301905Y-92102200D01*
X196301905Y-92102200D02*
X196254286Y-92054580D01*
X187983333Y-95449819D02*
X187650000Y-94973628D01*
X187411905Y-95449819D02*
X187411905Y-94449819D01*
X187411905Y-94449819D02*
X187792857Y-94449819D01*
X187792857Y-94449819D02*
X187888095Y-94497438D01*
X187888095Y-94497438D02*
X187935714Y-94545057D01*
X187935714Y-94545057D02*
X187983333Y-94640295D01*
X187983333Y-94640295D02*
X187983333Y-94783152D01*
X187983333Y-94783152D02*
X187935714Y-94878390D01*
X187935714Y-94878390D02*
X187888095Y-94926009D01*
X187888095Y-94926009D02*
X187792857Y-94973628D01*
X187792857Y-94973628D02*
X187411905Y-94973628D01*
X188316667Y-94449819D02*
X188935714Y-94449819D01*
X188935714Y-94449819D02*
X188602381Y-94830771D01*
X188602381Y-94830771D02*
X188745238Y-94830771D01*
X188745238Y-94830771D02*
X188840476Y-94878390D01*
X188840476Y-94878390D02*
X188888095Y-94926009D01*
X188888095Y-94926009D02*
X188935714Y-95021247D01*
X188935714Y-95021247D02*
X188935714Y-95259342D01*
X188935714Y-95259342D02*
X188888095Y-95354580D01*
X188888095Y-95354580D02*
X188840476Y-95402200D01*
X188840476Y-95402200D02*
X188745238Y-95449819D01*
X188745238Y-95449819D02*
X188459524Y-95449819D01*
X188459524Y-95449819D02*
X188364286Y-95402200D01*
X188364286Y-95402200D02*
X188316667Y-95354580D01*
X197096142Y-95831819D02*
X196762809Y-95355628D01*
X196524714Y-95831819D02*
X196524714Y-94831819D01*
X196524714Y-94831819D02*
X196905666Y-94831819D01*
X196905666Y-94831819D02*
X197000904Y-94879438D01*
X197000904Y-94879438D02*
X197048523Y-94927057D01*
X197048523Y-94927057D02*
X197096142Y-95022295D01*
X197096142Y-95022295D02*
X197096142Y-95165152D01*
X197096142Y-95165152D02*
X197048523Y-95260390D01*
X197048523Y-95260390D02*
X197000904Y-95308009D01*
X197000904Y-95308009D02*
X196905666Y-95355628D01*
X196905666Y-95355628D02*
X196524714Y-95355628D01*
X198048523Y-95831819D02*
X197477095Y-95831819D01*
X197762809Y-95831819D02*
X197762809Y-94831819D01*
X197762809Y-94831819D02*
X197667571Y-94974676D01*
X197667571Y-94974676D02*
X197572333Y-95069914D01*
X197572333Y-95069914D02*
X197477095Y-95117533D01*
X198381857Y-94831819D02*
X199000904Y-94831819D01*
X199000904Y-94831819D02*
X198667571Y-95212771D01*
X198667571Y-95212771D02*
X198810428Y-95212771D01*
X198810428Y-95212771D02*
X198905666Y-95260390D01*
X198905666Y-95260390D02*
X198953285Y-95308009D01*
X198953285Y-95308009D02*
X199000904Y-95403247D01*
X199000904Y-95403247D02*
X199000904Y-95641342D01*
X199000904Y-95641342D02*
X198953285Y-95736580D01*
X198953285Y-95736580D02*
X198905666Y-95784200D01*
X198905666Y-95784200D02*
X198810428Y-95831819D01*
X198810428Y-95831819D02*
X198524714Y-95831819D01*
X198524714Y-95831819D02*
X198429476Y-95784200D01*
X198429476Y-95784200D02*
X198381857Y-95736580D01*
X202017333Y-110308819D02*
X201684000Y-109832628D01*
X201445905Y-110308819D02*
X201445905Y-109308819D01*
X201445905Y-109308819D02*
X201826857Y-109308819D01*
X201826857Y-109308819D02*
X201922095Y-109356438D01*
X201922095Y-109356438D02*
X201969714Y-109404057D01*
X201969714Y-109404057D02*
X202017333Y-109499295D01*
X202017333Y-109499295D02*
X202017333Y-109642152D01*
X202017333Y-109642152D02*
X201969714Y-109737390D01*
X201969714Y-109737390D02*
X201922095Y-109785009D01*
X201922095Y-109785009D02*
X201826857Y-109832628D01*
X201826857Y-109832628D02*
X201445905Y-109832628D01*
X202350667Y-109308819D02*
X203017333Y-109308819D01*
X203017333Y-109308819D02*
X202588762Y-110308819D01*
X193497580Y-101766666D02*
X193545200Y-101814285D01*
X193545200Y-101814285D02*
X193592819Y-101957142D01*
X193592819Y-101957142D02*
X193592819Y-102052380D01*
X193592819Y-102052380D02*
X193545200Y-102195237D01*
X193545200Y-102195237D02*
X193449961Y-102290475D01*
X193449961Y-102290475D02*
X193354723Y-102338094D01*
X193354723Y-102338094D02*
X193164247Y-102385713D01*
X193164247Y-102385713D02*
X193021390Y-102385713D01*
X193021390Y-102385713D02*
X192830914Y-102338094D01*
X192830914Y-102338094D02*
X192735676Y-102290475D01*
X192735676Y-102290475D02*
X192640438Y-102195237D01*
X192640438Y-102195237D02*
X192592819Y-102052380D01*
X192592819Y-102052380D02*
X192592819Y-101957142D01*
X192592819Y-101957142D02*
X192640438Y-101814285D01*
X192640438Y-101814285D02*
X192688057Y-101766666D01*
X193592819Y-100814285D02*
X193592819Y-101385713D01*
X193592819Y-101099999D02*
X192592819Y-101099999D01*
X192592819Y-101099999D02*
X192735676Y-101195237D01*
X192735676Y-101195237D02*
X192830914Y-101290475D01*
X192830914Y-101290475D02*
X192878533Y-101385713D01*
X197049819Y-106973666D02*
X196573628Y-107306999D01*
X197049819Y-107545094D02*
X196049819Y-107545094D01*
X196049819Y-107545094D02*
X196049819Y-107164142D01*
X196049819Y-107164142D02*
X196097438Y-107068904D01*
X196097438Y-107068904D02*
X196145057Y-107021285D01*
X196145057Y-107021285D02*
X196240295Y-106973666D01*
X196240295Y-106973666D02*
X196383152Y-106973666D01*
X196383152Y-106973666D02*
X196478390Y-107021285D01*
X196478390Y-107021285D02*
X196526009Y-107068904D01*
X196526009Y-107068904D02*
X196573628Y-107164142D01*
X196573628Y-107164142D02*
X196573628Y-107545094D01*
X196049819Y-106116523D02*
X196049819Y-106306999D01*
X196049819Y-106306999D02*
X196097438Y-106402237D01*
X196097438Y-106402237D02*
X196145057Y-106449856D01*
X196145057Y-106449856D02*
X196287914Y-106545094D01*
X196287914Y-106545094D02*
X196478390Y-106592713D01*
X196478390Y-106592713D02*
X196859342Y-106592713D01*
X196859342Y-106592713D02*
X196954580Y-106545094D01*
X196954580Y-106545094D02*
X197002200Y-106497475D01*
X197002200Y-106497475D02*
X197049819Y-106402237D01*
X197049819Y-106402237D02*
X197049819Y-106211761D01*
X197049819Y-106211761D02*
X197002200Y-106116523D01*
X197002200Y-106116523D02*
X196954580Y-106068904D01*
X196954580Y-106068904D02*
X196859342Y-106021285D01*
X196859342Y-106021285D02*
X196621247Y-106021285D01*
X196621247Y-106021285D02*
X196526009Y-106068904D01*
X196526009Y-106068904D02*
X196478390Y-106116523D01*
X196478390Y-106116523D02*
X196430771Y-106211761D01*
X196430771Y-106211761D02*
X196430771Y-106402237D01*
X196430771Y-106402237D02*
X196478390Y-106497475D01*
X196478390Y-106497475D02*
X196526009Y-106545094D01*
X196526009Y-106545094D02*
X196621247Y-106592713D01*
D11*
%TO.C,R14*%
X185701000Y-112622064D02*
X185701000Y-112167936D01*
X187171000Y-112622064D02*
X187171000Y-112167936D01*
%TO.C,R2*%
X191378064Y-135482000D02*
X190923936Y-135482000D01*
X191378064Y-134012000D02*
X190923936Y-134012000D01*
%TO.C,U5*%
X192962000Y-138950000D02*
X192962000Y-138465000D01*
X192962000Y-142445000D02*
X192962000Y-141720000D01*
X193687000Y-138225000D02*
X193262000Y-138225000D01*
X193687000Y-142445000D02*
X192962000Y-142445000D01*
X196457000Y-138225000D02*
X197182000Y-138225000D01*
X196457000Y-142445000D02*
X197182000Y-142445000D01*
X197182000Y-138225000D02*
X197182000Y-138950000D01*
X197182000Y-142445000D02*
X197182000Y-141720000D01*
X192962000Y-138225000D02*
X192722000Y-137895000D01*
X193202000Y-137895000D01*
X192962000Y-138225000D01*
G36*
X192962000Y-138225000D02*
G01*
X192722000Y-137895000D01*
X193202000Y-137895000D01*
X192962000Y-138225000D01*
G37*
%TO.C,R12*%
X191035000Y-114527064D02*
X191035000Y-114072936D01*
X192505000Y-114527064D02*
X192505000Y-114072936D01*
%TO.C,R9*%
X205332064Y-92356000D02*
X204877936Y-92356000D01*
X205332064Y-93826000D02*
X204877936Y-93826000D01*
%TO.C,R11*%
X183288000Y-112675936D02*
X183288000Y-113130064D01*
X184758000Y-112675936D02*
X184758000Y-113130064D01*
%TO.C,R10*%
X196496000Y-110262936D02*
X196496000Y-110717064D01*
X197966000Y-110262936D02*
X197966000Y-110717064D01*
%TO.C,J1*%
X185480000Y-134620000D02*
X185480000Y-144840000D01*
X185480000Y-132020000D02*
X185480000Y-133350000D01*
X184150000Y-132020000D02*
X185480000Y-132020000D01*
X182820000Y-144840000D02*
X185480000Y-144840000D01*
X182820000Y-134620000D02*
X185480000Y-134620000D01*
X182820000Y-134620000D02*
X182820000Y-144840000D01*
%TO.C,R1*%
X190923936Y-133450000D02*
X191378064Y-133450000D01*
X190923936Y-131980000D02*
X191378064Y-131980000D01*
%TO.C,U1*%
X182830000Y-100615000D02*
G75*
G02*
X182830000Y-102615000I0J-1000000D01*
G01*
X193110000Y-103865000D02*
X193110000Y-99365000D01*
X193110000Y-99365000D02*
X182830000Y-99365000D01*
X182830000Y-103865000D02*
X193110000Y-103865000D01*
X182830000Y-102615000D02*
X182830000Y-103865000D01*
X182830000Y-99365000D02*
X182830000Y-100615000D01*
%TO.C,C3*%
X190761252Y-108485000D02*
X190238748Y-108485000D01*
X190761252Y-109955000D02*
X190238748Y-109955000D01*
%TO.C,J2*%
X204410000Y-134620000D02*
X204410000Y-144840000D01*
X204410000Y-134620000D02*
X207070000Y-134620000D01*
X204410000Y-144840000D02*
X207070000Y-144840000D01*
X205740000Y-132020000D02*
X207070000Y-132020000D01*
X207070000Y-132020000D02*
X207070000Y-133350000D01*
X207070000Y-134620000D02*
X207070000Y-144840000D01*
%TO.C,C2*%
X185681252Y-108485000D02*
X185158748Y-108485000D01*
X185681252Y-109955000D02*
X185158748Y-109955000D01*
%TO.C,U4*%
X196775000Y-120935000D02*
G75*
G02*
X196775000Y-122935000I0J-1000000D01*
G01*
X207055000Y-124185000D02*
X207055000Y-119685000D01*
X207055000Y-119685000D02*
X196775000Y-119685000D01*
X196775000Y-124185000D02*
X207055000Y-124185000D01*
X196775000Y-122935000D02*
X196775000Y-124185000D01*
X196775000Y-119685000D02*
X196775000Y-120935000D01*
%TO.C,U2*%
X196800000Y-99365000D02*
X196800000Y-100615000D01*
X196800000Y-102615000D02*
X196800000Y-103865000D01*
X196800000Y-103865000D02*
X207080000Y-103865000D01*
X207080000Y-99365000D02*
X196800000Y-99365000D01*
X207080000Y-103865000D02*
X207080000Y-99365000D01*
X196800000Y-100615000D02*
G75*
G02*
X196800000Y-102615000I0J-1000000D01*
G01*
%TO.C,U3*%
X182830000Y-120935000D02*
G75*
G02*
X182830000Y-122935000I0J-1000000D01*
G01*
X193110000Y-124185000D02*
X193110000Y-119685000D01*
X193110000Y-119685000D02*
X182830000Y-119685000D01*
X182830000Y-124185000D02*
X193110000Y-124185000D01*
X182830000Y-122935000D02*
X182830000Y-124185000D01*
X182830000Y-119685000D02*
X182830000Y-120935000D01*
%TO.C,R8*%
X204750936Y-95985000D02*
X205205064Y-95985000D01*
X204750936Y-94515000D02*
X205205064Y-94515000D01*
%TO.C,R4*%
X191732936Y-94080000D02*
X192187064Y-94080000D01*
X191732936Y-92610000D02*
X192187064Y-92610000D01*
%TO.C,R5*%
X195812936Y-94080000D02*
X196267064Y-94080000D01*
X195812936Y-92610000D02*
X196267064Y-92610000D01*
%TO.C,R3*%
X188377064Y-94080000D02*
X187922936Y-94080000D01*
X188377064Y-92610000D02*
X187922936Y-92610000D01*
%TO.C,R13*%
X201268064Y-95731000D02*
X200813936Y-95731000D01*
X201268064Y-94261000D02*
X200813936Y-94261000D01*
%TO.C,R7*%
X202411064Y-107469000D02*
X201956936Y-107469000D01*
X202411064Y-108939000D02*
X201956936Y-108939000D01*
%TO.C,C1*%
X195553000Y-101861252D02*
X195553000Y-101338748D01*
X194083000Y-101861252D02*
X194083000Y-101338748D01*
%TO.C,R6*%
X195680000Y-106579936D02*
X195680000Y-107034064D01*
X194210000Y-106579936D02*
X194210000Y-107034064D01*
%TD*%
M02*
