%TF.GenerationSoftware,KiCad,Pcbnew,8.0.3*%
%TF.CreationDate,2025-09-08T17:35:16+08:00*%
%TF.ProjectId,balancing-car,62616c61-6e63-4696-9e67-2d6361722e6b,rev?*%
%TF.SameCoordinates,Original*%
%TF.FileFunction,Legend,Bot*%
%TF.FilePolarity,Positive*%
%FSLAX46Y46*%
G04 Gerber Fmt 4.6, Leading zero omitted, Abs format (unit mm)*
G04 Created by KiCad (PCBNEW 8.0.3) date 2025-09-08 17:35:16*
%MOMM*%
%LPD*%
G01*
G04 APERTURE LIST*
%ADD10C,0.200000*%
%ADD11O,1.700000X1.700000*%
%ADD12R,1.700000X1.700000*%
G04 APERTURE END LIST*
D10*
X192870345Y-93545600D02*
X192727488Y-93593219D01*
X192727488Y-93593219D02*
X192489393Y-93593219D01*
X192489393Y-93593219D02*
X192394155Y-93545600D01*
X192394155Y-93545600D02*
X192346536Y-93497980D01*
X192346536Y-93497980D02*
X192298917Y-93402742D01*
X192298917Y-93402742D02*
X192298917Y-93307504D01*
X192298917Y-93307504D02*
X192346536Y-93212266D01*
X192346536Y-93212266D02*
X192394155Y-93164647D01*
X192394155Y-93164647D02*
X192489393Y-93117028D01*
X192489393Y-93117028D02*
X192679869Y-93069409D01*
X192679869Y-93069409D02*
X192775107Y-93021790D01*
X192775107Y-93021790D02*
X192822726Y-92974171D01*
X192822726Y-92974171D02*
X192870345Y-92878933D01*
X192870345Y-92878933D02*
X192870345Y-92783695D01*
X192870345Y-92783695D02*
X192822726Y-92688457D01*
X192822726Y-92688457D02*
X192775107Y-92640838D01*
X192775107Y-92640838D02*
X192679869Y-92593219D01*
X192679869Y-92593219D02*
X192441774Y-92593219D01*
X192441774Y-92593219D02*
X192298917Y-92640838D01*
X192013202Y-92593219D02*
X191441774Y-92593219D01*
X191727488Y-93593219D02*
X191727488Y-92593219D01*
X194794383Y-90002419D02*
X194461050Y-91002419D01*
X194461050Y-91002419D02*
X194127717Y-90002419D01*
X193794383Y-91002419D02*
X193794383Y-90335752D01*
X193794383Y-90430990D02*
X193746764Y-90383371D01*
X193746764Y-90383371D02*
X193651526Y-90335752D01*
X193651526Y-90335752D02*
X193508669Y-90335752D01*
X193508669Y-90335752D02*
X193413431Y-90383371D01*
X193413431Y-90383371D02*
X193365812Y-90478609D01*
X193365812Y-90478609D02*
X193365812Y-91002419D01*
X193365812Y-90478609D02*
X193318193Y-90383371D01*
X193318193Y-90383371D02*
X193222955Y-90335752D01*
X193222955Y-90335752D02*
X193080098Y-90335752D01*
X193080098Y-90335752D02*
X192984859Y-90383371D01*
X192984859Y-90383371D02*
X192937240Y-90478609D01*
X192937240Y-90478609D02*
X192937240Y-91002419D01*
X192461050Y-91002419D02*
X192461050Y-90335752D01*
X192461050Y-90002419D02*
X192508669Y-90050038D01*
X192508669Y-90050038D02*
X192461050Y-90097657D01*
X192461050Y-90097657D02*
X192413431Y-90050038D01*
X192413431Y-90050038D02*
X192461050Y-90002419D01*
X192461050Y-90002419D02*
X192461050Y-90097657D01*
X191556289Y-91002419D02*
X191556289Y-90002419D01*
X191556289Y-90954800D02*
X191651527Y-91002419D01*
X191651527Y-91002419D02*
X191842003Y-91002419D01*
X191842003Y-91002419D02*
X191937241Y-90954800D01*
X191937241Y-90954800D02*
X191984860Y-90907180D01*
X191984860Y-90907180D02*
X192032479Y-90811942D01*
X192032479Y-90811942D02*
X192032479Y-90526228D01*
X192032479Y-90526228D02*
X191984860Y-90430990D01*
X191984860Y-90430990D02*
X191937241Y-90383371D01*
X191937241Y-90383371D02*
X191842003Y-90335752D01*
X191842003Y-90335752D02*
X191651527Y-90335752D01*
X191651527Y-90335752D02*
X191556289Y-90383371D01*
X195972326Y-88310019D02*
X195972326Y-87310019D01*
X195972326Y-87310019D02*
X195638993Y-88024304D01*
X195638993Y-88024304D02*
X195305660Y-87310019D01*
X195305660Y-87310019D02*
X195305660Y-88310019D01*
X194686612Y-88310019D02*
X194781850Y-88262400D01*
X194781850Y-88262400D02*
X194829469Y-88214780D01*
X194829469Y-88214780D02*
X194877088Y-88119542D01*
X194877088Y-88119542D02*
X194877088Y-87833828D01*
X194877088Y-87833828D02*
X194829469Y-87738590D01*
X194829469Y-87738590D02*
X194781850Y-87690971D01*
X194781850Y-87690971D02*
X194686612Y-87643352D01*
X194686612Y-87643352D02*
X194543755Y-87643352D01*
X194543755Y-87643352D02*
X194448517Y-87690971D01*
X194448517Y-87690971D02*
X194400898Y-87738590D01*
X194400898Y-87738590D02*
X194353279Y-87833828D01*
X194353279Y-87833828D02*
X194353279Y-88119542D01*
X194353279Y-88119542D02*
X194400898Y-88214780D01*
X194400898Y-88214780D02*
X194448517Y-88262400D01*
X194448517Y-88262400D02*
X194543755Y-88310019D01*
X194543755Y-88310019D02*
X194686612Y-88310019D01*
X194067564Y-87643352D02*
X193686612Y-87643352D01*
X193924707Y-87310019D02*
X193924707Y-88167161D01*
X193924707Y-88167161D02*
X193877088Y-88262400D01*
X193877088Y-88262400D02*
X193781850Y-88310019D01*
X193781850Y-88310019D02*
X193686612Y-88310019D01*
X193210421Y-88310019D02*
X193305659Y-88262400D01*
X193305659Y-88262400D02*
X193353278Y-88214780D01*
X193353278Y-88214780D02*
X193400897Y-88119542D01*
X193400897Y-88119542D02*
X193400897Y-87833828D01*
X193400897Y-87833828D02*
X193353278Y-87738590D01*
X193353278Y-87738590D02*
X193305659Y-87690971D01*
X193305659Y-87690971D02*
X193210421Y-87643352D01*
X193210421Y-87643352D02*
X193067564Y-87643352D01*
X193067564Y-87643352D02*
X192972326Y-87690971D01*
X192972326Y-87690971D02*
X192924707Y-87738590D01*
X192924707Y-87738590D02*
X192877088Y-87833828D01*
X192877088Y-87833828D02*
X192877088Y-88119542D01*
X192877088Y-88119542D02*
X192924707Y-88214780D01*
X192924707Y-88214780D02*
X192972326Y-88262400D01*
X192972326Y-88262400D02*
X193067564Y-88310019D01*
X193067564Y-88310019D02*
X193210421Y-88310019D01*
X192448516Y-88310019D02*
X192448516Y-87643352D01*
X192448516Y-87833828D02*
X192400897Y-87738590D01*
X192400897Y-87738590D02*
X192353278Y-87690971D01*
X192353278Y-87690971D02*
X192258040Y-87643352D01*
X192258040Y-87643352D02*
X192162802Y-87643352D01*
X191496135Y-87786209D02*
X191353278Y-87833828D01*
X191353278Y-87833828D02*
X191305659Y-87881447D01*
X191305659Y-87881447D02*
X191258040Y-87976685D01*
X191258040Y-87976685D02*
X191258040Y-88119542D01*
X191258040Y-88119542D02*
X191305659Y-88214780D01*
X191305659Y-88214780D02*
X191353278Y-88262400D01*
X191353278Y-88262400D02*
X191448516Y-88310019D01*
X191448516Y-88310019D02*
X191829468Y-88310019D01*
X191829468Y-88310019D02*
X191829468Y-87310019D01*
X191829468Y-87310019D02*
X191496135Y-87310019D01*
X191496135Y-87310019D02*
X191400897Y-87357638D01*
X191400897Y-87357638D02*
X191353278Y-87405257D01*
X191353278Y-87405257D02*
X191305659Y-87500495D01*
X191305659Y-87500495D02*
X191305659Y-87595733D01*
X191305659Y-87595733D02*
X191353278Y-87690971D01*
X191353278Y-87690971D02*
X191400897Y-87738590D01*
X191400897Y-87738590D02*
X191496135Y-87786209D01*
X191496135Y-87786209D02*
X191829468Y-87786209D01*
X193981583Y-84770019D02*
X193648250Y-85770019D01*
X193648250Y-85770019D02*
X193314917Y-84770019D01*
X192553012Y-85722400D02*
X192648250Y-85770019D01*
X192648250Y-85770019D02*
X192838726Y-85770019D01*
X192838726Y-85770019D02*
X192933964Y-85722400D01*
X192933964Y-85722400D02*
X192981583Y-85674780D01*
X192981583Y-85674780D02*
X193029202Y-85579542D01*
X193029202Y-85579542D02*
X193029202Y-85293828D01*
X193029202Y-85293828D02*
X192981583Y-85198590D01*
X192981583Y-85198590D02*
X192933964Y-85150971D01*
X192933964Y-85150971D02*
X192838726Y-85103352D01*
X192838726Y-85103352D02*
X192648250Y-85103352D01*
X192648250Y-85103352D02*
X192553012Y-85150971D01*
X191695869Y-85722400D02*
X191791107Y-85770019D01*
X191791107Y-85770019D02*
X191981583Y-85770019D01*
X191981583Y-85770019D02*
X192076821Y-85722400D01*
X192076821Y-85722400D02*
X192124440Y-85674780D01*
X192124440Y-85674780D02*
X192172059Y-85579542D01*
X192172059Y-85579542D02*
X192172059Y-85293828D01*
X192172059Y-85293828D02*
X192124440Y-85198590D01*
X192124440Y-85198590D02*
X192076821Y-85150971D01*
X192076821Y-85150971D02*
X191981583Y-85103352D01*
X191981583Y-85103352D02*
X191791107Y-85103352D01*
X191791107Y-85103352D02*
X191695869Y-85150971D01*
X196327926Y-83331619D02*
X196327926Y-82331619D01*
X196327926Y-82331619D02*
X195994593Y-83045904D01*
X195994593Y-83045904D02*
X195661260Y-82331619D01*
X195661260Y-82331619D02*
X195661260Y-83331619D01*
X195042212Y-83331619D02*
X195137450Y-83284000D01*
X195137450Y-83284000D02*
X195185069Y-83236380D01*
X195185069Y-83236380D02*
X195232688Y-83141142D01*
X195232688Y-83141142D02*
X195232688Y-82855428D01*
X195232688Y-82855428D02*
X195185069Y-82760190D01*
X195185069Y-82760190D02*
X195137450Y-82712571D01*
X195137450Y-82712571D02*
X195042212Y-82664952D01*
X195042212Y-82664952D02*
X194899355Y-82664952D01*
X194899355Y-82664952D02*
X194804117Y-82712571D01*
X194804117Y-82712571D02*
X194756498Y-82760190D01*
X194756498Y-82760190D02*
X194708879Y-82855428D01*
X194708879Y-82855428D02*
X194708879Y-83141142D01*
X194708879Y-83141142D02*
X194756498Y-83236380D01*
X194756498Y-83236380D02*
X194804117Y-83284000D01*
X194804117Y-83284000D02*
X194899355Y-83331619D01*
X194899355Y-83331619D02*
X195042212Y-83331619D01*
X194423164Y-82664952D02*
X194042212Y-82664952D01*
X194280307Y-82331619D02*
X194280307Y-83188761D01*
X194280307Y-83188761D02*
X194232688Y-83284000D01*
X194232688Y-83284000D02*
X194137450Y-83331619D01*
X194137450Y-83331619D02*
X194042212Y-83331619D01*
X193566021Y-83331619D02*
X193661259Y-83284000D01*
X193661259Y-83284000D02*
X193708878Y-83236380D01*
X193708878Y-83236380D02*
X193756497Y-83141142D01*
X193756497Y-83141142D02*
X193756497Y-82855428D01*
X193756497Y-82855428D02*
X193708878Y-82760190D01*
X193708878Y-82760190D02*
X193661259Y-82712571D01*
X193661259Y-82712571D02*
X193566021Y-82664952D01*
X193566021Y-82664952D02*
X193423164Y-82664952D01*
X193423164Y-82664952D02*
X193327926Y-82712571D01*
X193327926Y-82712571D02*
X193280307Y-82760190D01*
X193280307Y-82760190D02*
X193232688Y-82855428D01*
X193232688Y-82855428D02*
X193232688Y-83141142D01*
X193232688Y-83141142D02*
X193280307Y-83236380D01*
X193280307Y-83236380D02*
X193327926Y-83284000D01*
X193327926Y-83284000D02*
X193423164Y-83331619D01*
X193423164Y-83331619D02*
X193566021Y-83331619D01*
X192804116Y-83331619D02*
X192804116Y-82664952D01*
X192804116Y-82855428D02*
X192756497Y-82760190D01*
X192756497Y-82760190D02*
X192708878Y-82712571D01*
X192708878Y-82712571D02*
X192613640Y-82664952D01*
X192613640Y-82664952D02*
X192518402Y-82664952D01*
X192232687Y-83045904D02*
X191756497Y-83045904D01*
X192327925Y-83331619D02*
X191994592Y-82331619D01*
X191994592Y-82331619D02*
X191661259Y-83331619D01*
X208380250Y-92913828D02*
X208380250Y-93390019D01*
X208713583Y-92390019D02*
X208380250Y-92913828D01*
X208380250Y-92913828D02*
X208046917Y-92390019D01*
X207570726Y-93390019D02*
X207665964Y-93342400D01*
X207665964Y-93342400D02*
X207713583Y-93294780D01*
X207713583Y-93294780D02*
X207761202Y-93199542D01*
X207761202Y-93199542D02*
X207761202Y-92913828D01*
X207761202Y-92913828D02*
X207713583Y-92818590D01*
X207713583Y-92818590D02*
X207665964Y-92770971D01*
X207665964Y-92770971D02*
X207570726Y-92723352D01*
X207570726Y-92723352D02*
X207427869Y-92723352D01*
X207427869Y-92723352D02*
X207332631Y-92770971D01*
X207332631Y-92770971D02*
X207285012Y-92818590D01*
X207285012Y-92818590D02*
X207237393Y-92913828D01*
X207237393Y-92913828D02*
X207237393Y-93199542D01*
X207237393Y-93199542D02*
X207285012Y-93294780D01*
X207285012Y-93294780D02*
X207332631Y-93342400D01*
X207332631Y-93342400D02*
X207427869Y-93390019D01*
X207427869Y-93390019D02*
X207570726Y-93390019D01*
X206380250Y-92723352D02*
X206380250Y-93390019D01*
X206808821Y-92723352D02*
X206808821Y-93247161D01*
X206808821Y-93247161D02*
X206761202Y-93342400D01*
X206761202Y-93342400D02*
X206665964Y-93390019D01*
X206665964Y-93390019D02*
X206523107Y-93390019D01*
X206523107Y-93390019D02*
X206427869Y-93342400D01*
X206427869Y-93342400D02*
X206380250Y-93294780D01*
X206046916Y-92723352D02*
X205665964Y-92723352D01*
X205904059Y-92390019D02*
X205904059Y-93247161D01*
X205904059Y-93247161D02*
X205856440Y-93342400D01*
X205856440Y-93342400D02*
X205761202Y-93390019D01*
X205761202Y-93390019D02*
X205665964Y-93390019D01*
X208818364Y-89697619D02*
X208151698Y-90697619D01*
X208151698Y-89697619D02*
X208818364Y-90697619D01*
X207627888Y-90697619D02*
X207723126Y-90650000D01*
X207723126Y-90650000D02*
X207770745Y-90602380D01*
X207770745Y-90602380D02*
X207818364Y-90507142D01*
X207818364Y-90507142D02*
X207818364Y-90221428D01*
X207818364Y-90221428D02*
X207770745Y-90126190D01*
X207770745Y-90126190D02*
X207723126Y-90078571D01*
X207723126Y-90078571D02*
X207627888Y-90030952D01*
X207627888Y-90030952D02*
X207485031Y-90030952D01*
X207485031Y-90030952D02*
X207389793Y-90078571D01*
X207389793Y-90078571D02*
X207342174Y-90126190D01*
X207342174Y-90126190D02*
X207294555Y-90221428D01*
X207294555Y-90221428D02*
X207294555Y-90507142D01*
X207294555Y-90507142D02*
X207342174Y-90602380D01*
X207342174Y-90602380D02*
X207389793Y-90650000D01*
X207389793Y-90650000D02*
X207485031Y-90697619D01*
X207485031Y-90697619D02*
X207627888Y-90697619D01*
X206437412Y-90030952D02*
X206437412Y-90697619D01*
X206865983Y-90030952D02*
X206865983Y-90554761D01*
X206865983Y-90554761D02*
X206818364Y-90650000D01*
X206818364Y-90650000D02*
X206723126Y-90697619D01*
X206723126Y-90697619D02*
X206580269Y-90697619D01*
X206580269Y-90697619D02*
X206485031Y-90650000D01*
X206485031Y-90650000D02*
X206437412Y-90602380D01*
X206104078Y-90030952D02*
X205723126Y-90030952D01*
X205961221Y-89697619D02*
X205961221Y-90554761D01*
X205961221Y-90554761D02*
X205913602Y-90650000D01*
X205913602Y-90650000D02*
X205818364Y-90697619D01*
X205818364Y-90697619D02*
X205723126Y-90697619D01*
X208818364Y-87411619D02*
X208151698Y-87411619D01*
X208151698Y-87411619D02*
X208818364Y-88411619D01*
X208818364Y-88411619D02*
X208151698Y-88411619D01*
X207627888Y-88411619D02*
X207723126Y-88364000D01*
X207723126Y-88364000D02*
X207770745Y-88316380D01*
X207770745Y-88316380D02*
X207818364Y-88221142D01*
X207818364Y-88221142D02*
X207818364Y-87935428D01*
X207818364Y-87935428D02*
X207770745Y-87840190D01*
X207770745Y-87840190D02*
X207723126Y-87792571D01*
X207723126Y-87792571D02*
X207627888Y-87744952D01*
X207627888Y-87744952D02*
X207485031Y-87744952D01*
X207485031Y-87744952D02*
X207389793Y-87792571D01*
X207389793Y-87792571D02*
X207342174Y-87840190D01*
X207342174Y-87840190D02*
X207294555Y-87935428D01*
X207294555Y-87935428D02*
X207294555Y-88221142D01*
X207294555Y-88221142D02*
X207342174Y-88316380D01*
X207342174Y-88316380D02*
X207389793Y-88364000D01*
X207389793Y-88364000D02*
X207485031Y-88411619D01*
X207485031Y-88411619D02*
X207627888Y-88411619D01*
X206437412Y-87744952D02*
X206437412Y-88411619D01*
X206865983Y-87744952D02*
X206865983Y-88268761D01*
X206865983Y-88268761D02*
X206818364Y-88364000D01*
X206818364Y-88364000D02*
X206723126Y-88411619D01*
X206723126Y-88411619D02*
X206580269Y-88411619D01*
X206580269Y-88411619D02*
X206485031Y-88364000D01*
X206485031Y-88364000D02*
X206437412Y-88316380D01*
X206104078Y-87744952D02*
X205723126Y-87744952D01*
X205961221Y-87411619D02*
X205961221Y-88268761D01*
X205961221Y-88268761D02*
X205913602Y-88364000D01*
X205913602Y-88364000D02*
X205818364Y-88411619D01*
X205818364Y-88411619D02*
X205723126Y-88411619D01*
X208973945Y-85484304D02*
X208497755Y-85484304D01*
X209069183Y-85770019D02*
X208735850Y-84770019D01*
X208735850Y-84770019D02*
X208402517Y-85770019D01*
X207640612Y-85722400D02*
X207735850Y-85770019D01*
X207735850Y-85770019D02*
X207926326Y-85770019D01*
X207926326Y-85770019D02*
X208021564Y-85722400D01*
X208021564Y-85722400D02*
X208069183Y-85674780D01*
X208069183Y-85674780D02*
X208116802Y-85579542D01*
X208116802Y-85579542D02*
X208116802Y-85293828D01*
X208116802Y-85293828D02*
X208069183Y-85198590D01*
X208069183Y-85198590D02*
X208021564Y-85150971D01*
X208021564Y-85150971D02*
X207926326Y-85103352D01*
X207926326Y-85103352D02*
X207735850Y-85103352D01*
X207735850Y-85103352D02*
X207640612Y-85150971D01*
X206783469Y-85722400D02*
X206878707Y-85770019D01*
X206878707Y-85770019D02*
X207069183Y-85770019D01*
X207069183Y-85770019D02*
X207164421Y-85722400D01*
X207164421Y-85722400D02*
X207212040Y-85674780D01*
X207212040Y-85674780D02*
X207259659Y-85579542D01*
X207259659Y-85579542D02*
X207259659Y-85293828D01*
X207259659Y-85293828D02*
X207212040Y-85198590D01*
X207212040Y-85198590D02*
X207164421Y-85150971D01*
X207164421Y-85150971D02*
X207069183Y-85103352D01*
X207069183Y-85103352D02*
X206878707Y-85103352D01*
X206878707Y-85103352D02*
X206783469Y-85150971D01*
X205973945Y-85722400D02*
X206069183Y-85770019D01*
X206069183Y-85770019D02*
X206259659Y-85770019D01*
X206259659Y-85770019D02*
X206354897Y-85722400D01*
X206354897Y-85722400D02*
X206402516Y-85627161D01*
X206402516Y-85627161D02*
X206402516Y-85246209D01*
X206402516Y-85246209D02*
X206354897Y-85150971D01*
X206354897Y-85150971D02*
X206259659Y-85103352D01*
X206259659Y-85103352D02*
X206069183Y-85103352D01*
X206069183Y-85103352D02*
X205973945Y-85150971D01*
X205973945Y-85150971D02*
X205926326Y-85246209D01*
X205926326Y-85246209D02*
X205926326Y-85341447D01*
X205926326Y-85341447D02*
X206402516Y-85436685D01*
X205354897Y-85770019D02*
X205450135Y-85722400D01*
X205450135Y-85722400D02*
X205497754Y-85627161D01*
X205497754Y-85627161D02*
X205497754Y-84770019D01*
X204592992Y-85722400D02*
X204688230Y-85770019D01*
X204688230Y-85770019D02*
X204878706Y-85770019D01*
X204878706Y-85770019D02*
X204973944Y-85722400D01*
X204973944Y-85722400D02*
X205021563Y-85627161D01*
X205021563Y-85627161D02*
X205021563Y-85246209D01*
X205021563Y-85246209D02*
X204973944Y-85150971D01*
X204973944Y-85150971D02*
X204878706Y-85103352D01*
X204878706Y-85103352D02*
X204688230Y-85103352D01*
X204688230Y-85103352D02*
X204592992Y-85150971D01*
X204592992Y-85150971D02*
X204545373Y-85246209D01*
X204545373Y-85246209D02*
X204545373Y-85341447D01*
X204545373Y-85341447D02*
X205021563Y-85436685D01*
X204116801Y-85770019D02*
X204116801Y-85103352D01*
X204116801Y-85293828D02*
X204069182Y-85198590D01*
X204069182Y-85198590D02*
X204021563Y-85150971D01*
X204021563Y-85150971D02*
X203926325Y-85103352D01*
X203926325Y-85103352D02*
X203831087Y-85103352D01*
X203069182Y-85770019D02*
X203069182Y-85246209D01*
X203069182Y-85246209D02*
X203116801Y-85150971D01*
X203116801Y-85150971D02*
X203212039Y-85103352D01*
X203212039Y-85103352D02*
X203402515Y-85103352D01*
X203402515Y-85103352D02*
X203497753Y-85150971D01*
X203069182Y-85722400D02*
X203164420Y-85770019D01*
X203164420Y-85770019D02*
X203402515Y-85770019D01*
X203402515Y-85770019D02*
X203497753Y-85722400D01*
X203497753Y-85722400D02*
X203545372Y-85627161D01*
X203545372Y-85627161D02*
X203545372Y-85531923D01*
X203545372Y-85531923D02*
X203497753Y-85436685D01*
X203497753Y-85436685D02*
X203402515Y-85389066D01*
X203402515Y-85389066D02*
X203164420Y-85389066D01*
X203164420Y-85389066D02*
X203069182Y-85341447D01*
X202735848Y-85103352D02*
X202354896Y-85103352D01*
X202592991Y-84770019D02*
X202592991Y-85627161D01*
X202592991Y-85627161D02*
X202545372Y-85722400D01*
X202545372Y-85722400D02*
X202450134Y-85770019D01*
X202450134Y-85770019D02*
X202354896Y-85770019D01*
X202021562Y-85770019D02*
X202021562Y-85103352D01*
X202021562Y-84770019D02*
X202069181Y-84817638D01*
X202069181Y-84817638D02*
X202021562Y-84865257D01*
X202021562Y-84865257D02*
X201973943Y-84817638D01*
X201973943Y-84817638D02*
X202021562Y-84770019D01*
X202021562Y-84770019D02*
X202021562Y-84865257D01*
X201402515Y-85770019D02*
X201497753Y-85722400D01*
X201497753Y-85722400D02*
X201545372Y-85674780D01*
X201545372Y-85674780D02*
X201592991Y-85579542D01*
X201592991Y-85579542D02*
X201592991Y-85293828D01*
X201592991Y-85293828D02*
X201545372Y-85198590D01*
X201545372Y-85198590D02*
X201497753Y-85150971D01*
X201497753Y-85150971D02*
X201402515Y-85103352D01*
X201402515Y-85103352D02*
X201259658Y-85103352D01*
X201259658Y-85103352D02*
X201164420Y-85150971D01*
X201164420Y-85150971D02*
X201116801Y-85198590D01*
X201116801Y-85198590D02*
X201069182Y-85293828D01*
X201069182Y-85293828D02*
X201069182Y-85579542D01*
X201069182Y-85579542D02*
X201116801Y-85674780D01*
X201116801Y-85674780D02*
X201164420Y-85722400D01*
X201164420Y-85722400D02*
X201259658Y-85770019D01*
X201259658Y-85770019D02*
X201402515Y-85770019D01*
X200640610Y-85103352D02*
X200640610Y-85770019D01*
X200640610Y-85198590D02*
X200592991Y-85150971D01*
X200592991Y-85150971D02*
X200497753Y-85103352D01*
X200497753Y-85103352D02*
X200354896Y-85103352D01*
X200354896Y-85103352D02*
X200259658Y-85150971D01*
X200259658Y-85150971D02*
X200212039Y-85246209D01*
X200212039Y-85246209D02*
X200212039Y-85770019D01*
X208605717Y-82277638D02*
X208700955Y-82230019D01*
X208700955Y-82230019D02*
X208843812Y-82230019D01*
X208843812Y-82230019D02*
X208986669Y-82277638D01*
X208986669Y-82277638D02*
X209081907Y-82372876D01*
X209081907Y-82372876D02*
X209129526Y-82468114D01*
X209129526Y-82468114D02*
X209177145Y-82658590D01*
X209177145Y-82658590D02*
X209177145Y-82801447D01*
X209177145Y-82801447D02*
X209129526Y-82991923D01*
X209129526Y-82991923D02*
X209081907Y-83087161D01*
X209081907Y-83087161D02*
X208986669Y-83182400D01*
X208986669Y-83182400D02*
X208843812Y-83230019D01*
X208843812Y-83230019D02*
X208748574Y-83230019D01*
X208748574Y-83230019D02*
X208605717Y-83182400D01*
X208605717Y-83182400D02*
X208558098Y-83134780D01*
X208558098Y-83134780D02*
X208558098Y-82801447D01*
X208558098Y-82801447D02*
X208748574Y-82801447D01*
X208129526Y-83230019D02*
X208129526Y-82230019D01*
X208129526Y-82230019D02*
X207558098Y-83230019D01*
X207558098Y-83230019D02*
X207558098Y-82230019D01*
X207081907Y-83230019D02*
X207081907Y-82230019D01*
X207081907Y-82230019D02*
X206843812Y-82230019D01*
X206843812Y-82230019D02*
X206700955Y-82277638D01*
X206700955Y-82277638D02*
X206605717Y-82372876D01*
X206605717Y-82372876D02*
X206558098Y-82468114D01*
X206558098Y-82468114D02*
X206510479Y-82658590D01*
X206510479Y-82658590D02*
X206510479Y-82801447D01*
X206510479Y-82801447D02*
X206558098Y-82991923D01*
X206558098Y-82991923D02*
X206605717Y-83087161D01*
X206605717Y-83087161D02*
X206700955Y-83182400D01*
X206700955Y-83182400D02*
X206843812Y-83230019D01*
X206843812Y-83230019D02*
X207081907Y-83230019D01*
%LPC*%
D11*
%TO.C,J2*%
X189636000Y-92994000D03*
X189636000Y-90454000D03*
X189636000Y-87914000D03*
X189636000Y-85374000D03*
D12*
X189636000Y-82834000D03*
%TD*%
D11*
%TO.C,J1*%
X211099000Y-92994000D03*
X211099000Y-90454000D03*
X211099000Y-87914000D03*
X211099000Y-85374000D03*
D12*
X211099000Y-82834000D03*
%TD*%
%LPD*%
M02*
