%TF.GenerationSoftware,KiCad,Pcbnew,8.0.3*%
%TF.CreationDate,2025-09-08T17:35:16+08:00*%
%TF.ProjectId,balancing-car,62616c61-6e63-4696-9e67-2d6361722e6b,rev?*%
%TF.SameCoordinates,Original*%
%TF.FileFunction,Copper,L1,Top*%
%TF.FilePolarity,Positive*%
%FSLAX46Y46*%
G04 Gerber Fmt 4.6, Leading zero omitted, Abs format (unit mm)*
G04 Created by KiCad (PCBNEW 8.0.3) date 2025-09-08 17:35:16*
%MOMM*%
%LPD*%
G01*
G04 APERTURE LIST*
G04 Aperture macros list*
%AMRoundRect*
0 Rectangle with rounded corners*
0 $1 Rounding radius*
0 $2 $3 $4 $5 $6 $7 $8 $9 X,Y pos of 4 corners*
0 Add a 4 corners polygon primitive as box body*
4,1,4,$2,$3,$4,$5,$6,$7,$8,$9,$2,$3,0*
0 Add four circle primitives for the rounded corners*
1,1,$1+$1,$2,$3*
1,1,$1+$1,$4,$5*
1,1,$1+$1,$6,$7*
1,1,$1+$1,$8,$9*
0 Add four rect primitives between the rounded corners*
20,1,$1+$1,$2,$3,$4,$5,0*
20,1,$1+$1,$4,$5,$6,$7,0*
20,1,$1+$1,$6,$7,$8,$9,0*
20,1,$1+$1,$8,$9,$2,$3,0*%
G04 Aperture macros list end*
%TA.AperFunction,SMDPad,CuDef*%
%ADD10RoundRect,0.150000X-0.650000X-0.150000X0.650000X-0.150000X0.650000X0.150000X-0.650000X0.150000X0*%
%TD*%
%TA.AperFunction,HeatsinkPad*%
%ADD11R,2.410000X3.100000*%
%TD*%
%TA.AperFunction,HeatsinkPad*%
%ADD12R,2.350000X2.350000*%
%TD*%
%TA.AperFunction,SMDPad,CuDef*%
%ADD13RoundRect,0.075000X-0.075000X-0.362500X0.075000X-0.362500X0.075000X0.362500X-0.075000X0.362500X0*%
%TD*%
%TA.AperFunction,SMDPad,CuDef*%
%ADD14RoundRect,0.075000X-0.362500X-0.075000X0.362500X-0.075000X0.362500X0.075000X-0.362500X0.075000X0*%
%TD*%
%TA.AperFunction,SMDPad,CuDef*%
%ADD15RoundRect,0.150000X0.825000X0.150000X-0.825000X0.150000X-0.825000X-0.150000X0.825000X-0.150000X0*%
%TD*%
%TA.AperFunction,SMDPad,CuDef*%
%ADD16RoundRect,0.250000X-0.450000X0.350000X-0.450000X-0.350000X0.450000X-0.350000X0.450000X0.350000X0*%
%TD*%
%TA.AperFunction,SMDPad,CuDef*%
%ADD17RoundRect,0.250000X0.450000X-0.350000X0.450000X0.350000X-0.450000X0.350000X-0.450000X-0.350000X0*%
%TD*%
%TA.AperFunction,SMDPad,CuDef*%
%ADD18RoundRect,0.250000X-0.350000X-0.450000X0.350000X-0.450000X0.350000X0.450000X-0.350000X0.450000X0*%
%TD*%
%TA.AperFunction,SMDPad,CuDef*%
%ADD19RoundRect,0.250000X0.350000X0.450000X-0.350000X0.450000X-0.350000X-0.450000X0.350000X-0.450000X0*%
%TD*%
%TA.AperFunction,ComponentPad*%
%ADD20O,1.700000X1.700000*%
%TD*%
%TA.AperFunction,ComponentPad*%
%ADD21R,1.700000X1.700000*%
%TD*%
%TA.AperFunction,SMDPad,CuDef*%
%ADD22RoundRect,0.250000X-0.475000X0.337500X-0.475000X-0.337500X0.475000X-0.337500X0.475000X0.337500X0*%
%TD*%
%TA.AperFunction,SMDPad,CuDef*%
%ADD23RoundRect,0.250000X-0.337500X-0.475000X0.337500X-0.475000X0.337500X0.475000X-0.337500X0.475000X0*%
%TD*%
%TA.AperFunction,ViaPad*%
%ADD24C,0.600000*%
%TD*%
%TA.AperFunction,Conductor*%
%ADD25C,0.200000*%
%TD*%
%TA.AperFunction,Conductor*%
%ADD26C,0.400000*%
%TD*%
G04 APERTURE END LIST*
D10*
%TO.P,U4,1,OutA*%
%TO.N,/MotorA*%
X197696800Y-83769200D03*
%TO.P,U4,2,V+*%
%TO.N,VCC*%
X197696800Y-85039200D03*
%TO.P,U4,3,V+*%
X197696800Y-86309200D03*
%TO.P,U4,4,OutB*%
%TO.N,/MotorB*%
X197696800Y-87579200D03*
%TO.P,U4,5,V-*%
%TO.N,GND*%
X202996800Y-87579200D03*
%TO.P,U4,6,InA*%
%TO.N,Net-(U4A-InA)*%
X202996800Y-86309200D03*
%TO.P,U4,7,InB*%
%TO.N,Net-(U4A-InB)*%
X202996800Y-85039200D03*
%TO.P,U4,8,V-*%
%TO.N,GND*%
X202996800Y-83769200D03*
D11*
%TO.P,U4,9*%
X200346800Y-85674200D03*
%TD*%
D12*
%TO.P,U5,17*%
%TO.N,N/C*%
X200701000Y-123284500D03*
D13*
%TO.P,U5,16,NC*%
%TO.N,unconnected-(U5-NC-Pad16)*%
X199726000Y-121347000D03*
%TO.P,U5,15,Vcc*%
%TO.N,VCC*%
X200376000Y-121347000D03*
%TO.P,U5,14,Vcc*%
X201026000Y-121347000D03*
%TO.P,U5,13,NC*%
%TO.N,unconnected-(U5-NC-Pad13)*%
X201676000Y-121347000D03*
D14*
%TO.P,U5,12,Xout*%
%TO.N,/Xout*%
X202638500Y-122309500D03*
%TO.P,U5,11,NC*%
%TO.N,unconnected-(U5-NC-Pad11)*%
X202638500Y-122959500D03*
%TO.P,U5,10,Yout*%
%TO.N,/Yout*%
X202638500Y-123609500D03*
%TO.P,U5,9,NC*%
%TO.N,unconnected-(U5-NC-Pad9)*%
X202638500Y-124259500D03*
D13*
%TO.P,U5,8,Zout*%
%TO.N,/Zout*%
X201676000Y-125222000D03*
%TO.P,U5,7,Gnd*%
%TO.N,GND*%
X201026000Y-125222000D03*
%TO.P,U5,6,Gnd*%
X200376000Y-125222000D03*
%TO.P,U5,5,Gnd*%
X199726000Y-125222000D03*
D14*
%TO.P,U5,4,NC*%
%TO.N,unconnected-(U5-NC-Pad4)*%
X198763500Y-124259500D03*
%TO.P,U5,3,Gnd*%
%TO.N,GND*%
X198763500Y-123609500D03*
%TO.P,U5,2,ST*%
%TO.N,/ST*%
X198763500Y-122959500D03*
%TO.P,U5,1,NC*%
%TO.N,unconnected-(U5-NC-Pad1)*%
X198763500Y-122309500D03*
%TD*%
D15*
%TO.P,U3,8,V+*%
%TO.N,VCC*%
X198058000Y-95123000D03*
%TO.P,U3,7*%
%TO.N,Net-(U4A-InA)*%
X198058000Y-93853000D03*
%TO.P,U3,6,-*%
%TO.N,/v_sharktooth*%
X198058000Y-92583000D03*
%TO.P,U3,5,+*%
%TO.N,Net-(U3B-+)*%
X198058000Y-91313000D03*
%TO.P,U3,4,V-*%
%TO.N,GND*%
X203008000Y-91313000D03*
%TO.P,U3,3,+*%
%TO.N,/v_sharktooth*%
X203008000Y-92583000D03*
%TO.P,U3,2,-*%
%TO.N,Net-(U3A--)*%
X203008000Y-93853000D03*
%TO.P,U3,1*%
%TO.N,Net-(U4A-InB)*%
X203008000Y-95123000D03*
%TD*%
%TO.P,U2,8,V+*%
%TO.N,VCC*%
X198134200Y-118237000D03*
%TO.P,U2,7*%
%TO.N,Net-(U2B--)*%
X198134200Y-116967000D03*
%TO.P,U2,6,-*%
X198134200Y-115697000D03*
%TO.P,U2,5,+*%
%TO.N,Net-(U2B-+)*%
X198134200Y-114427000D03*
%TO.P,U2,4,V-*%
%TO.N,GND*%
X203084200Y-114427000D03*
%TO.P,U2,3,+*%
%TO.N,Net-(U2A-+)*%
X203084200Y-115697000D03*
%TO.P,U2,2,-*%
%TO.N,Net-(U2A--)*%
X203084200Y-116967000D03*
%TO.P,U2,1*%
X203084200Y-118237000D03*
%TD*%
%TO.P,U1,8,V+*%
%TO.N,VCC*%
X198074000Y-106172000D03*
%TO.P,U1,7*%
%TO.N,Net-(R3-Pad2)*%
X198074000Y-104902000D03*
%TO.P,U1,6,-*%
%TO.N,/v_sharktooth*%
X198074000Y-103632000D03*
%TO.P,U1,5,+*%
%TO.N,Net-(U1B-+)*%
X198074000Y-102362000D03*
%TO.P,U1,4,V-*%
%TO.N,GND*%
X203024000Y-102362000D03*
%TO.P,U1,3,+*%
%TO.N,/Vmid*%
X203024000Y-103632000D03*
%TO.P,U1,2,-*%
%TO.N,Net-(U1A--)*%
X203024000Y-104902000D03*
%TO.P,U1,1*%
%TO.N,/velocity*%
X203024000Y-106172000D03*
%TD*%
D16*
%TO.P,R14,2*%
%TO.N,Net-(U1A--)*%
X206806800Y-104124000D03*
%TO.P,R14,1*%
%TO.N,/Acceleration*%
X206806800Y-102124000D03*
%TD*%
D17*
%TO.P,R13,1*%
%TO.N,Net-(U2B--)*%
X200803000Y-110093000D03*
%TO.P,R13,2*%
%TO.N,Net-(U3B-+)*%
X200803000Y-108093000D03*
%TD*%
D18*
%TO.P,R12,2*%
%TO.N,/velocity*%
X204851000Y-108077000D03*
%TO.P,R12,1*%
%TO.N,Net-(U3B-+)*%
X202851000Y-108077000D03*
%TD*%
D17*
%TO.P,R11,2*%
%TO.N,Net-(U3A--)*%
X208889600Y-106000800D03*
%TO.P,R11,1*%
%TO.N,/velocity*%
X208889600Y-108000800D03*
%TD*%
%TO.P,R10,2*%
%TO.N,Net-(U3A--)*%
X208940400Y-109794800D03*
%TO.P,R10,1*%
%TO.N,Net-(U2A--)*%
X208940400Y-111794800D03*
%TD*%
D18*
%TO.P,R9,2*%
%TO.N,GND*%
X201609200Y-112522000D03*
%TO.P,R9,1*%
%TO.N,Net-(U2B-+)*%
X199609200Y-112522000D03*
%TD*%
D16*
%TO.P,R8,2*%
%TO.N,Net-(U2B-+)*%
X195783200Y-114411000D03*
%TO.P,R8,1*%
%TO.N,/Vmid*%
X195783200Y-112411000D03*
%TD*%
%TO.P,R7,2*%
%TO.N,/Vmid*%
X205536800Y-119872000D03*
%TO.P,R7,1*%
%TO.N,Net-(U2A-+)*%
X205536800Y-117872000D03*
%TD*%
D19*
%TO.P,R6,2*%
%TO.N,Net-(U2A-+)*%
X205467200Y-115824000D03*
%TO.P,R6,1*%
%TO.N,VCC*%
X207467200Y-115824000D03*
%TD*%
%TO.P,R5,2*%
%TO.N,/Vmid*%
X196358000Y-98552000D03*
%TO.P,R5,1*%
%TO.N,Net-(U1B-+)*%
X198358000Y-98552000D03*
%TD*%
%TO.P,R4,2*%
%TO.N,Net-(U1B-+)*%
X198390000Y-100584000D03*
%TO.P,R4,1*%
%TO.N,Net-(R3-Pad2)*%
X200390000Y-100584000D03*
%TD*%
D18*
%TO.P,R3,1*%
%TO.N,/v_sharktooth*%
X193580000Y-105029000D03*
%TO.P,R3,2*%
%TO.N,Net-(R3-Pad2)*%
X195580000Y-105029000D03*
%TD*%
D16*
%TO.P,R2,2*%
%TO.N,GND*%
X193929000Y-95742000D03*
%TO.P,R2,1*%
%TO.N,/Vmid*%
X193929000Y-93742000D03*
%TD*%
%TO.P,R1,2*%
%TO.N,/Vmid*%
X193929000Y-91805000D03*
%TO.P,R1,1*%
%TO.N,VCC*%
X193929000Y-89805000D03*
%TD*%
D20*
%TO.P,J2,5,Pin_5*%
%TO.N,/ST*%
X189636000Y-92994000D03*
%TO.P,J2,4,Pin_4*%
%TO.N,/Vmid*%
X189636000Y-90454000D03*
%TO.P,J2,3,Pin_3*%
%TO.N,/MotorB*%
X189636000Y-87914000D03*
%TO.P,J2,2,Pin_2*%
%TO.N,VCC*%
X189636000Y-85374000D03*
D21*
%TO.P,J2,1,Pin_1*%
%TO.N,/MotorA*%
X189636000Y-82834000D03*
%TD*%
D20*
%TO.P,J1,5,Pin_5*%
%TO.N,/Yout*%
X211099000Y-92994000D03*
%TO.P,J1,4,Pin_4*%
%TO.N,/Xout*%
X211099000Y-90454000D03*
%TO.P,J1,3,Pin_3*%
%TO.N,/Zout*%
X211099000Y-87914000D03*
%TO.P,J1,2,Pin_2*%
%TO.N,/Acceleration*%
X211099000Y-85374000D03*
D21*
%TO.P,J1,1,Pin_1*%
%TO.N,GND*%
X211099000Y-82834000D03*
%TD*%
D22*
%TO.P,C3,2*%
%TO.N,/Vmid*%
X194005200Y-99538700D03*
%TO.P,C3,1*%
%TO.N,GND*%
X194005200Y-97463700D03*
%TD*%
%TO.P,C2,2*%
%TO.N,/velocity*%
X206806800Y-108022300D03*
%TO.P,C2,1*%
%TO.N,Net-(U1A--)*%
X206806800Y-105947300D03*
%TD*%
D23*
%TO.P,C1,2*%
%TO.N,/v_sharktooth*%
X195617500Y-102870000D03*
%TO.P,C1,1*%
%TO.N,/Vmid*%
X193542500Y-102870000D03*
%TD*%
D24*
%TO.N,GND*%
X198780400Y-126695200D03*
X203657200Y-100279200D03*
X201117200Y-85699600D03*
X199593200Y-85699600D03*
X199593200Y-86766400D03*
X201117200Y-86766400D03*
X201117200Y-84582000D03*
X199593200Y-84582000D03*
X195478400Y-96621600D03*
X204774800Y-113487200D03*
X203200000Y-111099600D03*
%TO.N,VCC*%
X199948800Y-118110000D03*
X209550000Y-115570000D03*
%TO.N,/Acceleration*%
X207010000Y-99568000D03*
X205740000Y-100736400D03*
%TO.N,/Vmid*%
X194005200Y-101142800D03*
X204724000Y-103632000D03*
%TO.N,VCC*%
X192278000Y-93091000D03*
%TO.N,Net-(U3B-+)*%
X200279000Y-93345000D03*
X200279000Y-91440000D03*
%TO.N,VCC*%
X192278000Y-89408000D03*
%TO.N,Net-(U4A-InA)*%
X204724000Y-86360000D03*
X202184000Y-89535000D03*
%TO.N,Net-(U4A-InB)*%
X205486000Y-85090000D03*
X205486000Y-89535000D03*
%TD*%
D25*
%TO.N,Net-(R3-Pad2)*%
X195580000Y-105029000D02*
X197947000Y-105029000D01*
X197947000Y-105029000D02*
X198074000Y-104902000D01*
%TO.N,/v_sharktooth*%
X193580000Y-105029000D02*
X193580000Y-104907500D01*
X193580000Y-104907500D02*
X195617500Y-102870000D01*
%TO.N,/Vmid*%
X195783200Y-112411000D02*
X199349000Y-108845200D01*
X199349000Y-108845200D02*
X199349000Y-105775400D01*
X199349000Y-105775400D02*
X199136000Y-105562400D01*
X199136000Y-105562400D02*
X196646800Y-105562400D01*
X192680000Y-105862800D02*
X192680000Y-103732500D01*
X196646800Y-105562400D02*
X196180200Y-106029000D01*
X196180200Y-106029000D02*
X192846200Y-106029000D01*
X192846200Y-106029000D02*
X192680000Y-105862800D01*
X192680000Y-103732500D02*
X193542500Y-102870000D01*
D26*
%TO.N,VCC*%
X198074000Y-106172000D02*
X196651600Y-107594400D01*
X196651600Y-107594400D02*
X192278000Y-107594400D01*
X192278000Y-113635506D02*
X192278000Y-107594400D01*
X192278000Y-107594400D02*
X191109600Y-106426000D01*
X191109600Y-106426000D02*
X191109600Y-94259400D01*
X191109600Y-94259400D02*
X192278000Y-93091000D01*
D25*
%TO.N,/Zout*%
X211099000Y-87914000D02*
X212249000Y-89064000D01*
X212249000Y-116034372D02*
X203061372Y-125222000D01*
X203061372Y-125222000D02*
X201676000Y-125222000D01*
X212249000Y-89064000D02*
X212249000Y-116034372D01*
%TO.N,/Yout*%
X211099000Y-92994000D02*
X211099000Y-116618686D01*
X204108186Y-123609500D02*
X202638500Y-123609500D01*
X211099000Y-116618686D02*
X204108186Y-123609500D01*
%TO.N,/Xout*%
X211099000Y-90454000D02*
X209949000Y-91604000D01*
X210661200Y-106724400D02*
X210661200Y-116490800D01*
X209949000Y-91604000D02*
X209949000Y-106012200D01*
X209949000Y-106012200D02*
X210661200Y-106724400D01*
X210661200Y-116490800D02*
X204842500Y-122309500D01*
X204842500Y-122309500D02*
X202638500Y-122309500D01*
%TO.N,/ST*%
X189636000Y-92994000D02*
X189636000Y-114151910D01*
X189636000Y-114151910D02*
X198443590Y-122959500D01*
X198443590Y-122959500D02*
X198763500Y-122959500D01*
D26*
%TO.N,GND*%
X199726000Y-125222000D02*
X198614670Y-125222000D01*
X197926000Y-124533330D02*
X197926000Y-123985670D01*
X198614670Y-125222000D02*
X197926000Y-124533330D01*
X197926000Y-123985670D02*
X198302170Y-123609500D01*
X198302170Y-123609500D02*
X198763500Y-123609500D01*
X201026000Y-125222000D02*
X199726000Y-125222000D01*
%TO.N,VCC*%
X200376000Y-121347000D02*
X200376000Y-120478800D01*
X200376000Y-120478800D02*
X198134200Y-118237000D01*
X201026000Y-121347000D02*
X200376000Y-121347000D01*
D25*
%TO.N,/Vmid*%
X205536800Y-119872000D02*
X202559329Y-119872000D01*
X199475800Y-117567000D02*
X197018200Y-117567000D01*
X197018200Y-117567000D02*
X194513200Y-115062000D01*
X202559329Y-119872000D02*
X200197329Y-117510000D01*
X200197329Y-117510000D02*
X199532800Y-117510000D01*
X199532800Y-117510000D02*
X199475800Y-117567000D01*
X194513200Y-115062000D02*
X194513200Y-113427000D01*
X194513200Y-113427000D02*
X195529200Y-112411000D01*
D26*
%TO.N,VCC*%
X199948800Y-118110000D02*
X198261200Y-118110000D01*
X198261200Y-118110000D02*
X198134200Y-118237000D01*
X198134200Y-118237000D02*
X196879494Y-118237000D01*
X196879494Y-118237000D02*
X192278000Y-113635506D01*
D25*
%TO.N,Net-(U2A--)*%
X203084200Y-118237000D02*
X203619200Y-118772000D01*
X203619200Y-118772000D02*
X207196529Y-118772000D01*
X207196529Y-118772000D02*
X210261200Y-115707329D01*
X210261200Y-115707329D02*
X210261200Y-113115600D01*
X210261200Y-113115600D02*
X208940400Y-111794800D01*
D26*
%TO.N,VCC*%
X209296000Y-115824000D02*
X209550000Y-115570000D01*
X207467200Y-115824000D02*
X209296000Y-115824000D01*
D25*
%TO.N,Net-(U2A--)*%
X203084200Y-116967000D02*
X203084200Y-118237000D01*
%TO.N,Net-(U2A-+)*%
X205467200Y-117856000D02*
X205467200Y-115824000D01*
X203084200Y-115697000D02*
X205340200Y-115697000D01*
X205340200Y-115697000D02*
X205467200Y-115824000D01*
%TO.N,Net-(U2B--)*%
X198134200Y-115697000D02*
X199109199Y-115697000D01*
X200660000Y-114146199D02*
X200660000Y-110236000D01*
X199109199Y-115697000D02*
X200660000Y-114146199D01*
X200660000Y-110236000D02*
X200803000Y-110093000D01*
X198134200Y-115697000D02*
X198134200Y-116967000D01*
%TO.N,Net-(U2B-+)*%
X198134200Y-114427000D02*
X199609200Y-112952000D01*
X199609200Y-112952000D02*
X199609200Y-112522000D01*
X198134200Y-114427000D02*
X195545200Y-114427000D01*
%TO.N,Net-(U3A--)*%
X208889600Y-106000800D02*
X209889600Y-107000800D01*
X209889600Y-108845600D02*
X208940400Y-109794800D01*
X209889600Y-107000800D02*
X209889600Y-108845600D01*
%TO.N,/Acceleration*%
X206806800Y-102124000D02*
X206806800Y-101803200D01*
X206806800Y-101803200D02*
X205740000Y-100736400D01*
%TO.N,Net-(U3A--)*%
X208889600Y-106000800D02*
X208889600Y-102622056D01*
X202158600Y-93853000D02*
X203008000Y-93853000D01*
X208889600Y-102622056D02*
X201733000Y-95465456D01*
X201733000Y-95465456D02*
X201733000Y-94278600D01*
X201733000Y-94278600D02*
X202158600Y-93853000D01*
%TO.N,Net-(U1A--)*%
X206806800Y-104124000D02*
X206539500Y-104124000D01*
X206539500Y-104124000D02*
X205761500Y-104902000D01*
X203024000Y-104902000D02*
X205761500Y-104902000D01*
X205761500Y-104902000D02*
X206806800Y-105947300D01*
%TO.N,/velocity*%
X204851000Y-108077000D02*
X208813400Y-108077000D01*
X208813400Y-108077000D02*
X208889600Y-108000800D01*
%TO.N,/Vmid*%
X194005200Y-102407300D02*
X193542500Y-102870000D01*
X194005200Y-101142800D02*
X194005200Y-99538700D01*
X194005200Y-101142800D02*
X194005200Y-102407300D01*
X196358000Y-98552000D02*
X194991900Y-98552000D01*
X194991900Y-98552000D02*
X194005200Y-99538700D01*
X196358000Y-98552000D02*
X196646800Y-98263200D01*
X196646800Y-98263200D02*
X196646800Y-95859600D01*
X196646800Y-95859600D02*
X194529200Y-93742000D01*
X194529200Y-93742000D02*
X193929000Y-93742000D01*
X203024000Y-103632000D02*
X204724000Y-103632000D01*
%TO.N,Net-(U3B-+)*%
X200279000Y-91440000D02*
X199898000Y-91440000D01*
X199898000Y-91440000D02*
X199771000Y-91313000D01*
X199771000Y-91313000D02*
X198058000Y-91313000D01*
%TO.N,Net-(R3-Pad2)*%
X198074000Y-104902000D02*
X198419552Y-104902000D01*
X198419552Y-104902000D02*
X200390000Y-102931552D01*
X200390000Y-102931552D02*
X200390000Y-100584000D01*
%TO.N,Net-(U1B-+)*%
X198390000Y-100584000D02*
X198390000Y-102046000D01*
X198390000Y-102046000D02*
X198074000Y-102362000D01*
X198358000Y-98552000D02*
X198358000Y-100552000D01*
X198358000Y-100552000D02*
X198390000Y-100584000D01*
%TO.N,/v_sharktooth*%
X198074000Y-103632000D02*
X199048999Y-103632000D01*
X199032999Y-92583000D02*
X198058000Y-92583000D01*
X199048999Y-103632000D02*
X199390000Y-103290999D01*
X199390000Y-103290999D02*
X199390000Y-92940001D01*
X199390000Y-92940001D02*
X199032999Y-92583000D01*
%TO.N,Net-(U3B-+)*%
X202851000Y-108077000D02*
X200819000Y-108077000D01*
X200819000Y-108077000D02*
X200803000Y-108093000D01*
%TO.N,/velocity*%
X203024000Y-106172000D02*
X204851000Y-107999000D01*
X204851000Y-107999000D02*
X204851000Y-108077000D01*
%TO.N,/v_sharktooth*%
X198074000Y-103632000D02*
X196379500Y-103632000D01*
X196379500Y-103632000D02*
X195617500Y-102870000D01*
%TO.N,/Vmid*%
X193929000Y-91805000D02*
X190987000Y-91805000D01*
X190987000Y-91805000D02*
X189636000Y-90454000D01*
X193929000Y-93742000D02*
X193929000Y-91805000D01*
D26*
%TO.N,VCC*%
X193929000Y-89805000D02*
X196283000Y-92159000D01*
X196283000Y-92159000D02*
X196283000Y-94429000D01*
X196283000Y-94429000D02*
X196977000Y-95123000D01*
X196977000Y-95123000D02*
X198058000Y-95123000D01*
X193929000Y-89805000D02*
X192675000Y-89805000D01*
X192675000Y-89805000D02*
X192278000Y-89408000D01*
D25*
%TO.N,/v_sharktooth*%
X198058000Y-92583000D02*
X203008000Y-92583000D01*
%TO.N,Net-(U4A-InA)*%
X198058000Y-93853000D02*
X197712448Y-93853000D01*
X196783000Y-92923552D02*
X196783000Y-90872000D01*
X197712448Y-93853000D02*
X196783000Y-92923552D01*
X196783000Y-90872000D02*
X198120000Y-89535000D01*
X198120000Y-89535000D02*
X202184000Y-89535000D01*
X204724000Y-86360000D02*
X203147000Y-86360000D01*
X203147000Y-86360000D02*
X203117000Y-86390000D01*
%TO.N,Net-(U4A-InB)*%
X204978000Y-90043000D02*
X204978000Y-94127999D01*
X204978000Y-94127999D02*
X203982999Y-95123000D01*
X205486000Y-89535000D02*
X204978000Y-90043000D01*
X203982999Y-95123000D02*
X203008000Y-95123000D01*
X205486000Y-85090000D02*
X205456000Y-85120000D01*
X205456000Y-85120000D02*
X203117000Y-85120000D01*
%TO.N,Net-(U3B-+)*%
X200803000Y-108093000D02*
X201290000Y-107606000D01*
X201290000Y-107606000D02*
X201290000Y-94356000D01*
X201290000Y-94356000D02*
X200279000Y-93345000D01*
%TO.N,/Acceleration*%
X207010000Y-99568000D02*
X207111600Y-99466400D01*
X207111600Y-99466400D02*
X207111600Y-90275054D01*
X207111600Y-90275054D02*
X211099000Y-86287654D01*
X211099000Y-86287654D02*
X211099000Y-85374000D01*
%TD*%
%TA.AperFunction,Conductor*%
%TO.N,/MotorA*%
G36*
X198444039Y-81934685D02*
G01*
X198489794Y-81987489D01*
X198501000Y-82039000D01*
X198501000Y-83950000D01*
X198481315Y-84017039D01*
X198428511Y-84062794D01*
X198377000Y-84074000D01*
X197106815Y-84074000D01*
X197101184Y-84073872D01*
X188840369Y-83698380D01*
X188774293Y-83675672D01*
X188730983Y-83620845D01*
X188722000Y-83574508D01*
X188722000Y-82039000D01*
X188741685Y-81971961D01*
X188794489Y-81926206D01*
X188846000Y-81915000D01*
X198377000Y-81915000D01*
X198444039Y-81934685D01*
G37*
%TD.AperFunction*%
%TD*%
%TA.AperFunction,Conductor*%
%TO.N,VCC*%
G36*
X190167790Y-84264742D02*
G01*
X190168409Y-84264767D01*
X197078230Y-84578851D01*
X197088682Y-84579206D01*
X197089665Y-84579240D01*
X197089669Y-84579240D01*
X197089696Y-84579241D01*
X197095327Y-84579369D01*
X197106815Y-84579500D01*
X197106819Y-84579500D01*
X198376991Y-84579500D01*
X198377000Y-84579500D01*
X198415742Y-84575334D01*
X198433631Y-84574711D01*
X198508647Y-84577524D01*
X198574902Y-84599707D01*
X198618646Y-84654189D01*
X198628000Y-84701437D01*
X198628000Y-86489159D01*
X198608315Y-86556198D01*
X198555511Y-86601953D01*
X198500862Y-86613119D01*
X198156496Y-86604401D01*
X198150252Y-86604282D01*
X198146948Y-86604239D01*
X198140670Y-86604200D01*
X198140592Y-86604200D01*
X197043811Y-86604200D01*
X197009220Y-86599278D01*
X196997257Y-86595802D01*
X196933803Y-86581719D01*
X196902363Y-86576836D01*
X196902358Y-86576835D01*
X196874346Y-86574316D01*
X196837577Y-86571010D01*
X196837566Y-86571009D01*
X196837558Y-86571009D01*
X188734937Y-86365880D01*
X188734927Y-86365880D01*
X188620931Y-86375951D01*
X188616819Y-86376792D01*
X188547196Y-86370924D01*
X188491798Y-86328346D01*
X188468214Y-86262577D01*
X188468000Y-86255301D01*
X188468000Y-84329737D01*
X188487685Y-84262698D01*
X188540489Y-84216943D01*
X188596645Y-84205824D01*
X190167790Y-84264742D01*
G37*
%TD.AperFunction*%
%TD*%
%TA.AperFunction,Conductor*%
%TO.N,/MotorB*%
G36*
X196824784Y-87076348D02*
G01*
X196856229Y-87081231D01*
X196944231Y-87106798D01*
X196981106Y-87109700D01*
X196981114Y-87109700D01*
X198140592Y-87109700D01*
X198143730Y-87109740D01*
X198507138Y-87118940D01*
X198573658Y-87140315D01*
X198618062Y-87194260D01*
X198628000Y-87242900D01*
X198628000Y-88024501D01*
X198608315Y-88091540D01*
X198555511Y-88137295D01*
X198514944Y-88148017D01*
X192625613Y-88669856D01*
X192573715Y-88663382D01*
X192457257Y-88622632D01*
X192457249Y-88622630D01*
X192278004Y-88602435D01*
X192277996Y-88602435D01*
X192098750Y-88622630D01*
X192098737Y-88622633D01*
X191928482Y-88682208D01*
X191862201Y-88723855D01*
X191807174Y-88742376D01*
X188729944Y-89015042D01*
X188661429Y-89001351D01*
X188611192Y-88952792D01*
X188595000Y-88891526D01*
X188595000Y-86995178D01*
X188614685Y-86928139D01*
X188667489Y-86882384D01*
X188722135Y-86871218D01*
X196824784Y-87076348D01*
G37*
%TD.AperFunction*%
%TD*%
%TA.AperFunction,Conductor*%
%TO.N,GND*%
G36*
X188538703Y-93847791D02*
G01*
X188568475Y-93886183D01*
X189012455Y-94776814D01*
X189022475Y-94796913D01*
X189035500Y-94852234D01*
X189035500Y-114065240D01*
X189035499Y-114065258D01*
X189035499Y-114230964D01*
X189035498Y-114230964D01*
X189076423Y-114383694D01*
X189076424Y-114383697D01*
X189081068Y-114391740D01*
X189081069Y-114391742D01*
X189155477Y-114520622D01*
X189155481Y-114520627D01*
X189274349Y-114639495D01*
X189274355Y-114639500D01*
X197837523Y-123202668D01*
X197864403Y-123242896D01*
X197898302Y-123324733D01*
X197990549Y-123444951D01*
X198022512Y-123469477D01*
X198076787Y-123511125D01*
X198117990Y-123567553D01*
X198122144Y-123637299D01*
X198087931Y-123698219D01*
X198076787Y-123707875D01*
X197990551Y-123774047D01*
X197898300Y-123894270D01*
X197840313Y-124034263D01*
X197840313Y-124034264D01*
X197825500Y-124146772D01*
X197825500Y-124372227D01*
X197838461Y-124470671D01*
X197840313Y-124484736D01*
X197898302Y-124624733D01*
X197990549Y-124744951D01*
X198110767Y-124837198D01*
X198250764Y-124895187D01*
X198363280Y-124910000D01*
X198363287Y-124910000D01*
X199163719Y-124910000D01*
X199163720Y-124910000D01*
X199235061Y-124900607D01*
X199294574Y-124907363D01*
X199418517Y-124953591D01*
X199478127Y-124960000D01*
X200901500Y-124959999D01*
X200968539Y-124979684D01*
X201014294Y-125032487D01*
X201025500Y-125083999D01*
X201025500Y-125622227D01*
X201040313Y-125734735D01*
X201040313Y-125734736D01*
X201079694Y-125829811D01*
X201098302Y-125874733D01*
X201190549Y-125994951D01*
X201310767Y-126087198D01*
X201450764Y-126145187D01*
X201563280Y-126160000D01*
X201563287Y-126160000D01*
X201788713Y-126160000D01*
X201788720Y-126160000D01*
X201901236Y-126145187D01*
X202041233Y-126087198D01*
X202161451Y-125994951D01*
X202253698Y-125874733D01*
X202256553Y-125871013D01*
X202312981Y-125829811D01*
X202354928Y-125822500D01*
X202974703Y-125822500D01*
X202974719Y-125822501D01*
X202982315Y-125822501D01*
X203140426Y-125822501D01*
X203140429Y-125822501D01*
X203293157Y-125781577D01*
X203293159Y-125781575D01*
X203293161Y-125781575D01*
X203293162Y-125781574D01*
X203344710Y-125751813D01*
X203344711Y-125751812D01*
X203430088Y-125702520D01*
X203541892Y-125590716D01*
X203541892Y-125590714D01*
X203552096Y-125580511D01*
X203552099Y-125580506D01*
X212266821Y-116865785D01*
X212328142Y-116832302D01*
X212397834Y-116837286D01*
X212453767Y-116879158D01*
X212478184Y-116944622D01*
X212478500Y-116953468D01*
X212478500Y-127937600D01*
X212458815Y-128004639D01*
X212406011Y-128050394D01*
X212354500Y-128061600D01*
X188457500Y-128061600D01*
X188390461Y-128041915D01*
X188344706Y-127989111D01*
X188333500Y-127937600D01*
X188333500Y-93941504D01*
X188353185Y-93874465D01*
X188405989Y-93828710D01*
X188475147Y-93818766D01*
X188538703Y-93847791D01*
G37*
%TD.AperFunction*%
%TA.AperFunction,Conductor*%
G36*
X205931665Y-108995056D02*
G01*
X205938333Y-108998889D01*
X206012459Y-109044610D01*
X206012460Y-109044610D01*
X206012466Y-109044614D01*
X206179003Y-109099799D01*
X206281791Y-109110300D01*
X207331808Y-109110299D01*
X207331816Y-109110298D01*
X207331819Y-109110298D01*
X207391974Y-109104153D01*
X207434597Y-109099799D01*
X207601134Y-109044614D01*
X207601812Y-109044195D01*
X207602338Y-109044051D01*
X207607682Y-109041560D01*
X207608107Y-109042472D01*
X207669203Y-109025751D01*
X207735868Y-109046669D01*
X207780640Y-109100308D01*
X207789306Y-109169638D01*
X207784621Y-109188734D01*
X207750401Y-109292003D01*
X207750400Y-109292004D01*
X207739900Y-109394783D01*
X207739900Y-110194801D01*
X207739901Y-110194819D01*
X207750400Y-110297596D01*
X207750401Y-110297599D01*
X207805585Y-110464131D01*
X207805587Y-110464136D01*
X207823396Y-110493009D01*
X207886795Y-110595796D01*
X207897689Y-110613457D01*
X207991351Y-110707119D01*
X208024836Y-110768442D01*
X208019852Y-110838134D01*
X207991351Y-110882481D01*
X207897689Y-110976142D01*
X207805587Y-111125463D01*
X207805586Y-111125466D01*
X207750401Y-111292003D01*
X207750401Y-111292004D01*
X207750400Y-111292004D01*
X207739900Y-111394783D01*
X207739900Y-112194801D01*
X207739901Y-112194819D01*
X207750400Y-112297596D01*
X207750401Y-112297599D01*
X207805585Y-112464131D01*
X207805586Y-112464134D01*
X207897688Y-112613456D01*
X208021744Y-112737512D01*
X208171066Y-112829614D01*
X208337603Y-112884799D01*
X208440391Y-112895300D01*
X208559371Y-112895299D01*
X208604934Y-112903973D01*
X208712517Y-112946476D01*
X209429296Y-113229656D01*
X209565264Y-113283373D01*
X209607383Y-113311018D01*
X209624381Y-113328016D01*
X209657866Y-113389339D01*
X209660700Y-113415697D01*
X209660700Y-114641148D01*
X209641015Y-114708187D01*
X209588211Y-114753942D01*
X209550584Y-114764368D01*
X209370749Y-114784630D01*
X209370745Y-114784631D01*
X209200476Y-114844211D01*
X209047739Y-114940183D01*
X209015010Y-114972911D01*
X208998623Y-114986683D01*
X208983104Y-114997587D01*
X208983100Y-114997590D01*
X208905695Y-115070470D01*
X208843391Y-115102094D01*
X208773881Y-115095013D01*
X208756090Y-115086030D01*
X208343961Y-114834475D01*
X208320883Y-114816315D01*
X208285857Y-114781289D01*
X208285856Y-114781288D01*
X208136534Y-114689186D01*
X207969997Y-114634001D01*
X207969995Y-114634000D01*
X207867210Y-114623500D01*
X207067198Y-114623500D01*
X207067180Y-114623501D01*
X206964403Y-114634000D01*
X206964400Y-114634001D01*
X206797868Y-114689185D01*
X206797863Y-114689187D01*
X206648542Y-114781289D01*
X206554881Y-114874951D01*
X206493558Y-114908436D01*
X206423866Y-114903452D01*
X206379519Y-114874951D01*
X206285857Y-114781289D01*
X206285856Y-114781288D01*
X206136534Y-114689186D01*
X205969997Y-114634001D01*
X205969995Y-114634000D01*
X205867210Y-114623500D01*
X205067198Y-114623500D01*
X205067180Y-114623501D01*
X204964403Y-114634000D01*
X204964400Y-114634001D01*
X204839500Y-114675389D01*
X204797866Y-114689186D01*
X204767060Y-114708187D01*
X204720130Y-114737133D01*
X204717458Y-114738628D01*
X204717459Y-114738630D01*
X204713677Y-114740891D01*
X204713675Y-114740893D01*
X204674431Y-114764368D01*
X204339217Y-114964883D01*
X204271580Y-114982404D01*
X204221873Y-114970242D01*
X204189723Y-114954799D01*
X204189718Y-114954797D01*
X204189710Y-114954793D01*
X204185471Y-114953002D01*
X204183422Y-114952136D01*
X204170844Y-114945795D01*
X204169599Y-114945257D01*
X204169598Y-114945256D01*
X204169595Y-114945255D01*
X204168697Y-114944994D01*
X204155037Y-114940143D01*
X204144998Y-114935902D01*
X204144991Y-114935899D01*
X204144988Y-114935898D01*
X204144987Y-114935898D01*
X204133207Y-114933400D01*
X204121339Y-114930884D01*
X204112470Y-114928658D01*
X204011775Y-114899403D01*
X204011763Y-114899401D01*
X203974901Y-114896500D01*
X203974894Y-114896500D01*
X202193506Y-114896500D01*
X202193498Y-114896500D01*
X202156632Y-114899401D01*
X202156626Y-114899402D01*
X201998806Y-114945254D01*
X201998803Y-114945255D01*
X201857337Y-115028917D01*
X201857329Y-115028923D01*
X201741123Y-115145129D01*
X201741117Y-115145137D01*
X201657455Y-115286603D01*
X201657454Y-115286606D01*
X201611602Y-115444426D01*
X201611601Y-115444432D01*
X201608700Y-115481298D01*
X201608700Y-115912701D01*
X201611601Y-115949567D01*
X201611602Y-115949573D01*
X201657454Y-116107393D01*
X201657455Y-116107396D01*
X201741117Y-116248862D01*
X201745902Y-116255031D01*
X201743456Y-116256927D01*
X201770057Y-116305642D01*
X201765073Y-116375334D01*
X201744269Y-116407703D01*
X201745902Y-116408969D01*
X201741117Y-116415137D01*
X201657455Y-116556603D01*
X201657454Y-116556606D01*
X201611602Y-116714426D01*
X201611601Y-116714432D01*
X201608700Y-116751298D01*
X201608700Y-117182701D01*
X201611601Y-117219567D01*
X201611602Y-117219573D01*
X201657454Y-117377393D01*
X201657455Y-117377396D01*
X201741117Y-117518862D01*
X201745902Y-117525031D01*
X201743456Y-117526927D01*
X201770057Y-117575642D01*
X201765073Y-117645334D01*
X201744269Y-117677703D01*
X201745902Y-117678969D01*
X201741117Y-117685137D01*
X201657455Y-117826602D01*
X201649700Y-117853296D01*
X201612092Y-117912181D01*
X201548618Y-117941385D01*
X201479432Y-117931638D01*
X201442943Y-117906379D01*
X200684919Y-117148355D01*
X200684917Y-117148352D01*
X200566046Y-117029481D01*
X200566045Y-117029480D01*
X200465308Y-116971320D01*
X200465307Y-116971319D01*
X200429112Y-116950422D01*
X200350238Y-116929288D01*
X200276386Y-116909499D01*
X200118272Y-116909499D01*
X200110676Y-116909499D01*
X200110660Y-116909500D01*
X199733700Y-116909500D01*
X199666661Y-116889815D01*
X199620906Y-116837011D01*
X199609700Y-116785500D01*
X199609700Y-116751313D01*
X199609699Y-116751298D01*
X199608832Y-116740286D01*
X199606798Y-116714431D01*
X199560944Y-116556602D01*
X199477281Y-116415135D01*
X199477278Y-116415132D01*
X199472498Y-116408969D01*
X199474950Y-116407066D01*
X199448355Y-116358421D01*
X199453304Y-116288726D01*
X199474140Y-116256304D01*
X199472498Y-116255031D01*
X199477276Y-116248869D01*
X199477281Y-116248865D01*
X199535437Y-116150527D01*
X199564916Y-116100682D01*
X199565550Y-116101057D01*
X199588437Y-116068067D01*
X199733888Y-115928154D01*
X199737530Y-115924614D01*
X199737692Y-115924455D01*
X199777202Y-115880882D01*
X199777209Y-115880870D01*
X199779158Y-115878231D01*
X199791236Y-115864196D01*
X201018506Y-114636927D01*
X201018511Y-114636923D01*
X201028714Y-114626719D01*
X201028716Y-114626719D01*
X201140520Y-114514915D01*
X201211636Y-114391738D01*
X201219577Y-114377984D01*
X201260501Y-114225256D01*
X201260501Y-114067141D01*
X201260501Y-114059546D01*
X201260500Y-114059528D01*
X201260500Y-111547080D01*
X201280185Y-111480041D01*
X201293993Y-111462319D01*
X201357242Y-111394783D01*
X201643714Y-111088889D01*
X201669122Y-111068114D01*
X201721656Y-111035712D01*
X201845712Y-110911656D01*
X201937814Y-110762334D01*
X201992999Y-110595797D01*
X202003500Y-110493009D01*
X202003499Y-109692992D01*
X201999374Y-109652615D01*
X201992999Y-109590203D01*
X201992998Y-109590200D01*
X201937814Y-109423666D01*
X201851036Y-109282975D01*
X201832597Y-109215586D01*
X201853520Y-109148923D01*
X201907162Y-109104153D01*
X201976492Y-109095492D01*
X202025478Y-109117084D01*
X202026197Y-109115920D01*
X202032342Y-109119710D01*
X202032344Y-109119712D01*
X202181666Y-109211814D01*
X202348203Y-109266999D01*
X202450991Y-109277500D01*
X203251008Y-109277499D01*
X203251016Y-109277498D01*
X203251019Y-109277498D01*
X203307302Y-109271748D01*
X203353797Y-109266999D01*
X203520334Y-109211814D01*
X203669656Y-109119712D01*
X203763319Y-109026049D01*
X203824642Y-108992564D01*
X203894334Y-108997548D01*
X203938681Y-109026049D01*
X204032344Y-109119712D01*
X204181666Y-109211814D01*
X204348203Y-109266999D01*
X204450991Y-109277500D01*
X205251008Y-109277499D01*
X205251016Y-109277498D01*
X205251019Y-109277498D01*
X205307302Y-109271748D01*
X205353797Y-109266999D01*
X205520334Y-109211814D01*
X205669656Y-109119712D01*
X205730985Y-109058381D01*
X205743436Y-109047492D01*
X205798023Y-109005844D01*
X205863259Y-108980830D01*
X205931665Y-108995056D01*
G37*
%TD.AperFunction*%
%TA.AperFunction,Conductor*%
G36*
X192666344Y-93887556D02*
G01*
X192714633Y-93938053D01*
X192728500Y-93995032D01*
X192728500Y-94142000D01*
X192728501Y-94142019D01*
X192739000Y-94244796D01*
X192739001Y-94244799D01*
X192755071Y-94293294D01*
X192794186Y-94411334D01*
X192886288Y-94560656D01*
X193010344Y-94684712D01*
X193159666Y-94776814D01*
X193326203Y-94831999D01*
X193428991Y-94842500D01*
X194344428Y-94842499D01*
X194361010Y-94843612D01*
X194389288Y-94847429D01*
X194730002Y-94844478D01*
X194797209Y-94863581D01*
X194818757Y-94880792D01*
X196009981Y-96072016D01*
X196043466Y-96133339D01*
X196046300Y-96159697D01*
X196046300Y-96980018D01*
X196026615Y-97047057D01*
X196008452Y-97069203D01*
X195586416Y-97476886D01*
X195565363Y-97493238D01*
X195539344Y-97509287D01*
X195478023Y-97570607D01*
X195465559Y-97581506D01*
X195013941Y-97926081D01*
X194948703Y-97951097D01*
X194938725Y-97951499D01*
X194912843Y-97951499D01*
X194760116Y-97992423D01*
X194708766Y-98022069D01*
X194693224Y-98029649D01*
X193673552Y-98441669D01*
X193627097Y-98450700D01*
X193480199Y-98450700D01*
X193480180Y-98450701D01*
X193377403Y-98461200D01*
X193377400Y-98461201D01*
X193210868Y-98516385D01*
X193210863Y-98516387D01*
X193061542Y-98608489D01*
X192937489Y-98732542D01*
X192845387Y-98881863D01*
X192845385Y-98881868D01*
X192817549Y-98965870D01*
X192790201Y-99048403D01*
X192790201Y-99048404D01*
X192790200Y-99048404D01*
X192779700Y-99151183D01*
X192779700Y-99926201D01*
X192779701Y-99926219D01*
X192790200Y-100028996D01*
X192790201Y-100028999D01*
X192845385Y-100195531D01*
X192845387Y-100195536D01*
X192850091Y-100203162D01*
X192937488Y-100344856D01*
X193061543Y-100468911D01*
X193061544Y-100468912D01*
X193067205Y-100473388D01*
X193066197Y-100474662D01*
X193087892Y-100493998D01*
X193248052Y-100696957D01*
X193274129Y-100761778D01*
X193267189Y-100816300D01*
X193257032Y-100844116D01*
X193244128Y-100884682D01*
X193244125Y-100884694D01*
X193243954Y-100886081D01*
X193237935Y-100911806D01*
X193219831Y-100963545D01*
X193219831Y-100963546D01*
X193199635Y-101142796D01*
X193199635Y-101142803D01*
X193219831Y-101322052D01*
X193234641Y-101364378D01*
X193238202Y-101434157D01*
X193203473Y-101494784D01*
X193192809Y-101503920D01*
X192967163Y-101676059D01*
X192930959Y-101695176D01*
X192885668Y-101710184D01*
X192736342Y-101802289D01*
X192612289Y-101926342D01*
X192520187Y-102075663D01*
X192520186Y-102075666D01*
X192465001Y-102242203D01*
X192465001Y-102242204D01*
X192465000Y-102242204D01*
X192454500Y-102344983D01*
X192454500Y-102547247D01*
X192449257Y-102582923D01*
X192230192Y-103312141D01*
X192203578Y-103356682D01*
X192204428Y-103357334D01*
X192199483Y-103363778D01*
X192149361Y-103450594D01*
X192149359Y-103450596D01*
X192120425Y-103500709D01*
X192120424Y-103500710D01*
X192120423Y-103500715D01*
X192079499Y-103653443D01*
X192079499Y-103653445D01*
X192079499Y-103821546D01*
X192079500Y-103821559D01*
X192079500Y-105776130D01*
X192079499Y-105776148D01*
X192079499Y-105941854D01*
X192079498Y-105941854D01*
X192088146Y-105974128D01*
X192120423Y-106094585D01*
X192120424Y-106094586D01*
X192129755Y-106110748D01*
X192146228Y-106178648D01*
X192123376Y-106244675D01*
X192068455Y-106287866D01*
X191998902Y-106294508D01*
X191936799Y-106262493D01*
X191934687Y-106260430D01*
X191846419Y-106172162D01*
X191812934Y-106110839D01*
X191810100Y-106084481D01*
X191810100Y-94600918D01*
X191829785Y-94533879D01*
X191846415Y-94513241D01*
X192291019Y-94068636D01*
X192306613Y-94055425D01*
X192532428Y-93894129D01*
X192598420Y-93871182D01*
X192666344Y-93887556D01*
G37*
%TD.AperFunction*%
%TA.AperFunction,Conductor*%
G36*
X202095703Y-96677840D02*
G01*
X202102181Y-96683872D01*
X205304136Y-99885828D01*
X205337621Y-99947151D01*
X205332637Y-100016843D01*
X205290765Y-100072776D01*
X205282429Y-100078502D01*
X205237736Y-100106585D01*
X205110184Y-100234137D01*
X205014211Y-100386876D01*
X204954631Y-100557145D01*
X204954630Y-100557150D01*
X204934435Y-100736396D01*
X204934435Y-100736403D01*
X204954630Y-100915649D01*
X204954631Y-100915654D01*
X205014211Y-101085923D01*
X205077595Y-101186797D01*
X205110184Y-101238662D01*
X205237738Y-101366216D01*
X205390478Y-101462189D01*
X205396864Y-101464423D01*
X205418085Y-101474868D01*
X205418297Y-101474487D01*
X205422160Y-101476630D01*
X205422167Y-101476635D01*
X205487161Y-101506860D01*
X205539647Y-101552977D01*
X205558528Y-101610068D01*
X205601844Y-102190507D01*
X205601847Y-102190535D01*
X205605354Y-102218761D01*
X205606300Y-102234050D01*
X205606300Y-102524000D01*
X205606301Y-102524019D01*
X205616800Y-102626796D01*
X205616801Y-102626799D01*
X205671985Y-102793331D01*
X205671987Y-102793336D01*
X205692403Y-102826435D01*
X205753282Y-102925137D01*
X205764089Y-102942657D01*
X205857751Y-103036319D01*
X205891236Y-103097642D01*
X205886252Y-103167334D01*
X205857751Y-103211681D01*
X205764088Y-103305343D01*
X205764085Y-103305347D01*
X205705282Y-103400682D01*
X205653334Y-103447407D01*
X205584372Y-103458628D01*
X205520290Y-103430785D01*
X205482702Y-103376539D01*
X205460168Y-103312141D01*
X205449789Y-103282478D01*
X205353816Y-103129738D01*
X205226262Y-103002184D01*
X205139663Y-102947770D01*
X205073523Y-102906211D01*
X204903254Y-102846631D01*
X204903249Y-102846630D01*
X204724004Y-102826435D01*
X204723996Y-102826435D01*
X204544746Y-102846631D01*
X204544745Y-102846631D01*
X204465764Y-102874267D01*
X204450339Y-102878569D01*
X204425309Y-102883834D01*
X204299311Y-102929841D01*
X204229587Y-102934344D01*
X204203091Y-102925137D01*
X204129518Y-102889797D01*
X204129476Y-102889777D01*
X204123226Y-102887137D01*
X204110657Y-102880801D01*
X204109399Y-102880257D01*
X204109398Y-102880256D01*
X204109395Y-102880255D01*
X204108497Y-102879994D01*
X204094837Y-102875143D01*
X204084798Y-102870902D01*
X204084791Y-102870899D01*
X204084788Y-102870898D01*
X204084787Y-102870898D01*
X204073007Y-102868400D01*
X204061139Y-102865884D01*
X204052270Y-102863658D01*
X203951575Y-102834403D01*
X203951563Y-102834401D01*
X203914701Y-102831500D01*
X203914694Y-102831500D01*
X202133306Y-102831500D01*
X202133298Y-102831500D01*
X202096432Y-102834401D01*
X202096426Y-102834402D01*
X202049095Y-102848154D01*
X201979226Y-102847955D01*
X201920556Y-102810013D01*
X201891712Y-102746375D01*
X201890500Y-102729078D01*
X201890500Y-96771553D01*
X201910185Y-96704514D01*
X201962989Y-96658759D01*
X202032147Y-96648815D01*
X202095703Y-96677840D01*
G37*
%TD.AperFunction*%
%TA.AperFunction,Conductor*%
G36*
X212421539Y-81482685D02*
G01*
X212467294Y-81535489D01*
X212478500Y-81587000D01*
X212478500Y-84596327D01*
X212458815Y-84663366D01*
X212406011Y-84709121D01*
X212336853Y-84719065D01*
X212273297Y-84690040D01*
X212252925Y-84667450D01*
X212137494Y-84502597D01*
X211970402Y-84335506D01*
X211970395Y-84335501D01*
X211776834Y-84199967D01*
X211776830Y-84199965D01*
X211776828Y-84199964D01*
X211562663Y-84100097D01*
X211562659Y-84100096D01*
X211562655Y-84100094D01*
X211334413Y-84038938D01*
X211334403Y-84038936D01*
X211099001Y-84018341D01*
X211098999Y-84018341D01*
X210863596Y-84038936D01*
X210863586Y-84038938D01*
X210635344Y-84100094D01*
X210635335Y-84100098D01*
X210421171Y-84199964D01*
X210421169Y-84199965D01*
X210227597Y-84335505D01*
X210060505Y-84502597D01*
X209924965Y-84696169D01*
X209924964Y-84696171D01*
X209825098Y-84910335D01*
X209825094Y-84910344D01*
X209763938Y-85138586D01*
X209763936Y-85138596D01*
X209743341Y-85373999D01*
X209743341Y-85374000D01*
X209763937Y-85609408D01*
X209788819Y-85702273D01*
X209791494Y-85714823D01*
X209846237Y-86057850D01*
X209846259Y-86057986D01*
X209847047Y-86062922D01*
X209847047Y-86062923D01*
X209865849Y-86180737D01*
X209923427Y-86541538D01*
X209914553Y-86610842D01*
X209888657Y-86648760D01*
X206742886Y-89794532D01*
X206631081Y-89906336D01*
X206631079Y-89906339D01*
X206609791Y-89943212D01*
X206588502Y-89980086D01*
X206552023Y-90043269D01*
X206511099Y-90195997D01*
X206511099Y-90195999D01*
X206511099Y-90364100D01*
X206511100Y-90364113D01*
X206511100Y-98805628D01*
X206493452Y-98869387D01*
X206385008Y-99050274D01*
X206333654Y-99097651D01*
X206264839Y-99109743D01*
X206200410Y-99082711D01*
X206190975Y-99074196D01*
X203251960Y-96135181D01*
X203218475Y-96073858D01*
X203223459Y-96004166D01*
X203265331Y-95948233D01*
X203330795Y-95923816D01*
X203339641Y-95923500D01*
X203898686Y-95923500D01*
X203898694Y-95923500D01*
X203935569Y-95920598D01*
X203935571Y-95920597D01*
X203935573Y-95920597D01*
X203977191Y-95908505D01*
X204093398Y-95874744D01*
X204234865Y-95791081D01*
X204351081Y-95674865D01*
X204434744Y-95533398D01*
X204434743Y-95533398D01*
X204438716Y-95526682D01*
X204439350Y-95527057D01*
X204462237Y-95494067D01*
X204607688Y-95354154D01*
X204611330Y-95350614D01*
X204611492Y-95350455D01*
X204651002Y-95306882D01*
X204651009Y-95306870D01*
X204652958Y-95304231D01*
X204665036Y-95290196D01*
X205336506Y-94618727D01*
X205336511Y-94618723D01*
X205346714Y-94608519D01*
X205346716Y-94608519D01*
X205458520Y-94496715D01*
X205517303Y-94394899D01*
X205537577Y-94359784D01*
X205578501Y-94207056D01*
X205578501Y-94048942D01*
X205578501Y-94041347D01*
X205578500Y-94041329D01*
X205578500Y-90459111D01*
X205598185Y-90392072D01*
X205650208Y-90346677D01*
X205803830Y-90275236D01*
X205816115Y-90268879D01*
X205832143Y-90261971D01*
X205835522Y-90260789D01*
X205988262Y-90164816D01*
X206115816Y-90037262D01*
X206211789Y-89884522D01*
X206271368Y-89714255D01*
X206285632Y-89587660D01*
X206291565Y-89535003D01*
X206291565Y-89534996D01*
X206271369Y-89355750D01*
X206271368Y-89355745D01*
X206211788Y-89185476D01*
X206147036Y-89082425D01*
X206115816Y-89032738D01*
X205988262Y-88905184D01*
X205932049Y-88869863D01*
X205835523Y-88809211D01*
X205665254Y-88749631D01*
X205665249Y-88749630D01*
X205486004Y-88729435D01*
X205485996Y-88729435D01*
X205306750Y-88749630D01*
X205306745Y-88749631D01*
X205136476Y-88809211D01*
X204983737Y-88905184D01*
X204856184Y-89032737D01*
X204803364Y-89116800D01*
X204760211Y-89185478D01*
X204760210Y-89185479D01*
X204760209Y-89185482D01*
X204757972Y-89191874D01*
X204747539Y-89213080D01*
X204747916Y-89213290D01*
X204745766Y-89217163D01*
X204573464Y-89587660D01*
X204548711Y-89623051D01*
X204497480Y-89674283D01*
X204475279Y-89712737D01*
X204459026Y-89740889D01*
X204418423Y-89811215D01*
X204377499Y-89963943D01*
X204377499Y-89963945D01*
X204377499Y-90132046D01*
X204377500Y-90132059D01*
X204377500Y-91781878D01*
X204357815Y-91848917D01*
X204305011Y-91894672D01*
X204235853Y-91904616D01*
X204190379Y-91888610D01*
X204123261Y-91848917D01*
X204093398Y-91831256D01*
X204093397Y-91831255D01*
X204093396Y-91831255D01*
X204093393Y-91831254D01*
X203935573Y-91785402D01*
X203935567Y-91785401D01*
X203898701Y-91782500D01*
X203898694Y-91782500D01*
X202117306Y-91782500D01*
X202117298Y-91782500D01*
X202080432Y-91785401D01*
X202080426Y-91785402D01*
X201922603Y-91831255D01*
X201921998Y-91831516D01*
X201905399Y-91839642D01*
X201902488Y-91840792D01*
X201632931Y-91970274D01*
X201579241Y-91982500D01*
X201107894Y-91982500D01*
X201040855Y-91962815D01*
X200995100Y-91910011D01*
X200985156Y-91840853D01*
X201002903Y-91792524D01*
X201004788Y-91789523D01*
X201004789Y-91789522D01*
X201064368Y-91619255D01*
X201074994Y-91524945D01*
X201084565Y-91440003D01*
X201084565Y-91439996D01*
X201064369Y-91260750D01*
X201064368Y-91260745D01*
X201053206Y-91228846D01*
X201004789Y-91090478D01*
X200990566Y-91067843D01*
X200965582Y-91028080D01*
X200908816Y-90937738D01*
X200781262Y-90810184D01*
X200753823Y-90792943D01*
X200628523Y-90714211D01*
X200458254Y-90654631D01*
X200458249Y-90654630D01*
X200279004Y-90634435D01*
X200278996Y-90634435D01*
X200099746Y-90654631D01*
X200099745Y-90654631D01*
X200061015Y-90668183D01*
X200037813Y-90673318D01*
X200037873Y-90673667D01*
X200033519Y-90674414D01*
X199891567Y-90709388D01*
X199858185Y-90711239D01*
X199858185Y-90712499D01*
X199684347Y-90712499D01*
X199684331Y-90712500D01*
X199486759Y-90712500D01*
X199433069Y-90700274D01*
X199163525Y-90570800D01*
X199163521Y-90570798D01*
X199163510Y-90570793D01*
X199157219Y-90568134D01*
X199144654Y-90561799D01*
X199143399Y-90561257D01*
X199143398Y-90561256D01*
X199143395Y-90561255D01*
X199142497Y-90560994D01*
X199128837Y-90556143D01*
X199118798Y-90551902D01*
X199118791Y-90551899D01*
X199118788Y-90551898D01*
X199118787Y-90551898D01*
X199107007Y-90549400D01*
X199095139Y-90546884D01*
X199086270Y-90544658D01*
X198985575Y-90515403D01*
X198985563Y-90515401D01*
X198948701Y-90512500D01*
X198948694Y-90512500D01*
X198291098Y-90512500D01*
X198224059Y-90492815D01*
X198178304Y-90440011D01*
X198168360Y-90370853D01*
X198197385Y-90307297D01*
X198203417Y-90300819D01*
X198332417Y-90171819D01*
X198393740Y-90138334D01*
X198420098Y-90135500D01*
X201458974Y-90135500D01*
X201501505Y-90143022D01*
X201751565Y-90234329D01*
X201751567Y-90234329D01*
X201885314Y-90283165D01*
X201925824Y-90296054D01*
X201927226Y-90296227D01*
X201952956Y-90302246D01*
X202004745Y-90320368D01*
X202004749Y-90320368D01*
X202004751Y-90320369D01*
X202183996Y-90340565D01*
X202184000Y-90340565D01*
X202184004Y-90340565D01*
X202363249Y-90320369D01*
X202363252Y-90320368D01*
X202363255Y-90320368D01*
X202533522Y-90260789D01*
X202686262Y-90164816D01*
X202813816Y-90037262D01*
X202909789Y-89884522D01*
X202969368Y-89714255D01*
X202983632Y-89587660D01*
X202989565Y-89535003D01*
X202989565Y-89534996D01*
X202969369Y-89355750D01*
X202969368Y-89355745D01*
X202909788Y-89185476D01*
X202845036Y-89082425D01*
X202813816Y-89032738D01*
X202686262Y-88905184D01*
X202630049Y-88869863D01*
X202533523Y-88809211D01*
X202363254Y-88749631D01*
X202363249Y-88749630D01*
X202184004Y-88729435D01*
X202183996Y-88729435D01*
X202004746Y-88749631D01*
X202004745Y-88749631D01*
X201925764Y-88777267D01*
X201910338Y-88781569D01*
X201885314Y-88786833D01*
X201501503Y-88926978D01*
X201458972Y-88934500D01*
X198206670Y-88934500D01*
X198206654Y-88934499D01*
X198199058Y-88934499D01*
X198170546Y-88934499D01*
X198103507Y-88914814D01*
X198064557Y-88869863D01*
X198053036Y-88902432D01*
X197997822Y-88945246D01*
X197984617Y-88949591D01*
X197888220Y-88975421D01*
X197888209Y-88975426D01*
X197751290Y-89054475D01*
X197751282Y-89054481D01*
X196302479Y-90503284D01*
X196282491Y-90537906D01*
X196274042Y-90552541D01*
X196223423Y-90640215D01*
X196182499Y-90792943D01*
X196182499Y-90792945D01*
X196180396Y-90800794D01*
X196177408Y-90799993D01*
X196155033Y-90850507D01*
X196096690Y-90888950D01*
X196026825Y-90889748D01*
X195972718Y-90858061D01*
X195509168Y-90394511D01*
X195483074Y-90356135D01*
X195139719Y-89563709D01*
X195129499Y-89514413D01*
X195129499Y-89404998D01*
X195129498Y-89404981D01*
X195118999Y-89302203D01*
X195118998Y-89302200D01*
X195111052Y-89278221D01*
X195063814Y-89135666D01*
X195063810Y-89135659D01*
X195060760Y-89129118D01*
X195063575Y-89127805D01*
X195048799Y-89073863D01*
X195069702Y-89007193D01*
X195123331Y-88962408D01*
X195161827Y-88952608D01*
X197941580Y-88706301D01*
X198010093Y-88719992D01*
X198059342Y-88767596D01*
X198076833Y-88729296D01*
X198135611Y-88691522D01*
X198159599Y-88686983D01*
X198559560Y-88651544D01*
X198644114Y-88636735D01*
X198684681Y-88626013D01*
X198765504Y-88597114D01*
X198886543Y-88519326D01*
X198939347Y-88473571D01*
X199033567Y-88364837D01*
X199093338Y-88233960D01*
X199113023Y-88166921D01*
X199113024Y-88166917D01*
X199133500Y-88024501D01*
X199133500Y-87242900D01*
X199123268Y-87141708D01*
X199123268Y-87141705D01*
X199113333Y-87093080D01*
X199113331Y-87093074D01*
X199113330Y-87093068D01*
X199083048Y-86995971D01*
X199045505Y-86934168D01*
X199027523Y-86866652D01*
X199038690Y-86818277D01*
X199093334Y-86698627D01*
X199093334Y-86698626D01*
X199093338Y-86698618D01*
X199113023Y-86631579D01*
X199113024Y-86631575D01*
X199133500Y-86489159D01*
X199133500Y-84823498D01*
X201696300Y-84823498D01*
X201696300Y-85254901D01*
X201699201Y-85291767D01*
X201699202Y-85291773D01*
X201745054Y-85449593D01*
X201745055Y-85449596D01*
X201828717Y-85591062D01*
X201833502Y-85597231D01*
X201831056Y-85599127D01*
X201857657Y-85647842D01*
X201852673Y-85717534D01*
X201831869Y-85749903D01*
X201833502Y-85751169D01*
X201828717Y-85757337D01*
X201745055Y-85898803D01*
X201745054Y-85898806D01*
X201699202Y-86056626D01*
X201699201Y-86056632D01*
X201696300Y-86093498D01*
X201696300Y-86524901D01*
X201699201Y-86561767D01*
X201699202Y-86561773D01*
X201745054Y-86719593D01*
X201745055Y-86719596D01*
X201828717Y-86861062D01*
X201828723Y-86861070D01*
X201944929Y-86977276D01*
X201944933Y-86977279D01*
X201944935Y-86977281D01*
X202086402Y-87060944D01*
X202093689Y-87063061D01*
X202244226Y-87106797D01*
X202244229Y-87106797D01*
X202244231Y-87106798D01*
X202281106Y-87109700D01*
X202281114Y-87109700D01*
X203712486Y-87109700D01*
X203712494Y-87109700D01*
X203749369Y-87106798D01*
X203749371Y-87106797D01*
X203749373Y-87106797D01*
X203796586Y-87093080D01*
X203907198Y-87060944D01*
X204005094Y-87003048D01*
X204072815Y-86985866D01*
X204110740Y-86993302D01*
X204291565Y-87059329D01*
X204291567Y-87059329D01*
X204425314Y-87108165D01*
X204465824Y-87121054D01*
X204467226Y-87121227D01*
X204492956Y-87127246D01*
X204544745Y-87145368D01*
X204544749Y-87145368D01*
X204544751Y-87145369D01*
X204723996Y-87165565D01*
X204724000Y-87165565D01*
X204724004Y-87165565D01*
X204903249Y-87145369D01*
X204903252Y-87145368D01*
X204903255Y-87145368D01*
X205073522Y-87085789D01*
X205226262Y-86989816D01*
X205353816Y-86862262D01*
X205449789Y-86709522D01*
X205509368Y-86539255D01*
X205509369Y-86539249D01*
X205529565Y-86360003D01*
X205529565Y-86359996D01*
X205509369Y-86180750D01*
X205509366Y-86180737D01*
X205463834Y-86050614D01*
X205460272Y-85980835D01*
X205495000Y-85920208D01*
X205556994Y-85887980D01*
X205566984Y-85886440D01*
X205619077Y-85880570D01*
X205665249Y-85875369D01*
X205665252Y-85875368D01*
X205665255Y-85875368D01*
X205835522Y-85815789D01*
X205988262Y-85719816D01*
X206115816Y-85592262D01*
X206211789Y-85439522D01*
X206271368Y-85269255D01*
X206271369Y-85269249D01*
X206291565Y-85090003D01*
X206291565Y-85089996D01*
X206271369Y-84910750D01*
X206271368Y-84910745D01*
X206227939Y-84786632D01*
X206211789Y-84740478D01*
X206115816Y-84587738D01*
X205988262Y-84460184D01*
X205835523Y-84364211D01*
X205665254Y-84304631D01*
X205665249Y-84304630D01*
X205486004Y-84284435D01*
X205485996Y-84284435D01*
X205306750Y-84304630D01*
X205306742Y-84304632D01*
X205196321Y-84343270D01*
X205187874Y-84345891D01*
X205159743Y-84353532D01*
X205159730Y-84353537D01*
X204799364Y-84509320D01*
X204750161Y-84519500D01*
X204248409Y-84519500D01*
X204181370Y-84499815D01*
X204160728Y-84483181D01*
X204048670Y-84371123D01*
X204048662Y-84371117D01*
X203907196Y-84287455D01*
X203907193Y-84287454D01*
X203749373Y-84241602D01*
X203749367Y-84241601D01*
X203712501Y-84238700D01*
X203712494Y-84238700D01*
X202281106Y-84238700D01*
X202281098Y-84238700D01*
X202244232Y-84241601D01*
X202244226Y-84241602D01*
X202086406Y-84287454D01*
X202086403Y-84287455D01*
X201944937Y-84371117D01*
X201944929Y-84371123D01*
X201828723Y-84487329D01*
X201828717Y-84487337D01*
X201745055Y-84628803D01*
X201745054Y-84628806D01*
X201699202Y-84786626D01*
X201699201Y-84786632D01*
X201696300Y-84823498D01*
X199133500Y-84823498D01*
X199133500Y-84701437D01*
X199126380Y-84628803D01*
X199123878Y-84603280D01*
X199123874Y-84603254D01*
X199114524Y-84556028D01*
X199114522Y-84556017D01*
X199086012Y-84461577D01*
X199012816Y-84337707D01*
X198979159Y-84295788D01*
X198952537Y-84231191D01*
X198963059Y-84166637D01*
X198966338Y-84159459D01*
X198986023Y-84092420D01*
X198986024Y-84092416D01*
X199006500Y-83950000D01*
X199006500Y-82039000D01*
X198994947Y-81931544D01*
X198983741Y-81880033D01*
X198983637Y-81879722D01*
X198949616Y-81777502D01*
X198949613Y-81777496D01*
X198870272Y-81654040D01*
X198850587Y-81587000D01*
X198870271Y-81519961D01*
X198923075Y-81474206D01*
X198974587Y-81463000D01*
X212354500Y-81463000D01*
X212421539Y-81482685D01*
G37*
%TD.AperFunction*%
%TD*%
%TA.AperFunction,Conductor*%
%TO.N,Net-(R3-Pad2)*%
G36*
X197115195Y-104697661D02*
G01*
X198035064Y-104893497D01*
X198042442Y-104898572D01*
X198044071Y-104907377D01*
X198038996Y-104914756D01*
X198036621Y-104915938D01*
X197251862Y-105200960D01*
X197245994Y-105201512D01*
X196808826Y-105130593D01*
X196801209Y-105125886D01*
X196799000Y-105119044D01*
X196799000Y-104934862D01*
X196802427Y-104926589D01*
X196803691Y-104925494D01*
X197105777Y-104699736D01*
X197114454Y-104697529D01*
X197115195Y-104697661D01*
G37*
%TD.AperFunction*%
%TD*%
%TA.AperFunction,Conductor*%
%TO.N,Net-(R3-Pad2)*%
G36*
X196133199Y-104435508D02*
G01*
X196775397Y-104925488D01*
X196779896Y-104933231D01*
X196780000Y-104934790D01*
X196780000Y-105123209D01*
X196776573Y-105131482D01*
X196775397Y-105132511D01*
X196606876Y-105261087D01*
X196602807Y-105263086D01*
X196530812Y-105282377D01*
X196530808Y-105282379D01*
X196462292Y-105321937D01*
X196462287Y-105321941D01*
X196254154Y-105530073D01*
X196252978Y-105531102D01*
X196133201Y-105622490D01*
X196124545Y-105624784D01*
X196117448Y-105621060D01*
X195586159Y-105036872D01*
X195583128Y-105028446D01*
X195586159Y-105021128D01*
X195673139Y-104925488D01*
X196117449Y-104436938D01*
X196125550Y-104433124D01*
X196133199Y-104435508D01*
G37*
%TD.AperFunction*%
%TD*%
%TA.AperFunction,Conductor*%
%TO.N,/v_sharktooth*%
G36*
X194449190Y-103901623D02*
G01*
X194452949Y-103904144D01*
X194583735Y-104034930D01*
X194587162Y-104043203D01*
X194586552Y-104046931D01*
X194183866Y-105244857D01*
X194177982Y-105251607D01*
X194169048Y-105252219D01*
X194168646Y-105252076D01*
X194130675Y-105237749D01*
X193584971Y-105031849D01*
X193578441Y-105025723D01*
X193577777Y-105023838D01*
X193400871Y-104338877D01*
X193402120Y-104330011D01*
X193407756Y-104325128D01*
X194440238Y-103901592D01*
X194449190Y-103901623D01*
G37*
%TD.AperFunction*%
%TD*%
%TA.AperFunction,Conductor*%
%TO.N,/v_sharktooth*%
G36*
X195040894Y-102631144D02*
G01*
X195612045Y-102866751D01*
X195618386Y-102873074D01*
X195619162Y-102875889D01*
X195721935Y-103585230D01*
X195719730Y-103593909D01*
X195713959Y-103598039D01*
X194710763Y-103922764D01*
X194701837Y-103922052D01*
X194698887Y-103919906D01*
X194568006Y-103789025D01*
X194564579Y-103780752D01*
X194565431Y-103776369D01*
X194642665Y-103585230D01*
X195025585Y-102637575D01*
X195031861Y-102631190D01*
X195040815Y-102631112D01*
X195040894Y-102631144D01*
G37*
%TD.AperFunction*%
%TD*%
%TA.AperFunction,Conductor*%
%TO.N,/Vmid*%
G36*
X196705396Y-111352164D02*
G01*
X196709014Y-111354625D01*
X196839865Y-111485476D01*
X196843292Y-111493749D01*
X196842674Y-111497500D01*
X196486531Y-112549686D01*
X196480633Y-112556424D01*
X196473034Y-112557383D01*
X195788538Y-112412982D01*
X195781150Y-112407921D01*
X195780137Y-112405996D01*
X195539201Y-111821979D01*
X195539214Y-111813024D01*
X195545555Y-111806701D01*
X195545613Y-111806677D01*
X196696443Y-111352016D01*
X196705396Y-111352164D01*
G37*
%TD.AperFunction*%
%TD*%
%TA.AperFunction,Conductor*%
%TO.N,/Vmid*%
G36*
X192966604Y-102660604D02*
G01*
X193536441Y-102866807D01*
X193543055Y-102872845D01*
X193543886Y-102875292D01*
X193700187Y-103584735D01*
X193698620Y-103593551D01*
X193692485Y-103598344D01*
X192781811Y-103904087D01*
X192778087Y-103904695D01*
X192595731Y-103904695D01*
X192587458Y-103901268D01*
X192584031Y-103892995D01*
X192584526Y-103889629D01*
X192951442Y-102668248D01*
X192957104Y-102661310D01*
X192966013Y-102660409D01*
X192966604Y-102660604D01*
G37*
%TD.AperFunction*%
%TD*%
%TA.AperFunction,Conductor*%
%TO.N,VCC*%
G36*
X198079153Y-106182114D02*
G01*
X198079168Y-106182150D01*
X198194739Y-106463422D01*
X198194714Y-106472377D01*
X198190717Y-106477390D01*
X197711354Y-106819792D01*
X197702631Y-106821812D01*
X197696281Y-106818544D01*
X197362111Y-106484374D01*
X197358684Y-106476101D01*
X197362111Y-106467828D01*
X197365895Y-106465297D01*
X198063865Y-106175789D01*
X198072818Y-106175785D01*
X198079153Y-106182114D01*
G37*
%TD.AperFunction*%
%TD*%
%TA.AperFunction,Conductor*%
%TO.N,VCC*%
G36*
X192074187Y-92887348D02*
G01*
X192075633Y-92888568D01*
X192278707Y-93090293D01*
X192278762Y-93090348D01*
X192480431Y-93293366D01*
X192483830Y-93301651D01*
X192480376Y-93309913D01*
X192478930Y-93311133D01*
X192003222Y-93650924D01*
X191994499Y-93652944D01*
X191988149Y-93649676D01*
X191719323Y-93380850D01*
X191715896Y-93372577D01*
X191718074Y-93365778D01*
X192057868Y-92890067D01*
X192065464Y-92885328D01*
X192074187Y-92887348D01*
G37*
%TD.AperFunction*%
%TD*%
%TA.AperFunction,Conductor*%
%TO.N,/Zout*%
G36*
X211881296Y-87593665D02*
G01*
X211887621Y-87600004D01*
X211888014Y-87601108D01*
X212344481Y-89122593D01*
X212343576Y-89131502D01*
X212336636Y-89137162D01*
X212333274Y-89137655D01*
X212150818Y-89137655D01*
X212147265Y-89137102D01*
X210785840Y-88703161D01*
X210778998Y-88697384D01*
X210778246Y-88688461D01*
X210778576Y-88687555D01*
X211097144Y-87917485D01*
X211103471Y-87911153D01*
X211872342Y-87593656D01*
X211881296Y-87593665D01*
G37*
%TD.AperFunction*%
%TD*%
%TA.AperFunction,Conductor*%
%TO.N,/Zout*%
G36*
X201832834Y-125074278D02*
G01*
X201968000Y-125119333D01*
X201974765Y-125125201D01*
X201976000Y-125130433D01*
X201976000Y-125313566D01*
X201972573Y-125321839D01*
X201968000Y-125324666D01*
X201832834Y-125369721D01*
X201823902Y-125369086D01*
X201820888Y-125366922D01*
X201778350Y-125324666D01*
X201683355Y-125230300D01*
X201679902Y-125222039D01*
X201683301Y-125213754D01*
X201683356Y-125213699D01*
X201767177Y-125130433D01*
X201820889Y-125077076D01*
X201829173Y-125073678D01*
X201832834Y-125074278D01*
G37*
%TD.AperFunction*%
%TD*%
%TA.AperFunction,Conductor*%
%TO.N,/Yout*%
G36*
X211103489Y-92994865D02*
G01*
X211872724Y-93314472D01*
X211879049Y-93320811D01*
X211879040Y-93329766D01*
X211878706Y-93330497D01*
X211202230Y-94687520D01*
X211195472Y-94693395D01*
X211191759Y-94694000D01*
X211006241Y-94694000D01*
X210997968Y-94690573D01*
X210995770Y-94687520D01*
X210319293Y-93330497D01*
X210318669Y-93321564D01*
X210324544Y-93314806D01*
X210325261Y-93314478D01*
X211094511Y-92994864D01*
X211103466Y-92994856D01*
X211103489Y-92994865D01*
G37*
%TD.AperFunction*%
%TD*%
%TA.AperFunction,Conductor*%
%TO.N,/Yout*%
G36*
X203216875Y-123507441D02*
G01*
X203224191Y-123512605D01*
X203226000Y-123518854D01*
X203226000Y-123700145D01*
X203222573Y-123708418D01*
X203216875Y-123711558D01*
X203033071Y-123753030D01*
X203026456Y-123752597D01*
X202667345Y-123620480D01*
X202660764Y-123614408D01*
X202660405Y-123605460D01*
X202666477Y-123598879D01*
X202667345Y-123598520D01*
X203026458Y-123466401D01*
X203033069Y-123465969D01*
X203216875Y-123507441D01*
G37*
%TD.AperFunction*%
%TD*%
%TA.AperFunction,Conductor*%
%TO.N,/Xout*%
G36*
X210325656Y-90133655D02*
G01*
X211094511Y-90451146D01*
X211100850Y-90457471D01*
X211100856Y-90457487D01*
X211419417Y-91227541D01*
X211419413Y-91236496D01*
X211413079Y-91242825D01*
X211412159Y-91243161D01*
X210050735Y-91677102D01*
X210047182Y-91677655D01*
X209864726Y-91677655D01*
X209856453Y-91674228D01*
X209853026Y-91665955D01*
X209853519Y-91662593D01*
X210309985Y-90141108D01*
X210315645Y-90134168D01*
X210324554Y-90133263D01*
X210325656Y-90133655D01*
G37*
%TD.AperFunction*%
%TD*%
%TA.AperFunction,Conductor*%
%TO.N,/Xout*%
G36*
X203216875Y-122207441D02*
G01*
X203224191Y-122212605D01*
X203226000Y-122218854D01*
X203226000Y-122400145D01*
X203222573Y-122408418D01*
X203216875Y-122411558D01*
X203033071Y-122453030D01*
X203026456Y-122452597D01*
X202667345Y-122320480D01*
X202660764Y-122314408D01*
X202660405Y-122305460D01*
X202666477Y-122298879D01*
X202667345Y-122298520D01*
X203026458Y-122166401D01*
X203033069Y-122165969D01*
X203216875Y-122207441D01*
G37*
%TD.AperFunction*%
%TD*%
%TA.AperFunction,Conductor*%
%TO.N,/ST*%
G36*
X189640489Y-92994865D02*
G01*
X190409724Y-93314472D01*
X190416049Y-93320811D01*
X190416040Y-93329766D01*
X190415706Y-93330497D01*
X189739230Y-94687520D01*
X189732472Y-94693395D01*
X189728759Y-94694000D01*
X189543241Y-94694000D01*
X189534968Y-94690573D01*
X189532770Y-94687520D01*
X188856293Y-93330497D01*
X188855669Y-93321564D01*
X188861544Y-93314806D01*
X188862261Y-93314478D01*
X189631511Y-92994864D01*
X189640466Y-92994856D01*
X189640489Y-92994865D01*
G37*
%TD.AperFunction*%
%TD*%
%TA.AperFunction,Conductor*%
%TO.N,/ST*%
G36*
X198306190Y-122675924D02*
G01*
X198684721Y-122780111D01*
X198781180Y-122806661D01*
X198788247Y-122812161D01*
X198789588Y-122820027D01*
X198766007Y-122950261D01*
X198761161Y-122957791D01*
X198754104Y-122959869D01*
X198329785Y-122945703D01*
X198323008Y-122943258D01*
X198168703Y-122823672D01*
X198164263Y-122815895D01*
X198166622Y-122807257D01*
X198167589Y-122806159D01*
X198294816Y-122678932D01*
X198303088Y-122675506D01*
X198306190Y-122675924D01*
G37*
%TD.AperFunction*%
%TD*%
%TA.AperFunction,Conductor*%
%TO.N,VCC*%
G36*
X198842299Y-118530295D02*
G01*
X198848627Y-118536629D01*
X198848622Y-118545584D01*
X198846088Y-118549374D01*
X198787753Y-118607710D01*
X198511918Y-118883544D01*
X198503645Y-118886971D01*
X198496845Y-118884792D01*
X198017482Y-118542390D01*
X198012741Y-118534792D01*
X198013459Y-118528424D01*
X198129032Y-118247148D01*
X198135345Y-118240800D01*
X198144298Y-118240775D01*
X198842299Y-118530295D01*
G37*
%TD.AperFunction*%
%TD*%
%TA.AperFunction,Conductor*%
%TO.N,/Vmid*%
G36*
X204997767Y-119298085D02*
G01*
X205322918Y-119643636D01*
X205530255Y-119863982D01*
X205533429Y-119872356D01*
X205530255Y-119880018D01*
X204997769Y-120445913D01*
X204989604Y-120449590D01*
X204982958Y-120447760D01*
X204242210Y-119975449D01*
X204237076Y-119968112D01*
X204236800Y-119965584D01*
X204236800Y-119778415D01*
X204240227Y-119770142D01*
X204242206Y-119768552D01*
X204982960Y-119296238D01*
X204991776Y-119294680D01*
X204997767Y-119298085D01*
G37*
%TD.AperFunction*%
%TD*%
%TA.AperFunction,Conductor*%
%TO.N,/Vmid*%
G36*
X195778209Y-112408525D02*
G01*
X195785094Y-112414249D01*
X195785822Y-112415945D01*
X195983399Y-112999106D01*
X195982808Y-113008041D01*
X195976072Y-113013941D01*
X195975281Y-113014179D01*
X194752065Y-113334348D01*
X194743193Y-113333127D01*
X194740829Y-113331302D01*
X194610006Y-113200479D01*
X194606579Y-113192206D01*
X194607724Y-113187158D01*
X195078838Y-112202023D01*
X195085497Y-112196040D01*
X195092856Y-112195898D01*
X195778209Y-112408525D01*
G37*
%TD.AperFunction*%
%TD*%
%TA.AperFunction,Conductor*%
%TO.N,VCC*%
G36*
X199405598Y-117913502D02*
G01*
X199409197Y-117921701D01*
X199409200Y-117921946D01*
X199409200Y-118302265D01*
X199405773Y-118310538D01*
X199402084Y-118313030D01*
X199101575Y-118440988D01*
X199094555Y-118441667D01*
X198142003Y-118238874D01*
X198134624Y-118233799D01*
X198132753Y-118228012D01*
X198118904Y-117949022D01*
X198121917Y-117940592D01*
X198130010Y-117936759D01*
X198130325Y-117936748D01*
X199397257Y-117910249D01*
X199405598Y-117913502D01*
G37*
%TD.AperFunction*%
%TD*%
%TA.AperFunction,Conductor*%
%TO.N,VCC*%
G36*
X199943946Y-117814282D02*
G01*
X199948687Y-117821880D01*
X199948846Y-117823764D01*
X199949800Y-118110000D01*
X199949800Y-118110078D01*
X199948845Y-118396235D01*
X199945390Y-118404497D01*
X199937106Y-118407896D01*
X199935222Y-118407737D01*
X199358577Y-118311629D01*
X199350979Y-118306888D01*
X199348800Y-118300088D01*
X199348800Y-117919911D01*
X199352227Y-117911638D01*
X199358575Y-117908370D01*
X199935225Y-117812262D01*
X199943946Y-117814282D01*
G37*
%TD.AperFunction*%
%TD*%
%TA.AperFunction,Conductor*%
%TO.N,VCC*%
G36*
X197256550Y-117949975D02*
G01*
X198100882Y-118226561D01*
X198107677Y-118232392D01*
X198108358Y-118241321D01*
X198102526Y-118248117D01*
X198100865Y-118248803D01*
X197255310Y-118524436D01*
X197248262Y-118524500D01*
X196742340Y-118369765D01*
X196735431Y-118364069D01*
X196734574Y-118355155D01*
X196737487Y-118350306D01*
X197005363Y-118082430D01*
X197008057Y-118080420D01*
X197247369Y-117950815D01*
X197256275Y-117949889D01*
X197256550Y-117949975D01*
G37*
%TD.AperFunction*%
%TD*%
%TA.AperFunction,Conductor*%
%TO.N,Net-(U2A--)*%
G36*
X203792299Y-118530295D02*
G01*
X203798627Y-118536629D01*
X203798622Y-118545584D01*
X203796088Y-118549374D01*
X203667042Y-118678421D01*
X203531583Y-118813879D01*
X203523310Y-118817306D01*
X203518079Y-118816071D01*
X202969655Y-118541859D01*
X202963788Y-118535095D01*
X202964066Y-118526948D01*
X203079032Y-118247148D01*
X203085345Y-118240800D01*
X203094298Y-118240775D01*
X203792299Y-118530295D01*
G37*
%TD.AperFunction*%
%TD*%
%TA.AperFunction,Conductor*%
%TO.N,Net-(U2A--)*%
G36*
X209639036Y-111650061D02*
G01*
X209643731Y-111656113D01*
X209999874Y-112708299D01*
X209999281Y-112717234D01*
X209997065Y-112720323D01*
X209866214Y-112851174D01*
X209857941Y-112854601D01*
X209853642Y-112853783D01*
X208702918Y-112399164D01*
X208696483Y-112392937D01*
X208696335Y-112383983D01*
X208696359Y-112383922D01*
X208937337Y-111799802D01*
X208943660Y-111793462D01*
X208945730Y-111792819D01*
X209630235Y-111648416D01*
X209639036Y-111650061D01*
G37*
%TD.AperFunction*%
%TD*%
%TA.AperFunction,Conductor*%
%TO.N,VCC*%
G36*
X209345895Y-115365857D02*
G01*
X209549328Y-115568336D01*
X209551897Y-115572185D01*
X209659856Y-115835112D01*
X209659829Y-115844067D01*
X209653477Y-115850379D01*
X209652293Y-115850793D01*
X209070170Y-116019660D01*
X209061269Y-116018674D01*
X209055673Y-116011683D01*
X209055210Y-116008423D01*
X209055210Y-115629053D01*
X209058637Y-115620780D01*
X209058890Y-115620535D01*
X209329622Y-115365631D01*
X209337993Y-115362455D01*
X209345895Y-115365857D01*
G37*
%TD.AperFunction*%
%TD*%
%TA.AperFunction,Conductor*%
%TO.N,VCC*%
G36*
X208020117Y-115229034D02*
G01*
X208661596Y-115620579D01*
X208666872Y-115627815D01*
X208667200Y-115630566D01*
X208667200Y-116017433D01*
X208663773Y-116025706D01*
X208661596Y-116027420D01*
X208020118Y-116418964D01*
X208011271Y-116420349D01*
X208005366Y-116416849D01*
X207473359Y-115831872D01*
X207470328Y-115823446D01*
X207473359Y-115816128D01*
X207644620Y-115627815D01*
X208005366Y-115231149D01*
X208013468Y-115227335D01*
X208020117Y-115229034D01*
G37*
%TD.AperFunction*%
%TD*%
%TA.AperFunction,Conductor*%
%TO.N,Net-(U2A--)*%
G36*
X203092458Y-116974285D02*
G01*
X203246049Y-117128389D01*
X203377440Y-117260218D01*
X203380853Y-117268496D01*
X203378888Y-117274967D01*
X203187673Y-117561790D01*
X203180233Y-117566773D01*
X203177938Y-117567000D01*
X202990462Y-117567000D01*
X202982189Y-117563573D01*
X202980727Y-117561790D01*
X202789511Y-117274967D01*
X202787773Y-117266182D01*
X202790959Y-117260218D01*
X203075914Y-116974313D01*
X203084181Y-116970873D01*
X203092458Y-116974285D01*
G37*
%TD.AperFunction*%
%TD*%
%TA.AperFunction,Conductor*%
%TO.N,Net-(U2A--)*%
G36*
X203186211Y-117640427D02*
G01*
X203187673Y-117642210D01*
X203378888Y-117929032D01*
X203380626Y-117937817D01*
X203377440Y-117943781D01*
X203092487Y-118229685D01*
X203084219Y-118233126D01*
X203075941Y-118229713D01*
X203075913Y-118229685D01*
X202790959Y-117943781D01*
X202787546Y-117935503D01*
X202789510Y-117929034D01*
X202980727Y-117642210D01*
X202988167Y-117637227D01*
X202990462Y-117637000D01*
X203177938Y-117637000D01*
X203186211Y-117640427D01*
G37*
%TD.AperFunction*%
%TD*%
%TA.AperFunction,Conductor*%
%TO.N,Net-(U2A-+)*%
G36*
X205570054Y-116675427D02*
G01*
X205570704Y-116676132D01*
X206097971Y-117297821D01*
X206100709Y-117306347D01*
X206097312Y-117313671D01*
X205544393Y-117865422D01*
X205536117Y-117868840D01*
X205528594Y-117866090D01*
X204918091Y-117352017D01*
X204913971Y-117344068D01*
X204915948Y-117336497D01*
X205363718Y-116677126D01*
X205371201Y-116672208D01*
X205373397Y-116672000D01*
X205561781Y-116672000D01*
X205570054Y-116675427D01*
G37*
%TD.AperFunction*%
%TD*%
%TA.AperFunction,Conductor*%
%TO.N,Net-(U2A-+)*%
G36*
X205475216Y-115830543D02*
G01*
X206041113Y-116363031D01*
X206044790Y-116371195D01*
X206042960Y-116377841D01*
X205570649Y-117118590D01*
X205563312Y-117123724D01*
X205560784Y-117124000D01*
X205373616Y-117124000D01*
X205365343Y-117120573D01*
X205363751Y-117118590D01*
X204891439Y-116377841D01*
X204889880Y-116369023D01*
X204893284Y-116363033D01*
X205459183Y-115830543D01*
X205467556Y-115827370D01*
X205475216Y-115830543D01*
G37*
%TD.AperFunction*%
%TD*%
%TA.AperFunction,Conductor*%
%TO.N,Net-(U2A-+)*%
G36*
X204988571Y-115177773D02*
G01*
X205461957Y-115815589D01*
X205464136Y-115824275D01*
X205460528Y-115831131D01*
X204893368Y-116358354D01*
X204884975Y-116361477D01*
X204877481Y-116358396D01*
X204270979Y-115800476D01*
X204267210Y-115792353D01*
X204267200Y-115791865D01*
X204267200Y-115603634D01*
X204270627Y-115595361D01*
X204272888Y-115593597D01*
X204973171Y-115174704D01*
X204982029Y-115173399D01*
X204988571Y-115177773D01*
G37*
%TD.AperFunction*%
%TD*%
%TA.AperFunction,Conductor*%
%TO.N,Net-(U2A-+)*%
G36*
X203970837Y-115410452D02*
G01*
X204352566Y-115593813D01*
X204358540Y-115600484D01*
X204359200Y-115604359D01*
X204359200Y-115789640D01*
X204355773Y-115797913D01*
X204352566Y-115800186D01*
X203970837Y-115983547D01*
X203962138Y-115984123D01*
X203357293Y-115786538D01*
X203117245Y-115708121D01*
X203110446Y-115702295D01*
X203109757Y-115693367D01*
X203115584Y-115686567D01*
X203117244Y-115685878D01*
X203962139Y-115409876D01*
X203970837Y-115410452D01*
G37*
%TD.AperFunction*%
%TD*%
%TA.AperFunction,Conductor*%
%TO.N,Net-(U2B--)*%
G36*
X200810028Y-110099679D02*
G01*
X201330369Y-110668164D01*
X201333427Y-110676581D01*
X201330278Y-110684062D01*
X200763467Y-111289298D01*
X200755310Y-111292994D01*
X200754927Y-111293000D01*
X200566757Y-111293000D01*
X200558484Y-111289573D01*
X200556623Y-111287147D01*
X200208647Y-110684062D01*
X200147297Y-110577736D01*
X200146131Y-110568859D01*
X200150588Y-110562401D01*
X200794555Y-110098088D01*
X200803269Y-110096030D01*
X200810028Y-110099679D01*
G37*
%TD.AperFunction*%
%TD*%
%TA.AperFunction,Conductor*%
%TO.N,Net-(U2B--)*%
G36*
X199246182Y-115413895D02*
G01*
X199253766Y-115417302D01*
X199383606Y-115547142D01*
X199387033Y-115555415D01*
X199383606Y-115563688D01*
X199383444Y-115563847D01*
X199113265Y-115823745D01*
X199104927Y-115827011D01*
X199103609Y-115826911D01*
X198180716Y-115703996D01*
X198172968Y-115699507D01*
X198170663Y-115690853D01*
X198175152Y-115683105D01*
X198178252Y-115681406D01*
X198956927Y-115397827D01*
X198961615Y-115397142D01*
X199246182Y-115413895D01*
G37*
%TD.AperFunction*%
%TD*%
%TA.AperFunction,Conductor*%
%TO.N,Net-(U2B--)*%
G36*
X198142458Y-115704285D02*
G01*
X198296049Y-115858389D01*
X198427440Y-115990218D01*
X198430853Y-115998496D01*
X198428888Y-116004967D01*
X198237673Y-116291790D01*
X198230233Y-116296773D01*
X198227938Y-116297000D01*
X198040462Y-116297000D01*
X198032189Y-116293573D01*
X198030727Y-116291790D01*
X197839511Y-116004967D01*
X197837773Y-115996182D01*
X197840959Y-115990218D01*
X198125914Y-115704313D01*
X198134181Y-115700873D01*
X198142458Y-115704285D01*
G37*
%TD.AperFunction*%
%TD*%
%TA.AperFunction,Conductor*%
%TO.N,Net-(U2B--)*%
G36*
X198236211Y-116370427D02*
G01*
X198237673Y-116372210D01*
X198428888Y-116659032D01*
X198430626Y-116667817D01*
X198427440Y-116673781D01*
X198142487Y-116959685D01*
X198134219Y-116963126D01*
X198125941Y-116959713D01*
X198125913Y-116959685D01*
X197840959Y-116673781D01*
X197837546Y-116665503D01*
X197839510Y-116659034D01*
X198030727Y-116372210D01*
X198038167Y-116367227D01*
X198040462Y-116367000D01*
X198227938Y-116367000D01*
X198236211Y-116370427D01*
G37*
%TD.AperFunction*%
%TD*%
%TA.AperFunction,Conductor*%
%TO.N,Net-(U2B-+)*%
G36*
X199022163Y-112355704D02*
G01*
X199604289Y-112519710D01*
X199611323Y-112525252D01*
X199612021Y-112526733D01*
X199878583Y-113212463D01*
X199878387Y-113221416D01*
X199873332Y-113226945D01*
X198993351Y-113712721D01*
X198984452Y-113713719D01*
X198979424Y-113710751D01*
X198848321Y-113579648D01*
X198844894Y-113571375D01*
X198844997Y-113569828D01*
X199007399Y-112365402D01*
X199011901Y-112357663D01*
X199020557Y-112355372D01*
X199022163Y-112355704D01*
G37*
%TD.AperFunction*%
%TD*%
%TA.AperFunction,Conductor*%
%TO.N,Net-(U2B-+)*%
G36*
X198581583Y-113850120D02*
G01*
X198846088Y-114114625D01*
X198849515Y-114122898D01*
X198846088Y-114131171D01*
X198842298Y-114133705D01*
X198144336Y-114423209D01*
X198135381Y-114423214D01*
X198129046Y-114416885D01*
X198014066Y-114137051D01*
X198014091Y-114128096D01*
X198019654Y-114122140D01*
X198568081Y-113847927D01*
X198577010Y-113847293D01*
X198581583Y-113850120D01*
G37*
%TD.AperFunction*%
%TD*%
%TA.AperFunction,Conductor*%
%TO.N,Net-(U2B-+)*%
G36*
X196337084Y-113835441D02*
G01*
X197077937Y-114323533D01*
X197082960Y-114330945D01*
X197083200Y-114333302D01*
X197083200Y-114520467D01*
X197079773Y-114528740D01*
X197077639Y-114530427D01*
X196336992Y-114986963D01*
X196328151Y-114988387D01*
X196322332Y-114985021D01*
X195894576Y-114530427D01*
X195789743Y-114419016D01*
X195786570Y-114410644D01*
X195789743Y-114402983D01*
X196322130Y-113837193D01*
X196330294Y-113833517D01*
X196337084Y-113835441D01*
G37*
%TD.AperFunction*%
%TD*%
%TA.AperFunction,Conductor*%
%TO.N,Net-(U2B-+)*%
G36*
X197775646Y-114309544D02*
G01*
X198101153Y-114415878D01*
X198107953Y-114421705D01*
X198108642Y-114430633D01*
X198102815Y-114437433D01*
X198101153Y-114438122D01*
X197256261Y-114714123D01*
X197247562Y-114713547D01*
X196865834Y-114530186D01*
X196859860Y-114523515D01*
X196859200Y-114519640D01*
X196859200Y-114334359D01*
X196862627Y-114326086D01*
X196865832Y-114323814D01*
X197247562Y-114140451D01*
X197256260Y-114139876D01*
X197775646Y-114309544D01*
G37*
%TD.AperFunction*%
%TD*%
%TA.AperFunction,Conductor*%
%TO.N,Net-(U3A--)*%
G36*
X209588236Y-105856061D02*
G01*
X209592930Y-105862112D01*
X209639634Y-106000093D01*
X209647882Y-106024459D01*
X209648500Y-106028210D01*
X209648500Y-106051764D01*
X209668977Y-106128186D01*
X209702272Y-106185855D01*
X209703221Y-106187954D01*
X209949074Y-106914299D01*
X209948481Y-106923234D01*
X209946265Y-106926323D01*
X209815414Y-107057174D01*
X209807141Y-107060601D01*
X209802842Y-107059783D01*
X208652118Y-106605164D01*
X208645683Y-106598937D01*
X208645535Y-106589983D01*
X208645559Y-106589922D01*
X208886537Y-106005802D01*
X208892860Y-105999462D01*
X208894930Y-105998819D01*
X209579435Y-105854416D01*
X209588236Y-105856061D01*
G37*
%TD.AperFunction*%
%TD*%
%TA.AperFunction,Conductor*%
%TO.N,Net-(U3A--)*%
G36*
X209982056Y-108789778D02*
G01*
X209985483Y-108798051D01*
X209984971Y-108801475D01*
X209643462Y-109917233D01*
X209637764Y-109924141D01*
X209630115Y-109925308D01*
X208946526Y-109796950D01*
X208939027Y-109792055D01*
X208937937Y-109790073D01*
X208686807Y-109206131D01*
X208686686Y-109197177D01*
X208692933Y-109190761D01*
X208693490Y-109190538D01*
X209787639Y-108787073D01*
X209791687Y-108786351D01*
X209973783Y-108786351D01*
X209982056Y-108789778D01*
G37*
%TD.AperFunction*%
%TD*%
%TA.AperFunction,Conductor*%
%TO.N,/Acceleration*%
G36*
X206181656Y-101032996D02*
G01*
X207112367Y-101518574D01*
X207118117Y-101525439D01*
X207117328Y-101534359D01*
X207117315Y-101534384D01*
X206810587Y-102118837D01*
X206803708Y-102124570D01*
X206800888Y-102125081D01*
X206118273Y-102163716D01*
X206109820Y-102160762D01*
X206105944Y-102152907D01*
X206033025Y-101175795D01*
X206035827Y-101167290D01*
X206036406Y-101166666D01*
X206167976Y-101035096D01*
X206176248Y-101031670D01*
X206181656Y-101032996D01*
G37*
%TD.AperFunction*%
%TD*%
%TA.AperFunction,Conductor*%
%TO.N,/Acceleration*%
G36*
X206015779Y-100625867D02*
G01*
X206021877Y-100631729D01*
X206231523Y-101082532D01*
X206231904Y-101091479D01*
X206229187Y-101095739D01*
X206099339Y-101225587D01*
X206091066Y-101229014D01*
X206086132Y-101227923D01*
X205792736Y-101091479D01*
X205635328Y-101018276D01*
X205629273Y-101011681D01*
X205629439Y-101003225D01*
X205737436Y-100740214D01*
X205743746Y-100733864D01*
X206006825Y-100625840D01*
X206015779Y-100625867D01*
G37*
%TD.AperFunction*%
%TD*%
%TA.AperFunction,Conductor*%
%TO.N,Net-(U3A--)*%
G36*
X208992083Y-104804227D02*
G01*
X208993112Y-104805403D01*
X209483090Y-105447598D01*
X209485384Y-105456254D01*
X209481660Y-105463351D01*
X208897472Y-105994640D01*
X208889046Y-105997671D01*
X208881728Y-105994640D01*
X208297539Y-105463351D01*
X208293724Y-105455249D01*
X208296107Y-105447601D01*
X208786088Y-104805402D01*
X208793831Y-104800904D01*
X208795390Y-104800800D01*
X208983810Y-104800800D01*
X208992083Y-104804227D01*
G37*
%TD.AperFunction*%
%TD*%
%TA.AperFunction,Conductor*%
%TO.N,Net-(U3A--)*%
G36*
X202998801Y-93851948D02*
G01*
X203006950Y-93855660D01*
X203009995Y-93862120D01*
X203046552Y-94140963D01*
X203044229Y-94149612D01*
X203036472Y-94154085D01*
X203036043Y-94154133D01*
X201897054Y-94260928D01*
X201888497Y-94258288D01*
X201887689Y-94257552D01*
X201758169Y-94128032D01*
X201754742Y-94119759D01*
X201757907Y-94111757D01*
X202029367Y-93822226D01*
X202037525Y-93818534D01*
X202038288Y-93818534D01*
X202998801Y-93851948D01*
G37*
%TD.AperFunction*%
%TD*%
%TA.AperFunction,Conductor*%
%TO.N,Net-(U1A--)*%
G36*
X206802256Y-104122041D02*
G01*
X206808915Y-104128029D01*
X206809536Y-104129619D01*
X206989427Y-104711734D01*
X206988596Y-104720650D01*
X206981703Y-104726366D01*
X206980653Y-104726638D01*
X205683336Y-104999038D01*
X205674535Y-104997385D01*
X205669482Y-104989992D01*
X205669232Y-104987588D01*
X205669232Y-104804626D01*
X205670354Y-104799626D01*
X206102285Y-103885855D01*
X206108919Y-103879840D01*
X206116759Y-103879823D01*
X206802256Y-104122041D01*
G37*
%TD.AperFunction*%
%TD*%
%TA.AperFunction,Conductor*%
%TO.N,Net-(U1A--)*%
G36*
X203910637Y-104615452D02*
G01*
X204292366Y-104798813D01*
X204298340Y-104805484D01*
X204299000Y-104809359D01*
X204299000Y-104994640D01*
X204295573Y-105002913D01*
X204292366Y-105005186D01*
X203910637Y-105188547D01*
X203901938Y-105189123D01*
X203297093Y-104991538D01*
X203057045Y-104913121D01*
X203050246Y-104907295D01*
X203049557Y-104898367D01*
X203055384Y-104891567D01*
X203057044Y-104890878D01*
X203901939Y-104614876D01*
X203910637Y-104615452D01*
G37*
%TD.AperFunction*%
%TD*%
%TA.AperFunction,Conductor*%
%TO.N,Net-(U1A--)*%
G36*
X205900430Y-104895231D02*
G01*
X206238009Y-105031637D01*
X207039222Y-105355384D01*
X207045609Y-105361661D01*
X207045687Y-105370615D01*
X207045655Y-105370694D01*
X206810048Y-105941845D01*
X206803725Y-105948186D01*
X206800910Y-105948962D01*
X206091569Y-106051734D01*
X206082890Y-106049529D01*
X206078760Y-106043758D01*
X205754035Y-105040563D01*
X205754747Y-105031637D01*
X205756890Y-105028690D01*
X205887775Y-104897805D01*
X205896047Y-104894379D01*
X205900430Y-104895231D01*
G37*
%TD.AperFunction*%
%TD*%
%TA.AperFunction,Conductor*%
%TO.N,/velocity*%
G36*
X208269922Y-107479980D02*
G01*
X208881112Y-107992838D01*
X208885246Y-108000781D01*
X208882554Y-108009322D01*
X208882112Y-108009819D01*
X208350077Y-108575236D01*
X208341912Y-108578913D01*
X208336024Y-108577528D01*
X207595768Y-108180309D01*
X207590098Y-108173377D01*
X207589600Y-108169999D01*
X207589600Y-107982863D01*
X207593027Y-107974590D01*
X207594290Y-107973495D01*
X208255398Y-107479569D01*
X208264077Y-107477364D01*
X208269922Y-107479980D01*
G37*
%TD.AperFunction*%
%TD*%
%TA.AperFunction,Conductor*%
%TO.N,/velocity*%
G36*
X205404199Y-107483508D02*
G01*
X206046397Y-107973488D01*
X206050896Y-107981231D01*
X206051000Y-107982790D01*
X206051000Y-108171209D01*
X206047573Y-108179482D01*
X206046397Y-108180511D01*
X205404201Y-108670490D01*
X205395545Y-108672784D01*
X205388448Y-108669060D01*
X204857159Y-108084872D01*
X204854128Y-108076446D01*
X204857159Y-108069128D01*
X204944139Y-107973488D01*
X205388449Y-107484938D01*
X205396550Y-107481124D01*
X205404199Y-107483508D01*
G37*
%TD.AperFunction*%
%TD*%
%TA.AperFunction,Conductor*%
%TO.N,/Vmid*%
G36*
X194013259Y-99545357D02*
G01*
X194584962Y-100088573D01*
X194588599Y-100096756D01*
X194586088Y-100104303D01*
X194108713Y-100709248D01*
X194100898Y-100713620D01*
X194099528Y-100713700D01*
X193910872Y-100713700D01*
X193902599Y-100710273D01*
X193901687Y-100709248D01*
X193424311Y-100104303D01*
X193421876Y-100095685D01*
X193425436Y-100088574D01*
X193997141Y-99545356D01*
X194005499Y-99542143D01*
X194013259Y-99545357D01*
G37*
%TD.AperFunction*%
%TD*%
%TA.AperFunction,Conductor*%
%TO.N,/Vmid*%
G36*
X194105290Y-100546227D02*
G01*
X194108007Y-100550487D01*
X194278530Y-101017494D01*
X194278149Y-101026441D01*
X194272051Y-101032303D01*
X194009711Y-101141915D01*
X194000756Y-101141942D01*
X194000689Y-101141915D01*
X193738348Y-101032303D01*
X193732036Y-101025951D01*
X193731869Y-101017497D01*
X193902393Y-100550486D01*
X193908449Y-100543891D01*
X193913383Y-100542800D01*
X194097017Y-100542800D01*
X194105290Y-100546227D01*
G37*
%TD.AperFunction*%
%TD*%
%TA.AperFunction,Conductor*%
%TO.N,/Vmid*%
G36*
X194102131Y-101599688D02*
G01*
X194105552Y-101607598D01*
X194129819Y-102389199D01*
X194126651Y-102397574D01*
X194125490Y-102398653D01*
X193553778Y-102861861D01*
X193545193Y-102864406D01*
X193537322Y-102860135D01*
X193535965Y-102858036D01*
X193183520Y-102158815D01*
X193182857Y-102149887D01*
X193186872Y-102144250D01*
X193902057Y-101598659D01*
X193909153Y-101596261D01*
X194093858Y-101596261D01*
X194102131Y-101599688D01*
G37*
%TD.AperFunction*%
%TD*%
%TA.AperFunction,Conductor*%
%TO.N,/Vmid*%
G36*
X194272051Y-101253296D02*
G01*
X194278363Y-101259648D01*
X194278530Y-101268105D01*
X194108007Y-101735113D01*
X194101951Y-101741709D01*
X194097017Y-101742800D01*
X193913383Y-101742800D01*
X193905110Y-101739373D01*
X193902393Y-101735113D01*
X193731869Y-101268102D01*
X193732250Y-101259158D01*
X193738347Y-101253296D01*
X194000690Y-101143683D01*
X194009644Y-101143657D01*
X194272051Y-101253296D01*
G37*
%TD.AperFunction*%
%TD*%
%TA.AperFunction,Conductor*%
%TO.N,/Vmid*%
G36*
X195820551Y-97959939D02*
G01*
X196351840Y-98544128D01*
X196354871Y-98552554D01*
X196351840Y-98559872D01*
X195820551Y-99144060D01*
X195812449Y-99147875D01*
X195804798Y-99145490D01*
X195600531Y-98989639D01*
X195162603Y-98655511D01*
X195158104Y-98647768D01*
X195158000Y-98646209D01*
X195158000Y-98457790D01*
X195161427Y-98449517D01*
X195162603Y-98448488D01*
X195804800Y-97958508D01*
X195813454Y-97956215D01*
X195820551Y-97959939D01*
G37*
%TD.AperFunction*%
%TD*%
%TA.AperFunction,Conductor*%
%TO.N,/Vmid*%
G36*
X194920523Y-98486709D02*
G01*
X194924225Y-98489206D01*
X195055106Y-98620087D01*
X195058533Y-98628360D01*
X195057964Y-98631963D01*
X194733239Y-99635159D01*
X194727431Y-99641975D01*
X194720430Y-99643135D01*
X194011089Y-99540362D01*
X194003393Y-99535784D01*
X194001951Y-99533245D01*
X193766344Y-98962094D01*
X193766357Y-98953139D01*
X193772696Y-98946817D01*
X194911569Y-98486631D01*
X194920523Y-98486709D01*
G37*
%TD.AperFunction*%
%TD*%
%TA.AperFunction,Conductor*%
%TO.N,/Vmid*%
G36*
X196745980Y-97255427D02*
G01*
X196749045Y-97260812D01*
X196937267Y-97999646D01*
X196935988Y-98008509D01*
X196933947Y-98011055D01*
X196367862Y-98543719D01*
X196359488Y-98546893D01*
X196351323Y-98543216D01*
X196350249Y-98541893D01*
X195897432Y-97892976D01*
X195895508Y-97884231D01*
X195898896Y-97877868D01*
X196543399Y-97255284D01*
X196551528Y-97252000D01*
X196737707Y-97252000D01*
X196745980Y-97255427D01*
G37*
%TD.AperFunction*%
%TD*%
%TA.AperFunction,Conductor*%
%TO.N,/Vmid*%
G36*
X194634545Y-93414928D02*
G01*
X195119021Y-94187455D01*
X195120513Y-94196284D01*
X195117382Y-94201944D01*
X194985938Y-94333388D01*
X194977766Y-94336815D01*
X194384911Y-94341948D01*
X194376609Y-94338592D01*
X194375451Y-94337270D01*
X194269670Y-94196284D01*
X193936857Y-93752708D01*
X193934634Y-93744035D01*
X193939195Y-93736328D01*
X193941161Y-93735136D01*
X194619585Y-93410589D01*
X194628526Y-93410111D01*
X194634545Y-93414928D01*
G37*
%TD.AperFunction*%
%TD*%
%TA.AperFunction,Conductor*%
%TO.N,/Vmid*%
G36*
X203910637Y-103345452D02*
G01*
X204292366Y-103528813D01*
X204298340Y-103535484D01*
X204299000Y-103539359D01*
X204299000Y-103724640D01*
X204295573Y-103732913D01*
X204292366Y-103735186D01*
X203910637Y-103918547D01*
X203901938Y-103919123D01*
X203297093Y-103721538D01*
X203057045Y-103643121D01*
X203050246Y-103637295D01*
X203049557Y-103628367D01*
X203055384Y-103621567D01*
X203057044Y-103620878D01*
X203901939Y-103344876D01*
X203910637Y-103345452D01*
G37*
%TD.AperFunction*%
%TD*%
%TA.AperFunction,Conductor*%
%TO.N,/Vmid*%
G36*
X204607641Y-103359050D02*
G01*
X204613503Y-103365148D01*
X204723115Y-103627489D01*
X204723142Y-103636444D01*
X204723115Y-103636511D01*
X204613503Y-103898851D01*
X204607151Y-103905163D01*
X204598694Y-103905329D01*
X204464947Y-103856493D01*
X204131687Y-103734806D01*
X204125091Y-103728750D01*
X204124000Y-103723816D01*
X204124000Y-103540183D01*
X204127427Y-103531910D01*
X204131687Y-103529193D01*
X204598697Y-103358669D01*
X204607641Y-103359050D01*
G37*
%TD.AperFunction*%
%TD*%
%TA.AperFunction,Conductor*%
%TO.N,Net-(U3B-+)*%
G36*
X200163298Y-91166585D02*
G01*
X200168048Y-91172106D01*
X200197224Y-91242290D01*
X200252567Y-91375421D01*
X200276691Y-91433451D01*
X200276702Y-91442406D01*
X200274133Y-91446243D01*
X200073960Y-91645086D01*
X200065675Y-91648485D01*
X200058802Y-91646225D01*
X199711301Y-91391773D01*
X199706650Y-91384120D01*
X199708773Y-91375421D01*
X199709933Y-91374067D01*
X199839406Y-91244594D01*
X199844875Y-91241510D01*
X200154448Y-91165237D01*
X200163298Y-91166585D01*
G37*
%TD.AperFunction*%
%TD*%
%TA.AperFunction,Conductor*%
%TO.N,Net-(U3B-+)*%
G36*
X198944637Y-91026452D02*
G01*
X199326366Y-91209813D01*
X199332340Y-91216484D01*
X199333000Y-91220359D01*
X199333000Y-91405640D01*
X199329573Y-91413913D01*
X199326366Y-91416186D01*
X198944637Y-91599547D01*
X198935938Y-91600123D01*
X198331093Y-91402538D01*
X198091045Y-91324121D01*
X198084246Y-91318295D01*
X198083557Y-91309367D01*
X198089384Y-91302567D01*
X198091044Y-91301878D01*
X198935939Y-91025876D01*
X198944637Y-91026452D01*
G37*
%TD.AperFunction*%
%TD*%
%TA.AperFunction,Conductor*%
%TO.N,Net-(R3-Pad2)*%
G36*
X198863079Y-104322076D02*
G01*
X198866045Y-104324230D01*
X198999528Y-104457713D01*
X199002873Y-104464600D01*
X199027488Y-104670934D01*
X199025065Y-104679555D01*
X199018511Y-104683718D01*
X198084273Y-104900162D01*
X198075440Y-104898691D01*
X198070340Y-104891829D01*
X197994601Y-104612744D01*
X197995742Y-104603862D01*
X198002271Y-104598555D01*
X198854152Y-104321377D01*
X198863079Y-104322076D01*
G37*
%TD.AperFunction*%
%TD*%
%TA.AperFunction,Conductor*%
%TO.N,Net-(R3-Pad2)*%
G36*
X200398016Y-100590543D02*
G01*
X200963913Y-101123031D01*
X200967590Y-101131195D01*
X200965760Y-101137841D01*
X200493449Y-101878590D01*
X200486112Y-101883724D01*
X200483584Y-101884000D01*
X200296416Y-101884000D01*
X200288143Y-101880573D01*
X200286551Y-101878590D01*
X199814239Y-101137841D01*
X199812680Y-101129023D01*
X199816084Y-101123033D01*
X200381983Y-100590543D01*
X200390356Y-100587370D01*
X200398016Y-100590543D01*
G37*
%TD.AperFunction*%
%TD*%
%TA.AperFunction,Conductor*%
%TO.N,Net-(U1B-+)*%
G36*
X198398016Y-100590543D02*
G01*
X198963913Y-101123031D01*
X198967590Y-101131195D01*
X198965760Y-101137841D01*
X198493449Y-101878590D01*
X198486112Y-101883724D01*
X198483584Y-101884000D01*
X198296416Y-101884000D01*
X198288143Y-101880573D01*
X198286551Y-101878590D01*
X197814239Y-101137841D01*
X197812680Y-101129023D01*
X197816084Y-101123033D01*
X198381983Y-100590543D01*
X198390356Y-100587370D01*
X198398016Y-100590543D01*
G37*
%TD.AperFunction*%
%TD*%
%TA.AperFunction,Conductor*%
%TO.N,Net-(U1B-+)*%
G36*
X198489447Y-101772054D02*
G01*
X198492424Y-101777114D01*
X198571330Y-102053385D01*
X198570307Y-102062281D01*
X198566116Y-102066621D01*
X198084059Y-102356941D01*
X198075204Y-102358273D01*
X198068002Y-102352955D01*
X197899692Y-102071089D01*
X197898393Y-102062231D01*
X197902768Y-102055695D01*
X198286896Y-101770927D01*
X198293864Y-101768627D01*
X198481174Y-101768627D01*
X198489447Y-101772054D01*
G37*
%TD.AperFunction*%
%TD*%
%TA.AperFunction,Conductor*%
%TO.N,Net-(U1B-+)*%
G36*
X198366016Y-98558543D02*
G01*
X198931913Y-99091031D01*
X198935590Y-99099195D01*
X198933760Y-99105841D01*
X198461449Y-99846590D01*
X198454112Y-99851724D01*
X198451584Y-99852000D01*
X198264416Y-99852000D01*
X198256143Y-99848573D01*
X198254551Y-99846590D01*
X197782239Y-99105841D01*
X197780680Y-99097023D01*
X197784084Y-99091033D01*
X198349983Y-98558543D01*
X198358356Y-98555370D01*
X198366016Y-98558543D01*
G37*
%TD.AperFunction*%
%TD*%
%TA.AperFunction,Conductor*%
%TO.N,Net-(U1B-+)*%
G36*
X198460088Y-99287427D02*
G01*
X198461483Y-99289111D01*
X198911786Y-99949900D01*
X198913614Y-99958667D01*
X198911081Y-99964010D01*
X198397961Y-100575512D01*
X198390018Y-100579646D01*
X198381477Y-100576954D01*
X198380980Y-100576512D01*
X197815869Y-100044764D01*
X197812192Y-100036599D01*
X197813833Y-100030259D01*
X197857304Y-99957223D01*
X198254598Y-99289716D01*
X198261774Y-99284359D01*
X198264652Y-99284000D01*
X198451815Y-99284000D01*
X198460088Y-99287427D01*
G37*
%TD.AperFunction*%
%TD*%
%TA.AperFunction,Conductor*%
%TO.N,/v_sharktooth*%
G36*
X199185982Y-103348895D02*
G01*
X199193566Y-103352302D01*
X199323406Y-103482142D01*
X199326833Y-103490415D01*
X199323406Y-103498688D01*
X199323244Y-103498847D01*
X199053065Y-103758745D01*
X199044727Y-103762011D01*
X199043409Y-103761911D01*
X198120516Y-103638996D01*
X198112768Y-103634507D01*
X198110463Y-103625853D01*
X198114952Y-103618105D01*
X198118052Y-103616406D01*
X198896727Y-103332827D01*
X198901415Y-103332142D01*
X199185982Y-103348895D01*
G37*
%TD.AperFunction*%
%TD*%
%TA.AperFunction,Conductor*%
%TO.N,/v_sharktooth*%
G36*
X199036063Y-92455393D02*
G01*
X199037065Y-92456254D01*
X199307244Y-92716152D01*
X199310831Y-92724357D01*
X199307565Y-92732695D01*
X199307406Y-92732857D01*
X199177566Y-92862697D01*
X199169981Y-92866104D01*
X198885417Y-92882857D01*
X198880725Y-92882171D01*
X198102057Y-92598595D01*
X198095456Y-92592544D01*
X198095067Y-92583597D01*
X198101118Y-92576996D01*
X198104512Y-92576004D01*
X199027410Y-92453088D01*
X199036063Y-92455393D01*
G37*
%TD.AperFunction*%
%TD*%
%TA.AperFunction,Conductor*%
%TO.N,Net-(U3B-+)*%
G36*
X202313551Y-107484939D02*
G01*
X202844840Y-108069128D01*
X202847871Y-108077554D01*
X202844840Y-108084872D01*
X202313551Y-108669060D01*
X202305449Y-108672875D01*
X202297798Y-108670490D01*
X202093531Y-108514639D01*
X201655603Y-108180511D01*
X201651104Y-108172768D01*
X201651000Y-108171209D01*
X201651000Y-107982790D01*
X201654427Y-107974517D01*
X201655603Y-107973488D01*
X202297800Y-107483508D01*
X202306454Y-107481215D01*
X202313551Y-107484939D01*
G37*
%TD.AperFunction*%
%TD*%
%TA.AperFunction,Conductor*%
%TO.N,Net-(U3B-+)*%
G36*
X201356792Y-107517036D02*
G01*
X202097439Y-107973572D01*
X202102684Y-107980830D01*
X202103000Y-107983532D01*
X202103000Y-108170697D01*
X202099573Y-108178970D01*
X202097737Y-108180467D01*
X201356887Y-108668557D01*
X201348093Y-108670247D01*
X201341929Y-108666805D01*
X200884303Y-108180467D01*
X200809543Y-108101016D01*
X200806370Y-108092644D01*
X200809543Y-108084983D01*
X201342134Y-107518977D01*
X201350297Y-107515301D01*
X201356792Y-107517036D01*
G37*
%TD.AperFunction*%
%TD*%
%TA.AperFunction,Conductor*%
%TO.N,/velocity*%
G36*
X203968956Y-106971175D02*
G01*
X205011341Y-107373308D01*
X205017826Y-107379483D01*
X205018503Y-107386970D01*
X204853140Y-108071770D01*
X204847867Y-108079008D01*
X204846016Y-108079925D01*
X204262207Y-108307503D01*
X204253255Y-108307315D01*
X204247057Y-108300851D01*
X204246943Y-108300547D01*
X203822936Y-107116834D01*
X203823373Y-107107890D01*
X203825675Y-107104619D01*
X203956476Y-106973818D01*
X203964748Y-106970392D01*
X203968956Y-106971175D01*
G37*
%TD.AperFunction*%
%TD*%
%TA.AperFunction,Conductor*%
%TO.N,/velocity*%
G36*
X203732099Y-106465295D02*
G01*
X203738427Y-106471629D01*
X203738422Y-106480584D01*
X203735888Y-106484374D01*
X203606842Y-106613421D01*
X203471383Y-106748879D01*
X203463110Y-106752306D01*
X203457879Y-106751071D01*
X202909455Y-106476859D01*
X202903588Y-106470095D01*
X202903866Y-106461948D01*
X203018832Y-106182148D01*
X203025145Y-106175800D01*
X203034098Y-106175775D01*
X203732099Y-106465295D01*
G37*
%TD.AperFunction*%
%TD*%
%TA.AperFunction,Conductor*%
%TO.N,/v_sharktooth*%
G36*
X197715446Y-103514544D02*
G01*
X198040953Y-103620878D01*
X198047753Y-103626705D01*
X198048442Y-103635633D01*
X198042615Y-103642433D01*
X198040953Y-103643122D01*
X197196061Y-103919123D01*
X197187362Y-103918547D01*
X196805634Y-103735186D01*
X196799660Y-103728515D01*
X196799000Y-103724640D01*
X196799000Y-103539359D01*
X196802427Y-103531086D01*
X196805632Y-103528814D01*
X197187362Y-103345451D01*
X197196060Y-103344876D01*
X197715446Y-103514544D01*
G37*
%TD.AperFunction*%
%TD*%
%TA.AperFunction,Conductor*%
%TO.N,/v_sharktooth*%
G36*
X196210285Y-102577081D02*
G01*
X196210324Y-102577158D01*
X196692562Y-103529507D01*
X196693824Y-103534792D01*
X196693824Y-103718706D01*
X196690397Y-103726979D01*
X196682124Y-103730406D01*
X196680638Y-103730311D01*
X195634232Y-103596294D01*
X195626461Y-103591844D01*
X195624019Y-103584814D01*
X195616575Y-102877213D01*
X195619914Y-102868907D01*
X195622907Y-102866697D01*
X196194526Y-102572042D01*
X196203449Y-102571299D01*
X196210285Y-102577081D01*
G37*
%TD.AperFunction*%
%TD*%
%TA.AperFunction,Conductor*%
%TO.N,/Vmid*%
G36*
X193389967Y-91231085D02*
G01*
X193715118Y-91576636D01*
X193922455Y-91796982D01*
X193925629Y-91805356D01*
X193922455Y-91813018D01*
X193389969Y-92378913D01*
X193381804Y-92382590D01*
X193375158Y-92380760D01*
X192634410Y-91908449D01*
X192629276Y-91901112D01*
X192629000Y-91898584D01*
X192629000Y-91711415D01*
X192632427Y-91703142D01*
X192634406Y-91701552D01*
X193375160Y-91229238D01*
X193383976Y-91227680D01*
X193389967Y-91231085D01*
G37*
%TD.AperFunction*%
%TD*%
%TA.AperFunction,Conductor*%
%TO.N,/Vmid*%
G36*
X190418669Y-90133511D02*
G01*
X190424994Y-90139850D01*
X190425275Y-90140603D01*
X190792337Y-91237400D01*
X190906494Y-91578504D01*
X190905870Y-91587437D01*
X190903672Y-91590490D01*
X190772490Y-91721672D01*
X190764217Y-91725099D01*
X190760504Y-91724494D01*
X190350972Y-91587437D01*
X190096235Y-91502184D01*
X189322603Y-91243275D01*
X189315845Y-91237400D01*
X189315221Y-91228467D01*
X189315497Y-91227726D01*
X189633438Y-90457783D01*
X189639759Y-90451448D01*
X190409715Y-90133502D01*
X190418669Y-90133511D01*
G37*
%TD.AperFunction*%
%TD*%
%TA.AperFunction,Conductor*%
%TO.N,/Vmid*%
G36*
X193936872Y-91811159D02*
G01*
X194521060Y-92342447D01*
X194524875Y-92350549D01*
X194522490Y-92358200D01*
X194032512Y-93000397D01*
X194024769Y-93004896D01*
X194023210Y-93005000D01*
X193834790Y-93005000D01*
X193826517Y-93001573D01*
X193825488Y-93000397D01*
X193335508Y-92358198D01*
X193333215Y-92349544D01*
X193336938Y-92342448D01*
X193921128Y-91811158D01*
X193929554Y-91808128D01*
X193936872Y-91811159D01*
G37*
%TD.AperFunction*%
%TD*%
%TA.AperFunction,Conductor*%
%TO.N,/Vmid*%
G36*
X194031483Y-92545427D02*
G01*
X194032512Y-92546603D01*
X194522490Y-93188798D01*
X194524784Y-93197454D01*
X194521060Y-93204551D01*
X193936872Y-93735840D01*
X193928446Y-93738871D01*
X193921128Y-93735840D01*
X193336939Y-93204551D01*
X193333124Y-93196449D01*
X193335507Y-93188801D01*
X193825488Y-92546602D01*
X193833231Y-92542104D01*
X193834790Y-92542000D01*
X194023210Y-92542000D01*
X194031483Y-92545427D01*
G37*
%TD.AperFunction*%
%TD*%
%TA.AperFunction,Conductor*%
%TO.N,VCC*%
G36*
X194628450Y-89660089D02*
G01*
X194632799Y-89665240D01*
X195058353Y-90647373D01*
X195058497Y-90656327D01*
X195055890Y-90660298D01*
X194784560Y-90931628D01*
X194776287Y-90935055D01*
X194771182Y-90933883D01*
X193690384Y-90409806D01*
X193684435Y-90403112D01*
X193684673Y-90394816D01*
X193925937Y-89810003D01*
X193932260Y-89803662D01*
X193934330Y-89803019D01*
X194619650Y-89658444D01*
X194628450Y-89660089D01*
G37*
%TD.AperFunction*%
%TD*%
%TA.AperFunction,Conductor*%
%TO.N,VCC*%
G36*
X197235421Y-94823881D02*
G01*
X198019422Y-95109400D01*
X198026023Y-95115451D01*
X198026412Y-95124398D01*
X198020361Y-95130999D01*
X198017702Y-95131869D01*
X197095426Y-95315453D01*
X197088074Y-95314523D01*
X196713274Y-95134390D01*
X196707302Y-95127718D01*
X196707797Y-95118777D01*
X196710066Y-95115575D01*
X196978220Y-94847421D01*
X196985498Y-94844038D01*
X197230430Y-94823218D01*
X197235421Y-94823881D01*
G37*
%TD.AperFunction*%
%TD*%
%TA.AperFunction,Conductor*%
%TO.N,VCC*%
G36*
X193309006Y-89283925D02*
G01*
X193721205Y-89630433D01*
X193920232Y-89797742D01*
X193924359Y-89805689D01*
X193921659Y-89814227D01*
X193921221Y-89814719D01*
X193389469Y-90379449D01*
X193381303Y-90383123D01*
X193375431Y-90381744D01*
X193296354Y-90339432D01*
X192514953Y-89921332D01*
X192509276Y-89914409D01*
X192510158Y-89905497D01*
X192512198Y-89902747D01*
X192783118Y-89631827D01*
X192784795Y-89630438D01*
X193294897Y-89283209D01*
X193303663Y-89281388D01*
X193309006Y-89283925D01*
G37*
%TD.AperFunction*%
%TD*%
%TA.AperFunction,Conductor*%
%TO.N,VCC*%
G36*
X192554122Y-89297331D02*
G01*
X192560061Y-89302835D01*
X192612548Y-89406158D01*
X192712289Y-89602501D01*
X192713558Y-89607800D01*
X192713558Y-89984668D01*
X192710131Y-89992941D01*
X192701858Y-89996368D01*
X192695979Y-89994784D01*
X192172013Y-89690288D01*
X192166582Y-89683168D01*
X192167069Y-89675728D01*
X192275148Y-89412507D01*
X192281456Y-89406160D01*
X192545169Y-89297320D01*
X192554122Y-89297331D01*
G37*
%TD.AperFunction*%
%TD*%
%TA.AperFunction,Conductor*%
%TO.N,/v_sharktooth*%
G36*
X202649446Y-92465544D02*
G01*
X202974953Y-92571878D01*
X202981753Y-92577705D01*
X202982442Y-92586633D01*
X202976615Y-92593433D01*
X202974953Y-92594122D01*
X202130061Y-92870123D01*
X202121362Y-92869547D01*
X201739634Y-92686186D01*
X201733660Y-92679515D01*
X201733000Y-92675640D01*
X201733000Y-92490359D01*
X201736427Y-92482086D01*
X201739632Y-92479814D01*
X202121362Y-92296451D01*
X202130060Y-92295876D01*
X202649446Y-92465544D01*
G37*
%TD.AperFunction*%
%TD*%
%TA.AperFunction,Conductor*%
%TO.N,/v_sharktooth*%
G36*
X198944637Y-92296452D02*
G01*
X199326366Y-92479813D01*
X199332340Y-92486484D01*
X199333000Y-92490359D01*
X199333000Y-92675640D01*
X199329573Y-92683913D01*
X199326366Y-92686186D01*
X198944637Y-92869547D01*
X198935938Y-92870123D01*
X198331093Y-92672538D01*
X198091045Y-92594121D01*
X198084246Y-92588295D01*
X198083557Y-92579367D01*
X198089384Y-92572567D01*
X198091044Y-92571878D01*
X198935939Y-92295876D01*
X198944637Y-92296452D01*
G37*
%TD.AperFunction*%
%TD*%
%TA.AperFunction,Conductor*%
%TO.N,Net-(U4A-InA)*%
G36*
X197277846Y-93272376D02*
G01*
X198129727Y-93549555D01*
X198136533Y-93555373D01*
X198137398Y-93563744D01*
X198061659Y-93842828D01*
X198056185Y-93849915D01*
X198047726Y-93851162D01*
X197113487Y-93634718D01*
X197106201Y-93629512D01*
X197104510Y-93621936D01*
X197129126Y-93415599D01*
X197132470Y-93408714D01*
X197265955Y-93275229D01*
X197274227Y-93271803D01*
X197277846Y-93272376D01*
G37*
%TD.AperFunction*%
%TD*%
%TA.AperFunction,Conductor*%
%TO.N,Net-(U4A-InA)*%
G36*
X202067641Y-89262050D02*
G01*
X202073503Y-89268148D01*
X202183115Y-89530489D01*
X202183142Y-89539444D01*
X202183115Y-89539511D01*
X202073503Y-89801851D01*
X202067151Y-89808163D01*
X202058694Y-89808329D01*
X201924947Y-89759493D01*
X201591687Y-89637806D01*
X201585091Y-89631750D01*
X201584000Y-89626816D01*
X201584000Y-89443183D01*
X201587427Y-89434910D01*
X201591687Y-89432193D01*
X202058697Y-89261669D01*
X202067641Y-89262050D01*
G37*
%TD.AperFunction*%
%TD*%
%TA.AperFunction,Conductor*%
%TO.N,Net-(U4A-InA)*%
G36*
X204607641Y-86087050D02*
G01*
X204613503Y-86093148D01*
X204723115Y-86355489D01*
X204723142Y-86364444D01*
X204723115Y-86364511D01*
X204613503Y-86626851D01*
X204607151Y-86633163D01*
X204598694Y-86633329D01*
X204464947Y-86584493D01*
X204131687Y-86462806D01*
X204125091Y-86456750D01*
X204124000Y-86451816D01*
X204124000Y-86268183D01*
X204127427Y-86259910D01*
X204131687Y-86257193D01*
X204598697Y-86086669D01*
X204607641Y-86087050D01*
G37*
%TD.AperFunction*%
%TD*%
%TA.AperFunction,Conductor*%
%TO.N,Net-(U4A-InB)*%
G36*
X204119982Y-94839895D02*
G01*
X204127566Y-94843302D01*
X204257406Y-94973142D01*
X204260833Y-94981415D01*
X204257406Y-94989688D01*
X204257244Y-94989847D01*
X203987065Y-95249745D01*
X203978727Y-95253011D01*
X203977409Y-95252911D01*
X203054516Y-95129996D01*
X203046768Y-95125507D01*
X203044463Y-95116853D01*
X203048952Y-95109105D01*
X203052052Y-95107406D01*
X203830727Y-94823827D01*
X203835415Y-94823142D01*
X204119982Y-94839895D01*
G37*
%TD.AperFunction*%
%TD*%
%TA.AperFunction,Conductor*%
%TO.N,Net-(U4A-InB)*%
G36*
X205219174Y-89424439D02*
G01*
X205382804Y-89491629D01*
X205482184Y-89532436D01*
X205488536Y-89538748D01*
X205488563Y-89538815D01*
X205596559Y-89801824D01*
X205596532Y-89810779D01*
X205590670Y-89816877D01*
X205139867Y-90026523D01*
X205130920Y-90026904D01*
X205126660Y-90024187D01*
X204996812Y-89894339D01*
X204993385Y-89886066D01*
X204994474Y-89881136D01*
X205204124Y-89430327D01*
X205210718Y-89424273D01*
X205219174Y-89424439D01*
G37*
%TD.AperFunction*%
%TD*%
%TA.AperFunction,Conductor*%
%TO.N,Net-(U4A-InB)*%
G36*
X205375704Y-84823632D02*
G01*
X205375761Y-84823764D01*
X205485115Y-85085489D01*
X205485142Y-85094444D01*
X205485115Y-85094511D01*
X205375284Y-85357375D01*
X205368932Y-85363687D01*
X205361053Y-85364049D01*
X204900232Y-85222538D01*
X204893330Y-85216833D01*
X204891967Y-85211353D01*
X204891967Y-85027688D01*
X204895394Y-85019415D01*
X204899022Y-85016949D01*
X205360322Y-84817535D01*
X205369276Y-84817398D01*
X205375704Y-84823632D01*
G37*
%TD.AperFunction*%
%TD*%
%TA.AperFunction,Conductor*%
%TO.N,Net-(U3B-+)*%
G36*
X201388037Y-106903787D02*
G01*
X201391360Y-106910505D01*
X201501890Y-107734727D01*
X201499593Y-107743382D01*
X201495538Y-107746741D01*
X200812220Y-108089376D01*
X200803289Y-108090021D01*
X200797257Y-108085431D01*
X200570255Y-107746741D01*
X200406363Y-107502212D01*
X200404605Y-107493434D01*
X200409060Y-107486343D01*
X201186879Y-106902702D01*
X201193901Y-106900360D01*
X201379764Y-106900360D01*
X201388037Y-106903787D01*
G37*
%TD.AperFunction*%
%TD*%
%TA.AperFunction,Conductor*%
%TO.N,Net-(U3B-+)*%
G36*
X200554779Y-93234467D02*
G01*
X200560877Y-93240329D01*
X200770523Y-93691132D01*
X200770904Y-93700079D01*
X200768187Y-93704339D01*
X200638339Y-93834187D01*
X200630066Y-93837614D01*
X200625132Y-93836523D01*
X200331736Y-93700079D01*
X200174328Y-93626876D01*
X200168273Y-93620281D01*
X200168439Y-93611825D01*
X200276436Y-93348814D01*
X200282746Y-93342464D01*
X200545825Y-93234440D01*
X200554779Y-93234467D01*
G37*
%TD.AperFunction*%
%TD*%
%TA.AperFunction,Conductor*%
%TO.N,/Acceleration*%
G36*
X207209991Y-98991636D02*
G01*
X207213253Y-98997951D01*
X207307689Y-99554388D01*
X207305695Y-99563118D01*
X207298112Y-99567881D01*
X207296193Y-99568046D01*
X207012367Y-99568992D01*
X207007817Y-99568088D01*
X207007716Y-99568046D01*
X206745313Y-99458408D01*
X206739001Y-99452056D01*
X206739028Y-99443101D01*
X206739785Y-99441603D01*
X207008192Y-98993892D01*
X207015385Y-98988559D01*
X207018227Y-98988209D01*
X207201718Y-98988209D01*
X207209991Y-98991636D01*
G37*
%TD.AperFunction*%
%TD*%
%TA.AperFunction,Conductor*%
%TO.N,/Acceleration*%
G36*
X211103122Y-85376717D02*
G01*
X211103139Y-85376734D01*
X211691166Y-85966146D01*
X211694583Y-85974423D01*
X211691146Y-85982692D01*
X211690536Y-85983259D01*
X210621912Y-86907277D01*
X210613412Y-86910096D01*
X210605986Y-86906700D01*
X210474942Y-86775656D01*
X210471661Y-86769227D01*
X210346230Y-85983259D01*
X210251159Y-85387530D01*
X210253239Y-85378822D01*
X210260869Y-85374134D01*
X210262695Y-85373988D01*
X211094846Y-85373297D01*
X211103122Y-85376717D01*
G37*
%TD.AperFunction*%
%TD*%
M02*
