M48
; DRILL file {KiCad 8.0.3} date 2025-09-08T17:35:16+0800
; FORMAT={-:-/ absolute / inch / decimal}
; #@! TF.CreationDate,2025-09-08T17:35:16+08:00
; #@! TF.GenerationSoftware,Kicad,Pcbnew,8.0.3
; #@! TF.FileFunction,Plated,1,2,PTH
FMAT,2
INCH
; #@! TA.AperFunction,Plated,PTH,ViaDrill
T1C0.0118
; #@! TA.AperFunction,Plated,PTH,ComponentDrill
T2C0.0394
%
G90
G05
T1
X7.57Y-3.52
X7.57Y-3.665
X7.638Y-3.982
X7.696Y-3.804
X7.826Y-4.988
X7.858Y-3.33
X7.858Y-3.374
X7.858Y-3.416
X7.872Y-4.65
X7.885Y-3.6
X7.885Y-3.675
X7.918Y-3.33
X7.918Y-3.374
X7.918Y-3.416
X7.96Y-3.525
X8.0Y-4.374
X8.018Y-3.948
X8.06Y-3.4
X8.06Y-4.08
X8.062Y-4.468
X8.09Y-3.35
X8.09Y-3.525
X8.1Y-3.966
X8.15Y-3.92
X8.25Y-4.55
T2
X7.466Y-3.2612
X7.466Y-3.3612
X7.466Y-3.4612
X7.466Y-3.5612
X7.466Y-3.6612
X8.311Y-3.2612
X8.311Y-3.3612
X8.311Y-3.4612
X8.311Y-3.5612
X8.311Y-3.6612
M30
