%TF.GenerationSoftware,KiCad,Pcbnew,8.0.3*%
%TF.CreationDate,2025-09-08T17:35:16+08:00*%
%TF.ProjectId,balancing-car,62616c61-6e63-4696-9e67-2d6361722e6b,rev?*%
%TF.SameCoordinates,Original*%
%TF.FileFunction,Legend,Top*%
%TF.FilePolarity,Positive*%
%FSLAX46Y46*%
G04 Gerber Fmt 4.6, Leading zero omitted, Abs format (unit mm)*
G04 Created by KiCad (PCBNEW 8.0.3) date 2025-09-08 17:35:16*
%MOMM*%
%LPD*%
G01*
G04 APERTURE LIST*
G04 Aperture macros list*
%AMRoundRect*
0 Rectangle with rounded corners*
0 $1 Rounding radius*
0 $2 $3 $4 $5 $6 $7 $8 $9 X,Y pos of 4 corners*
0 Add a 4 corners polygon primitive as box body*
4,1,4,$2,$3,$4,$5,$6,$7,$8,$9,$2,$3,0*
0 Add four circle primitives for the rounded corners*
1,1,$1+$1,$2,$3*
1,1,$1+$1,$4,$5*
1,1,$1+$1,$6,$7*
1,1,$1+$1,$8,$9*
0 Add four rect primitives between the rounded corners*
20,1,$1+$1,$2,$3,$4,$5,0*
20,1,$1+$1,$4,$5,$6,$7,0*
20,1,$1+$1,$6,$7,$8,$9,0*
20,1,$1+$1,$8,$9,$2,$3,0*%
G04 Aperture macros list end*
%ADD10C,0.200000*%
%ADD11C,0.150000*%
%ADD12C,0.120000*%
%ADD13RoundRect,0.150000X-0.650000X-0.150000X0.650000X-0.150000X0.650000X0.150000X-0.650000X0.150000X0*%
%ADD14R,2.410000X3.100000*%
%ADD15R,2.350000X2.350000*%
%ADD16RoundRect,0.075000X-0.075000X-0.362500X0.075000X-0.362500X0.075000X0.362500X-0.075000X0.362500X0*%
%ADD17RoundRect,0.075000X-0.362500X-0.075000X0.362500X-0.075000X0.362500X0.075000X-0.362500X0.075000X0*%
%ADD18RoundRect,0.150000X0.825000X0.150000X-0.825000X0.150000X-0.825000X-0.150000X0.825000X-0.150000X0*%
%ADD19RoundRect,0.250000X-0.450000X0.350000X-0.450000X-0.350000X0.450000X-0.350000X0.450000X0.350000X0*%
%ADD20RoundRect,0.250000X0.450000X-0.350000X0.450000X0.350000X-0.450000X0.350000X-0.450000X-0.350000X0*%
%ADD21RoundRect,0.250000X-0.350000X-0.450000X0.350000X-0.450000X0.350000X0.450000X-0.350000X0.450000X0*%
%ADD22RoundRect,0.250000X0.350000X0.450000X-0.350000X0.450000X-0.350000X-0.450000X0.350000X-0.450000X0*%
%ADD23O,1.700000X1.700000*%
%ADD24R,1.700000X1.700000*%
%ADD25RoundRect,0.250000X-0.475000X0.337500X-0.475000X-0.337500X0.475000X-0.337500X0.475000X0.337500X0*%
%ADD26RoundRect,0.250000X-0.337500X-0.475000X0.337500X-0.475000X0.337500X0.475000X-0.337500X0.475000X0*%
G04 APERTURE END LIST*
D10*
X208101278Y-125733560D02*
X208577468Y-125733560D01*
X208006040Y-126019275D02*
X208339373Y-125019275D01*
X208339373Y-125019275D02*
X208672706Y-126019275D01*
X209148897Y-126019275D02*
X209053659Y-125971656D01*
X209053659Y-125971656D02*
X209006040Y-125876417D01*
X209006040Y-125876417D02*
X209006040Y-125019275D01*
X209958421Y-126019275D02*
X209958421Y-125019275D01*
X209958421Y-125971656D02*
X209863183Y-126019275D01*
X209863183Y-126019275D02*
X209672707Y-126019275D01*
X209672707Y-126019275D02*
X209577469Y-125971656D01*
X209577469Y-125971656D02*
X209529850Y-125924036D01*
X209529850Y-125924036D02*
X209482231Y-125828798D01*
X209482231Y-125828798D02*
X209482231Y-125543084D01*
X209482231Y-125543084D02*
X209529850Y-125447846D01*
X209529850Y-125447846D02*
X209577469Y-125400227D01*
X209577469Y-125400227D02*
X209672707Y-125352608D01*
X209672707Y-125352608D02*
X209863183Y-125352608D01*
X209863183Y-125352608D02*
X209958421Y-125400227D01*
X210815564Y-125971656D02*
X210720326Y-126019275D01*
X210720326Y-126019275D02*
X210529850Y-126019275D01*
X210529850Y-126019275D02*
X210434612Y-125971656D01*
X210434612Y-125971656D02*
X210386993Y-125876417D01*
X210386993Y-125876417D02*
X210386993Y-125495465D01*
X210386993Y-125495465D02*
X210434612Y-125400227D01*
X210434612Y-125400227D02*
X210529850Y-125352608D01*
X210529850Y-125352608D02*
X210720326Y-125352608D01*
X210720326Y-125352608D02*
X210815564Y-125400227D01*
X210815564Y-125400227D02*
X210863183Y-125495465D01*
X210863183Y-125495465D02*
X210863183Y-125590703D01*
X210863183Y-125590703D02*
X210386993Y-125685941D01*
X211291755Y-125352608D02*
X211291755Y-126019275D01*
X211291755Y-125447846D02*
X211339374Y-125400227D01*
X211339374Y-125400227D02*
X211434612Y-125352608D01*
X211434612Y-125352608D02*
X211577469Y-125352608D01*
X211577469Y-125352608D02*
X211672707Y-125400227D01*
X211672707Y-125400227D02*
X211720326Y-125495465D01*
X211720326Y-125495465D02*
X211720326Y-126019275D01*
X210244136Y-127629219D02*
X210244136Y-126629219D01*
X210244136Y-126629219D02*
X210815564Y-127629219D01*
X210815564Y-127629219D02*
X210815564Y-126629219D01*
X211720326Y-126962552D02*
X211720326Y-127772076D01*
X211720326Y-127772076D02*
X211672707Y-127867314D01*
X211672707Y-127867314D02*
X211625088Y-127914933D01*
X211625088Y-127914933D02*
X211529850Y-127962552D01*
X211529850Y-127962552D02*
X211386993Y-127962552D01*
X211386993Y-127962552D02*
X211291755Y-127914933D01*
X211720326Y-127581600D02*
X211625088Y-127629219D01*
X211625088Y-127629219D02*
X211434612Y-127629219D01*
X211434612Y-127629219D02*
X211339374Y-127581600D01*
X211339374Y-127581600D02*
X211291755Y-127533980D01*
X211291755Y-127533980D02*
X211244136Y-127438742D01*
X211244136Y-127438742D02*
X211244136Y-127153028D01*
X211244136Y-127153028D02*
X211291755Y-127057790D01*
X211291755Y-127057790D02*
X211339374Y-127010171D01*
X211339374Y-127010171D02*
X211434612Y-126962552D01*
X211434612Y-126962552D02*
X211625088Y-126962552D01*
X211625088Y-126962552D02*
X211720326Y-127010171D01*
X189272606Y-125139865D02*
X189415463Y-125187484D01*
X189415463Y-125187484D02*
X189463082Y-125235103D01*
X189463082Y-125235103D02*
X189510701Y-125330341D01*
X189510701Y-125330341D02*
X189510701Y-125473198D01*
X189510701Y-125473198D02*
X189463082Y-125568436D01*
X189463082Y-125568436D02*
X189415463Y-125616056D01*
X189415463Y-125616056D02*
X189320225Y-125663675D01*
X189320225Y-125663675D02*
X188939273Y-125663675D01*
X188939273Y-125663675D02*
X188939273Y-124663675D01*
X188939273Y-124663675D02*
X189272606Y-124663675D01*
X189272606Y-124663675D02*
X189367844Y-124711294D01*
X189367844Y-124711294D02*
X189415463Y-124758913D01*
X189415463Y-124758913D02*
X189463082Y-124854151D01*
X189463082Y-124854151D02*
X189463082Y-124949389D01*
X189463082Y-124949389D02*
X189415463Y-125044627D01*
X189415463Y-125044627D02*
X189367844Y-125092246D01*
X189367844Y-125092246D02*
X189272606Y-125139865D01*
X189272606Y-125139865D02*
X188939273Y-125139865D01*
X190367844Y-125663675D02*
X190367844Y-125139865D01*
X190367844Y-125139865D02*
X190320225Y-125044627D01*
X190320225Y-125044627D02*
X190224987Y-124997008D01*
X190224987Y-124997008D02*
X190034511Y-124997008D01*
X190034511Y-124997008D02*
X189939273Y-125044627D01*
X190367844Y-125616056D02*
X190272606Y-125663675D01*
X190272606Y-125663675D02*
X190034511Y-125663675D01*
X190034511Y-125663675D02*
X189939273Y-125616056D01*
X189939273Y-125616056D02*
X189891654Y-125520817D01*
X189891654Y-125520817D02*
X189891654Y-125425579D01*
X189891654Y-125425579D02*
X189939273Y-125330341D01*
X189939273Y-125330341D02*
X190034511Y-125282722D01*
X190034511Y-125282722D02*
X190272606Y-125282722D01*
X190272606Y-125282722D02*
X190367844Y-125235103D01*
X190986892Y-125663675D02*
X190891654Y-125616056D01*
X190891654Y-125616056D02*
X190844035Y-125520817D01*
X190844035Y-125520817D02*
X190844035Y-124663675D01*
X191796416Y-125663675D02*
X191796416Y-125139865D01*
X191796416Y-125139865D02*
X191748797Y-125044627D01*
X191748797Y-125044627D02*
X191653559Y-124997008D01*
X191653559Y-124997008D02*
X191463083Y-124997008D01*
X191463083Y-124997008D02*
X191367845Y-125044627D01*
X191796416Y-125616056D02*
X191701178Y-125663675D01*
X191701178Y-125663675D02*
X191463083Y-125663675D01*
X191463083Y-125663675D02*
X191367845Y-125616056D01*
X191367845Y-125616056D02*
X191320226Y-125520817D01*
X191320226Y-125520817D02*
X191320226Y-125425579D01*
X191320226Y-125425579D02*
X191367845Y-125330341D01*
X191367845Y-125330341D02*
X191463083Y-125282722D01*
X191463083Y-125282722D02*
X191701178Y-125282722D01*
X191701178Y-125282722D02*
X191796416Y-125235103D01*
X192272607Y-124997008D02*
X192272607Y-125663675D01*
X192272607Y-125092246D02*
X192320226Y-125044627D01*
X192320226Y-125044627D02*
X192415464Y-124997008D01*
X192415464Y-124997008D02*
X192558321Y-124997008D01*
X192558321Y-124997008D02*
X192653559Y-125044627D01*
X192653559Y-125044627D02*
X192701178Y-125139865D01*
X192701178Y-125139865D02*
X192701178Y-125663675D01*
X193605940Y-125616056D02*
X193510702Y-125663675D01*
X193510702Y-125663675D02*
X193320226Y-125663675D01*
X193320226Y-125663675D02*
X193224988Y-125616056D01*
X193224988Y-125616056D02*
X193177369Y-125568436D01*
X193177369Y-125568436D02*
X193129750Y-125473198D01*
X193129750Y-125473198D02*
X193129750Y-125187484D01*
X193129750Y-125187484D02*
X193177369Y-125092246D01*
X193177369Y-125092246D02*
X193224988Y-125044627D01*
X193224988Y-125044627D02*
X193320226Y-124997008D01*
X193320226Y-124997008D02*
X193510702Y-124997008D01*
X193510702Y-124997008D02*
X193605940Y-125044627D01*
X194034512Y-125663675D02*
X194034512Y-124997008D01*
X194034512Y-124663675D02*
X193986893Y-124711294D01*
X193986893Y-124711294D02*
X194034512Y-124758913D01*
X194034512Y-124758913D02*
X194082131Y-124711294D01*
X194082131Y-124711294D02*
X194034512Y-124663675D01*
X194034512Y-124663675D02*
X194034512Y-124758913D01*
X194510702Y-124997008D02*
X194510702Y-125663675D01*
X194510702Y-125092246D02*
X194558321Y-125044627D01*
X194558321Y-125044627D02*
X194653559Y-124997008D01*
X194653559Y-124997008D02*
X194796416Y-124997008D01*
X194796416Y-124997008D02*
X194891654Y-125044627D01*
X194891654Y-125044627D02*
X194939273Y-125139865D01*
X194939273Y-125139865D02*
X194939273Y-125663675D01*
X195844035Y-124997008D02*
X195844035Y-125806532D01*
X195844035Y-125806532D02*
X195796416Y-125901770D01*
X195796416Y-125901770D02*
X195748797Y-125949389D01*
X195748797Y-125949389D02*
X195653559Y-125997008D01*
X195653559Y-125997008D02*
X195510702Y-125997008D01*
X195510702Y-125997008D02*
X195415464Y-125949389D01*
X195844035Y-125616056D02*
X195748797Y-125663675D01*
X195748797Y-125663675D02*
X195558321Y-125663675D01*
X195558321Y-125663675D02*
X195463083Y-125616056D01*
X195463083Y-125616056D02*
X195415464Y-125568436D01*
X195415464Y-125568436D02*
X195367845Y-125473198D01*
X195367845Y-125473198D02*
X195367845Y-125187484D01*
X195367845Y-125187484D02*
X195415464Y-125092246D01*
X195415464Y-125092246D02*
X195463083Y-125044627D01*
X195463083Y-125044627D02*
X195558321Y-124997008D01*
X195558321Y-124997008D02*
X195748797Y-124997008D01*
X195748797Y-124997008D02*
X195844035Y-125044627D01*
X189510701Y-127178380D02*
X189463082Y-127226000D01*
X189463082Y-127226000D02*
X189320225Y-127273619D01*
X189320225Y-127273619D02*
X189224987Y-127273619D01*
X189224987Y-127273619D02*
X189082130Y-127226000D01*
X189082130Y-127226000D02*
X188986892Y-127130761D01*
X188986892Y-127130761D02*
X188939273Y-127035523D01*
X188939273Y-127035523D02*
X188891654Y-126845047D01*
X188891654Y-126845047D02*
X188891654Y-126702190D01*
X188891654Y-126702190D02*
X188939273Y-126511714D01*
X188939273Y-126511714D02*
X188986892Y-126416476D01*
X188986892Y-126416476D02*
X189082130Y-126321238D01*
X189082130Y-126321238D02*
X189224987Y-126273619D01*
X189224987Y-126273619D02*
X189320225Y-126273619D01*
X189320225Y-126273619D02*
X189463082Y-126321238D01*
X189463082Y-126321238D02*
X189510701Y-126368857D01*
X190367844Y-127273619D02*
X190367844Y-126749809D01*
X190367844Y-126749809D02*
X190320225Y-126654571D01*
X190320225Y-126654571D02*
X190224987Y-126606952D01*
X190224987Y-126606952D02*
X190034511Y-126606952D01*
X190034511Y-126606952D02*
X189939273Y-126654571D01*
X190367844Y-127226000D02*
X190272606Y-127273619D01*
X190272606Y-127273619D02*
X190034511Y-127273619D01*
X190034511Y-127273619D02*
X189939273Y-127226000D01*
X189939273Y-127226000D02*
X189891654Y-127130761D01*
X189891654Y-127130761D02*
X189891654Y-127035523D01*
X189891654Y-127035523D02*
X189939273Y-126940285D01*
X189939273Y-126940285D02*
X190034511Y-126892666D01*
X190034511Y-126892666D02*
X190272606Y-126892666D01*
X190272606Y-126892666D02*
X190367844Y-126845047D01*
X190844035Y-127273619D02*
X190844035Y-126606952D01*
X190844035Y-126797428D02*
X190891654Y-126702190D01*
X190891654Y-126702190D02*
X190939273Y-126654571D01*
X190939273Y-126654571D02*
X191034511Y-126606952D01*
X191034511Y-126606952D02*
X191129749Y-126606952D01*
D11*
X199584895Y-81729019D02*
X199584895Y-82538542D01*
X199584895Y-82538542D02*
X199632514Y-82633780D01*
X199632514Y-82633780D02*
X199680133Y-82681400D01*
X199680133Y-82681400D02*
X199775371Y-82729019D01*
X199775371Y-82729019D02*
X199965847Y-82729019D01*
X199965847Y-82729019D02*
X200061085Y-82681400D01*
X200061085Y-82681400D02*
X200108704Y-82633780D01*
X200108704Y-82633780D02*
X200156323Y-82538542D01*
X200156323Y-82538542D02*
X200156323Y-81729019D01*
X201061085Y-82062352D02*
X201061085Y-82729019D01*
X200822990Y-81681400D02*
X200584895Y-82395685D01*
X200584895Y-82395685D02*
X201203942Y-82395685D01*
X200050495Y-126302419D02*
X200050495Y-127111942D01*
X200050495Y-127111942D02*
X200098114Y-127207180D01*
X200098114Y-127207180D02*
X200145733Y-127254800D01*
X200145733Y-127254800D02*
X200240971Y-127302419D01*
X200240971Y-127302419D02*
X200431447Y-127302419D01*
X200431447Y-127302419D02*
X200526685Y-127254800D01*
X200526685Y-127254800D02*
X200574304Y-127207180D01*
X200574304Y-127207180D02*
X200621923Y-127111942D01*
X200621923Y-127111942D02*
X200621923Y-126302419D01*
X201574304Y-126302419D02*
X201098114Y-126302419D01*
X201098114Y-126302419D02*
X201050495Y-126778609D01*
X201050495Y-126778609D02*
X201098114Y-126730990D01*
X201098114Y-126730990D02*
X201193352Y-126683371D01*
X201193352Y-126683371D02*
X201431447Y-126683371D01*
X201431447Y-126683371D02*
X201526685Y-126730990D01*
X201526685Y-126730990D02*
X201574304Y-126778609D01*
X201574304Y-126778609D02*
X201621923Y-126873847D01*
X201621923Y-126873847D02*
X201621923Y-127111942D01*
X201621923Y-127111942D02*
X201574304Y-127207180D01*
X201574304Y-127207180D02*
X201526685Y-127254800D01*
X201526685Y-127254800D02*
X201431447Y-127302419D01*
X201431447Y-127302419D02*
X201193352Y-127302419D01*
X201193352Y-127302419D02*
X201098114Y-127254800D01*
X201098114Y-127254800D02*
X201050495Y-127207180D01*
X199771095Y-96072819D02*
X199771095Y-96882342D01*
X199771095Y-96882342D02*
X199818714Y-96977580D01*
X199818714Y-96977580D02*
X199866333Y-97025200D01*
X199866333Y-97025200D02*
X199961571Y-97072819D01*
X199961571Y-97072819D02*
X200152047Y-97072819D01*
X200152047Y-97072819D02*
X200247285Y-97025200D01*
X200247285Y-97025200D02*
X200294904Y-96977580D01*
X200294904Y-96977580D02*
X200342523Y-96882342D01*
X200342523Y-96882342D02*
X200342523Y-96072819D01*
X200723476Y-96072819D02*
X201342523Y-96072819D01*
X201342523Y-96072819D02*
X201009190Y-96453771D01*
X201009190Y-96453771D02*
X201152047Y-96453771D01*
X201152047Y-96453771D02*
X201247285Y-96501390D01*
X201247285Y-96501390D02*
X201294904Y-96549009D01*
X201294904Y-96549009D02*
X201342523Y-96644247D01*
X201342523Y-96644247D02*
X201342523Y-96882342D01*
X201342523Y-96882342D02*
X201294904Y-96977580D01*
X201294904Y-96977580D02*
X201247285Y-97025200D01*
X201247285Y-97025200D02*
X201152047Y-97072819D01*
X201152047Y-97072819D02*
X200866333Y-97072819D01*
X200866333Y-97072819D02*
X200771095Y-97025200D01*
X200771095Y-97025200D02*
X200723476Y-96977580D01*
X199847295Y-119186819D02*
X199847295Y-119996342D01*
X199847295Y-119996342D02*
X199894914Y-120091580D01*
X199894914Y-120091580D02*
X199942533Y-120139200D01*
X199942533Y-120139200D02*
X200037771Y-120186819D01*
X200037771Y-120186819D02*
X200228247Y-120186819D01*
X200228247Y-120186819D02*
X200323485Y-120139200D01*
X200323485Y-120139200D02*
X200371104Y-120091580D01*
X200371104Y-120091580D02*
X200418723Y-119996342D01*
X200418723Y-119996342D02*
X200418723Y-119186819D01*
X200847295Y-119282057D02*
X200894914Y-119234438D01*
X200894914Y-119234438D02*
X200990152Y-119186819D01*
X200990152Y-119186819D02*
X201228247Y-119186819D01*
X201228247Y-119186819D02*
X201323485Y-119234438D01*
X201323485Y-119234438D02*
X201371104Y-119282057D01*
X201371104Y-119282057D02*
X201418723Y-119377295D01*
X201418723Y-119377295D02*
X201418723Y-119472533D01*
X201418723Y-119472533D02*
X201371104Y-119615390D01*
X201371104Y-119615390D02*
X200799676Y-120186819D01*
X200799676Y-120186819D02*
X201418723Y-120186819D01*
X199787095Y-103721819D02*
X199787095Y-104531342D01*
X199787095Y-104531342D02*
X199834714Y-104626580D01*
X199834714Y-104626580D02*
X199882333Y-104674200D01*
X199882333Y-104674200D02*
X199977571Y-104721819D01*
X199977571Y-104721819D02*
X200168047Y-104721819D01*
X200168047Y-104721819D02*
X200263285Y-104674200D01*
X200263285Y-104674200D02*
X200310904Y-104626580D01*
X200310904Y-104626580D02*
X200358523Y-104531342D01*
X200358523Y-104531342D02*
X200358523Y-103721819D01*
X201358523Y-104721819D02*
X200787095Y-104721819D01*
X201072809Y-104721819D02*
X201072809Y-103721819D01*
X201072809Y-103721819D02*
X200977571Y-103864676D01*
X200977571Y-103864676D02*
X200882333Y-103959914D01*
X200882333Y-103959914D02*
X200787095Y-104007533D01*
X208911619Y-103766857D02*
X208435428Y-104100190D01*
X208911619Y-104338285D02*
X207911619Y-104338285D01*
X207911619Y-104338285D02*
X207911619Y-103957333D01*
X207911619Y-103957333D02*
X207959238Y-103862095D01*
X207959238Y-103862095D02*
X208006857Y-103814476D01*
X208006857Y-103814476D02*
X208102095Y-103766857D01*
X208102095Y-103766857D02*
X208244952Y-103766857D01*
X208244952Y-103766857D02*
X208340190Y-103814476D01*
X208340190Y-103814476D02*
X208387809Y-103862095D01*
X208387809Y-103862095D02*
X208435428Y-103957333D01*
X208435428Y-103957333D02*
X208435428Y-104338285D01*
X208911619Y-102814476D02*
X208911619Y-103385904D01*
X208911619Y-103100190D02*
X207911619Y-103100190D01*
X207911619Y-103100190D02*
X208054476Y-103195428D01*
X208054476Y-103195428D02*
X208149714Y-103290666D01*
X208149714Y-103290666D02*
X208197333Y-103385904D01*
X208244952Y-101957333D02*
X208911619Y-101957333D01*
X207864000Y-102195428D02*
X208578285Y-102433523D01*
X208578285Y-102433523D02*
X208578285Y-101814476D01*
X199607819Y-109735857D02*
X199131628Y-110069190D01*
X199607819Y-110307285D02*
X198607819Y-110307285D01*
X198607819Y-110307285D02*
X198607819Y-109926333D01*
X198607819Y-109926333D02*
X198655438Y-109831095D01*
X198655438Y-109831095D02*
X198703057Y-109783476D01*
X198703057Y-109783476D02*
X198798295Y-109735857D01*
X198798295Y-109735857D02*
X198941152Y-109735857D01*
X198941152Y-109735857D02*
X199036390Y-109783476D01*
X199036390Y-109783476D02*
X199084009Y-109831095D01*
X199084009Y-109831095D02*
X199131628Y-109926333D01*
X199131628Y-109926333D02*
X199131628Y-110307285D01*
X199607819Y-108783476D02*
X199607819Y-109354904D01*
X199607819Y-109069190D02*
X198607819Y-109069190D01*
X198607819Y-109069190D02*
X198750676Y-109164428D01*
X198750676Y-109164428D02*
X198845914Y-109259666D01*
X198845914Y-109259666D02*
X198893533Y-109354904D01*
X198607819Y-108450142D02*
X198607819Y-107831095D01*
X198607819Y-107831095D02*
X198988771Y-108164428D01*
X198988771Y-108164428D02*
X198988771Y-108021571D01*
X198988771Y-108021571D02*
X199036390Y-107926333D01*
X199036390Y-107926333D02*
X199084009Y-107878714D01*
X199084009Y-107878714D02*
X199179247Y-107831095D01*
X199179247Y-107831095D02*
X199417342Y-107831095D01*
X199417342Y-107831095D02*
X199512580Y-107878714D01*
X199512580Y-107878714D02*
X199560200Y-107926333D01*
X199560200Y-107926333D02*
X199607819Y-108021571D01*
X199607819Y-108021571D02*
X199607819Y-108307285D01*
X199607819Y-108307285D02*
X199560200Y-108402523D01*
X199560200Y-108402523D02*
X199512580Y-108450142D01*
X203335142Y-110182819D02*
X203001809Y-109706628D01*
X202763714Y-110182819D02*
X202763714Y-109182819D01*
X202763714Y-109182819D02*
X203144666Y-109182819D01*
X203144666Y-109182819D02*
X203239904Y-109230438D01*
X203239904Y-109230438D02*
X203287523Y-109278057D01*
X203287523Y-109278057D02*
X203335142Y-109373295D01*
X203335142Y-109373295D02*
X203335142Y-109516152D01*
X203335142Y-109516152D02*
X203287523Y-109611390D01*
X203287523Y-109611390D02*
X203239904Y-109659009D01*
X203239904Y-109659009D02*
X203144666Y-109706628D01*
X203144666Y-109706628D02*
X202763714Y-109706628D01*
X204287523Y-110182819D02*
X203716095Y-110182819D01*
X204001809Y-110182819D02*
X204001809Y-109182819D01*
X204001809Y-109182819D02*
X203906571Y-109325676D01*
X203906571Y-109325676D02*
X203811333Y-109420914D01*
X203811333Y-109420914D02*
X203716095Y-109468533D01*
X204668476Y-109278057D02*
X204716095Y-109230438D01*
X204716095Y-109230438D02*
X204811333Y-109182819D01*
X204811333Y-109182819D02*
X205049428Y-109182819D01*
X205049428Y-109182819D02*
X205144666Y-109230438D01*
X205144666Y-109230438D02*
X205192285Y-109278057D01*
X205192285Y-109278057D02*
X205239904Y-109373295D01*
X205239904Y-109373295D02*
X205239904Y-109468533D01*
X205239904Y-109468533D02*
X205192285Y-109611390D01*
X205192285Y-109611390D02*
X204620857Y-110182819D01*
X204620857Y-110182819D02*
X205239904Y-110182819D01*
X211274819Y-107576857D02*
X210798628Y-107910190D01*
X211274819Y-108148285D02*
X210274819Y-108148285D01*
X210274819Y-108148285D02*
X210274819Y-107767333D01*
X210274819Y-107767333D02*
X210322438Y-107672095D01*
X210322438Y-107672095D02*
X210370057Y-107624476D01*
X210370057Y-107624476D02*
X210465295Y-107576857D01*
X210465295Y-107576857D02*
X210608152Y-107576857D01*
X210608152Y-107576857D02*
X210703390Y-107624476D01*
X210703390Y-107624476D02*
X210751009Y-107672095D01*
X210751009Y-107672095D02*
X210798628Y-107767333D01*
X210798628Y-107767333D02*
X210798628Y-108148285D01*
X211274819Y-106624476D02*
X211274819Y-107195904D01*
X211274819Y-106910190D02*
X210274819Y-106910190D01*
X210274819Y-106910190D02*
X210417676Y-107005428D01*
X210417676Y-107005428D02*
X210512914Y-107100666D01*
X210512914Y-107100666D02*
X210560533Y-107195904D01*
X211274819Y-105672095D02*
X211274819Y-106243523D01*
X211274819Y-105957809D02*
X210274819Y-105957809D01*
X210274819Y-105957809D02*
X210417676Y-106053047D01*
X210417676Y-106053047D02*
X210512914Y-106148285D01*
X210512914Y-106148285D02*
X210560533Y-106243523D01*
X211274819Y-111386857D02*
X210798628Y-111720190D01*
X211274819Y-111958285D02*
X210274819Y-111958285D01*
X210274819Y-111958285D02*
X210274819Y-111577333D01*
X210274819Y-111577333D02*
X210322438Y-111482095D01*
X210322438Y-111482095D02*
X210370057Y-111434476D01*
X210370057Y-111434476D02*
X210465295Y-111386857D01*
X210465295Y-111386857D02*
X210608152Y-111386857D01*
X210608152Y-111386857D02*
X210703390Y-111434476D01*
X210703390Y-111434476D02*
X210751009Y-111482095D01*
X210751009Y-111482095D02*
X210798628Y-111577333D01*
X210798628Y-111577333D02*
X210798628Y-111958285D01*
X211274819Y-110434476D02*
X211274819Y-111005904D01*
X211274819Y-110720190D02*
X210274819Y-110720190D01*
X210274819Y-110720190D02*
X210417676Y-110815428D01*
X210417676Y-110815428D02*
X210512914Y-110910666D01*
X210512914Y-110910666D02*
X210560533Y-111005904D01*
X210274819Y-109815428D02*
X210274819Y-109720190D01*
X210274819Y-109720190D02*
X210322438Y-109624952D01*
X210322438Y-109624952D02*
X210370057Y-109577333D01*
X210370057Y-109577333D02*
X210465295Y-109529714D01*
X210465295Y-109529714D02*
X210655771Y-109482095D01*
X210655771Y-109482095D02*
X210893866Y-109482095D01*
X210893866Y-109482095D02*
X211084342Y-109529714D01*
X211084342Y-109529714D02*
X211179580Y-109577333D01*
X211179580Y-109577333D02*
X211227200Y-109624952D01*
X211227200Y-109624952D02*
X211274819Y-109720190D01*
X211274819Y-109720190D02*
X211274819Y-109815428D01*
X211274819Y-109815428D02*
X211227200Y-109910666D01*
X211227200Y-109910666D02*
X211179580Y-109958285D01*
X211179580Y-109958285D02*
X211084342Y-110005904D01*
X211084342Y-110005904D02*
X210893866Y-110053523D01*
X210893866Y-110053523D02*
X210655771Y-110053523D01*
X210655771Y-110053523D02*
X210465295Y-110005904D01*
X210465295Y-110005904D02*
X210370057Y-109958285D01*
X210370057Y-109958285D02*
X210322438Y-109910666D01*
X210322438Y-109910666D02*
X210274819Y-109815428D01*
X203439733Y-113027619D02*
X203106400Y-112551428D01*
X202868305Y-113027619D02*
X202868305Y-112027619D01*
X202868305Y-112027619D02*
X203249257Y-112027619D01*
X203249257Y-112027619D02*
X203344495Y-112075238D01*
X203344495Y-112075238D02*
X203392114Y-112122857D01*
X203392114Y-112122857D02*
X203439733Y-112218095D01*
X203439733Y-112218095D02*
X203439733Y-112360952D01*
X203439733Y-112360952D02*
X203392114Y-112456190D01*
X203392114Y-112456190D02*
X203344495Y-112503809D01*
X203344495Y-112503809D02*
X203249257Y-112551428D01*
X203249257Y-112551428D02*
X202868305Y-112551428D01*
X203915924Y-113027619D02*
X204106400Y-113027619D01*
X204106400Y-113027619D02*
X204201638Y-112980000D01*
X204201638Y-112980000D02*
X204249257Y-112932380D01*
X204249257Y-112932380D02*
X204344495Y-112789523D01*
X204344495Y-112789523D02*
X204392114Y-112599047D01*
X204392114Y-112599047D02*
X204392114Y-112218095D01*
X204392114Y-112218095D02*
X204344495Y-112122857D01*
X204344495Y-112122857D02*
X204296876Y-112075238D01*
X204296876Y-112075238D02*
X204201638Y-112027619D01*
X204201638Y-112027619D02*
X204011162Y-112027619D01*
X204011162Y-112027619D02*
X203915924Y-112075238D01*
X203915924Y-112075238D02*
X203868305Y-112122857D01*
X203868305Y-112122857D02*
X203820686Y-112218095D01*
X203820686Y-112218095D02*
X203820686Y-112456190D01*
X203820686Y-112456190D02*
X203868305Y-112551428D01*
X203868305Y-112551428D02*
X203915924Y-112599047D01*
X203915924Y-112599047D02*
X204011162Y-112646666D01*
X204011162Y-112646666D02*
X204201638Y-112646666D01*
X204201638Y-112646666D02*
X204296876Y-112599047D01*
X204296876Y-112599047D02*
X204344495Y-112551428D01*
X204344495Y-112551428D02*
X204392114Y-112456190D01*
X194460019Y-113577666D02*
X193983828Y-113910999D01*
X194460019Y-114149094D02*
X193460019Y-114149094D01*
X193460019Y-114149094D02*
X193460019Y-113768142D01*
X193460019Y-113768142D02*
X193507638Y-113672904D01*
X193507638Y-113672904D02*
X193555257Y-113625285D01*
X193555257Y-113625285D02*
X193650495Y-113577666D01*
X193650495Y-113577666D02*
X193793352Y-113577666D01*
X193793352Y-113577666D02*
X193888590Y-113625285D01*
X193888590Y-113625285D02*
X193936209Y-113672904D01*
X193936209Y-113672904D02*
X193983828Y-113768142D01*
X193983828Y-113768142D02*
X193983828Y-114149094D01*
X193888590Y-113006237D02*
X193840971Y-113101475D01*
X193840971Y-113101475D02*
X193793352Y-113149094D01*
X193793352Y-113149094D02*
X193698114Y-113196713D01*
X193698114Y-113196713D02*
X193650495Y-113196713D01*
X193650495Y-113196713D02*
X193555257Y-113149094D01*
X193555257Y-113149094D02*
X193507638Y-113101475D01*
X193507638Y-113101475D02*
X193460019Y-113006237D01*
X193460019Y-113006237D02*
X193460019Y-112815761D01*
X193460019Y-112815761D02*
X193507638Y-112720523D01*
X193507638Y-112720523D02*
X193555257Y-112672904D01*
X193555257Y-112672904D02*
X193650495Y-112625285D01*
X193650495Y-112625285D02*
X193698114Y-112625285D01*
X193698114Y-112625285D02*
X193793352Y-112672904D01*
X193793352Y-112672904D02*
X193840971Y-112720523D01*
X193840971Y-112720523D02*
X193888590Y-112815761D01*
X193888590Y-112815761D02*
X193888590Y-113006237D01*
X193888590Y-113006237D02*
X193936209Y-113101475D01*
X193936209Y-113101475D02*
X193983828Y-113149094D01*
X193983828Y-113149094D02*
X194079066Y-113196713D01*
X194079066Y-113196713D02*
X194269542Y-113196713D01*
X194269542Y-113196713D02*
X194364780Y-113149094D01*
X194364780Y-113149094D02*
X194412400Y-113101475D01*
X194412400Y-113101475D02*
X194460019Y-113006237D01*
X194460019Y-113006237D02*
X194460019Y-112815761D01*
X194460019Y-112815761D02*
X194412400Y-112720523D01*
X194412400Y-112720523D02*
X194364780Y-112672904D01*
X194364780Y-112672904D02*
X194269542Y-112625285D01*
X194269542Y-112625285D02*
X194079066Y-112625285D01*
X194079066Y-112625285D02*
X193983828Y-112672904D01*
X193983828Y-112672904D02*
X193936209Y-112720523D01*
X193936209Y-112720523D02*
X193888590Y-112815761D01*
X205991619Y-122213666D02*
X205515428Y-122546999D01*
X205991619Y-122785094D02*
X204991619Y-122785094D01*
X204991619Y-122785094D02*
X204991619Y-122404142D01*
X204991619Y-122404142D02*
X205039238Y-122308904D01*
X205039238Y-122308904D02*
X205086857Y-122261285D01*
X205086857Y-122261285D02*
X205182095Y-122213666D01*
X205182095Y-122213666D02*
X205324952Y-122213666D01*
X205324952Y-122213666D02*
X205420190Y-122261285D01*
X205420190Y-122261285D02*
X205467809Y-122308904D01*
X205467809Y-122308904D02*
X205515428Y-122404142D01*
X205515428Y-122404142D02*
X205515428Y-122785094D01*
X204991619Y-121880332D02*
X204991619Y-121213666D01*
X204991619Y-121213666D02*
X205991619Y-121642237D01*
X206284533Y-114653219D02*
X205951200Y-114177028D01*
X205713105Y-114653219D02*
X205713105Y-113653219D01*
X205713105Y-113653219D02*
X206094057Y-113653219D01*
X206094057Y-113653219D02*
X206189295Y-113700838D01*
X206189295Y-113700838D02*
X206236914Y-113748457D01*
X206236914Y-113748457D02*
X206284533Y-113843695D01*
X206284533Y-113843695D02*
X206284533Y-113986552D01*
X206284533Y-113986552D02*
X206236914Y-114081790D01*
X206236914Y-114081790D02*
X206189295Y-114129409D01*
X206189295Y-114129409D02*
X206094057Y-114177028D01*
X206094057Y-114177028D02*
X205713105Y-114177028D01*
X207141676Y-113653219D02*
X206951200Y-113653219D01*
X206951200Y-113653219D02*
X206855962Y-113700838D01*
X206855962Y-113700838D02*
X206808343Y-113748457D01*
X206808343Y-113748457D02*
X206713105Y-113891314D01*
X206713105Y-113891314D02*
X206665486Y-114081790D01*
X206665486Y-114081790D02*
X206665486Y-114462742D01*
X206665486Y-114462742D02*
X206713105Y-114557980D01*
X206713105Y-114557980D02*
X206760724Y-114605600D01*
X206760724Y-114605600D02*
X206855962Y-114653219D01*
X206855962Y-114653219D02*
X207046438Y-114653219D01*
X207046438Y-114653219D02*
X207141676Y-114605600D01*
X207141676Y-114605600D02*
X207189295Y-114557980D01*
X207189295Y-114557980D02*
X207236914Y-114462742D01*
X207236914Y-114462742D02*
X207236914Y-114224647D01*
X207236914Y-114224647D02*
X207189295Y-114129409D01*
X207189295Y-114129409D02*
X207141676Y-114081790D01*
X207141676Y-114081790D02*
X207046438Y-114034171D01*
X207046438Y-114034171D02*
X206855962Y-114034171D01*
X206855962Y-114034171D02*
X206760724Y-114081790D01*
X206760724Y-114081790D02*
X206713105Y-114129409D01*
X206713105Y-114129409D02*
X206665486Y-114224647D01*
X197953333Y-97330419D02*
X197620000Y-96854228D01*
X197381905Y-97330419D02*
X197381905Y-96330419D01*
X197381905Y-96330419D02*
X197762857Y-96330419D01*
X197762857Y-96330419D02*
X197858095Y-96378038D01*
X197858095Y-96378038D02*
X197905714Y-96425657D01*
X197905714Y-96425657D02*
X197953333Y-96520895D01*
X197953333Y-96520895D02*
X197953333Y-96663752D01*
X197953333Y-96663752D02*
X197905714Y-96758990D01*
X197905714Y-96758990D02*
X197858095Y-96806609D01*
X197858095Y-96806609D02*
X197762857Y-96854228D01*
X197762857Y-96854228D02*
X197381905Y-96854228D01*
X198858095Y-96330419D02*
X198381905Y-96330419D01*
X198381905Y-96330419D02*
X198334286Y-96806609D01*
X198334286Y-96806609D02*
X198381905Y-96758990D01*
X198381905Y-96758990D02*
X198477143Y-96711371D01*
X198477143Y-96711371D02*
X198715238Y-96711371D01*
X198715238Y-96711371D02*
X198810476Y-96758990D01*
X198810476Y-96758990D02*
X198858095Y-96806609D01*
X198858095Y-96806609D02*
X198905714Y-96901847D01*
X198905714Y-96901847D02*
X198905714Y-97139942D01*
X198905714Y-97139942D02*
X198858095Y-97235180D01*
X198858095Y-97235180D02*
X198810476Y-97282800D01*
X198810476Y-97282800D02*
X198715238Y-97330419D01*
X198715238Y-97330419D02*
X198477143Y-97330419D01*
X198477143Y-97330419D02*
X198381905Y-97282800D01*
X198381905Y-97282800D02*
X198334286Y-97235180D01*
X202271333Y-101165819D02*
X201938000Y-100689628D01*
X201699905Y-101165819D02*
X201699905Y-100165819D01*
X201699905Y-100165819D02*
X202080857Y-100165819D01*
X202080857Y-100165819D02*
X202176095Y-100213438D01*
X202176095Y-100213438D02*
X202223714Y-100261057D01*
X202223714Y-100261057D02*
X202271333Y-100356295D01*
X202271333Y-100356295D02*
X202271333Y-100499152D01*
X202271333Y-100499152D02*
X202223714Y-100594390D01*
X202223714Y-100594390D02*
X202176095Y-100642009D01*
X202176095Y-100642009D02*
X202080857Y-100689628D01*
X202080857Y-100689628D02*
X201699905Y-100689628D01*
X203128476Y-100499152D02*
X203128476Y-101165819D01*
X202890381Y-100118200D02*
X202652286Y-100832485D01*
X202652286Y-100832485D02*
X203271333Y-100832485D01*
X191603333Y-105610819D02*
X191270000Y-105134628D01*
X191031905Y-105610819D02*
X191031905Y-104610819D01*
X191031905Y-104610819D02*
X191412857Y-104610819D01*
X191412857Y-104610819D02*
X191508095Y-104658438D01*
X191508095Y-104658438D02*
X191555714Y-104706057D01*
X191555714Y-104706057D02*
X191603333Y-104801295D01*
X191603333Y-104801295D02*
X191603333Y-104944152D01*
X191603333Y-104944152D02*
X191555714Y-105039390D01*
X191555714Y-105039390D02*
X191508095Y-105087009D01*
X191508095Y-105087009D02*
X191412857Y-105134628D01*
X191412857Y-105134628D02*
X191031905Y-105134628D01*
X191936667Y-104610819D02*
X192555714Y-104610819D01*
X192555714Y-104610819D02*
X192222381Y-104991771D01*
X192222381Y-104991771D02*
X192365238Y-104991771D01*
X192365238Y-104991771D02*
X192460476Y-105039390D01*
X192460476Y-105039390D02*
X192508095Y-105087009D01*
X192508095Y-105087009D02*
X192555714Y-105182247D01*
X192555714Y-105182247D02*
X192555714Y-105420342D01*
X192555714Y-105420342D02*
X192508095Y-105515580D01*
X192508095Y-105515580D02*
X192460476Y-105563200D01*
X192460476Y-105563200D02*
X192365238Y-105610819D01*
X192365238Y-105610819D02*
X192079524Y-105610819D01*
X192079524Y-105610819D02*
X191984286Y-105563200D01*
X191984286Y-105563200D02*
X191936667Y-105515580D01*
X192605819Y-94908666D02*
X192129628Y-95241999D01*
X192605819Y-95480094D02*
X191605819Y-95480094D01*
X191605819Y-95480094D02*
X191605819Y-95099142D01*
X191605819Y-95099142D02*
X191653438Y-95003904D01*
X191653438Y-95003904D02*
X191701057Y-94956285D01*
X191701057Y-94956285D02*
X191796295Y-94908666D01*
X191796295Y-94908666D02*
X191939152Y-94908666D01*
X191939152Y-94908666D02*
X192034390Y-94956285D01*
X192034390Y-94956285D02*
X192082009Y-95003904D01*
X192082009Y-95003904D02*
X192129628Y-95099142D01*
X192129628Y-95099142D02*
X192129628Y-95480094D01*
X191701057Y-94527713D02*
X191653438Y-94480094D01*
X191653438Y-94480094D02*
X191605819Y-94384856D01*
X191605819Y-94384856D02*
X191605819Y-94146761D01*
X191605819Y-94146761D02*
X191653438Y-94051523D01*
X191653438Y-94051523D02*
X191701057Y-94003904D01*
X191701057Y-94003904D02*
X191796295Y-93956285D01*
X191796295Y-93956285D02*
X191891533Y-93956285D01*
X191891533Y-93956285D02*
X192034390Y-94003904D01*
X192034390Y-94003904D02*
X192605819Y-94575332D01*
X192605819Y-94575332D02*
X192605819Y-93956285D01*
X192605819Y-91098666D02*
X192129628Y-91431999D01*
X192605819Y-91670094D02*
X191605819Y-91670094D01*
X191605819Y-91670094D02*
X191605819Y-91289142D01*
X191605819Y-91289142D02*
X191653438Y-91193904D01*
X191653438Y-91193904D02*
X191701057Y-91146285D01*
X191701057Y-91146285D02*
X191796295Y-91098666D01*
X191796295Y-91098666D02*
X191939152Y-91098666D01*
X191939152Y-91098666D02*
X192034390Y-91146285D01*
X192034390Y-91146285D02*
X192082009Y-91193904D01*
X192082009Y-91193904D02*
X192129628Y-91289142D01*
X192129628Y-91289142D02*
X192129628Y-91670094D01*
X192605819Y-90146285D02*
X192605819Y-90717713D01*
X192605819Y-90431999D02*
X191605819Y-90431999D01*
X191605819Y-90431999D02*
X191748676Y-90527237D01*
X191748676Y-90527237D02*
X191843914Y-90622475D01*
X191843914Y-90622475D02*
X191891533Y-90717713D01*
X189252266Y-95060419D02*
X189252266Y-95774704D01*
X189252266Y-95774704D02*
X189204647Y-95917561D01*
X189204647Y-95917561D02*
X189109409Y-96012800D01*
X189109409Y-96012800D02*
X188966552Y-96060419D01*
X188966552Y-96060419D02*
X188871314Y-96060419D01*
X189680838Y-95155657D02*
X189728457Y-95108038D01*
X189728457Y-95108038D02*
X189823695Y-95060419D01*
X189823695Y-95060419D02*
X190061790Y-95060419D01*
X190061790Y-95060419D02*
X190157028Y-95108038D01*
X190157028Y-95108038D02*
X190204647Y-95155657D01*
X190204647Y-95155657D02*
X190252266Y-95250895D01*
X190252266Y-95250895D02*
X190252266Y-95346133D01*
X190252266Y-95346133D02*
X190204647Y-95488990D01*
X190204647Y-95488990D02*
X189633219Y-96060419D01*
X189633219Y-96060419D02*
X190252266Y-96060419D01*
X210842266Y-95162019D02*
X210842266Y-95876304D01*
X210842266Y-95876304D02*
X210794647Y-96019161D01*
X210794647Y-96019161D02*
X210699409Y-96114400D01*
X210699409Y-96114400D02*
X210556552Y-96162019D01*
X210556552Y-96162019D02*
X210461314Y-96162019D01*
X211842266Y-96162019D02*
X211270838Y-96162019D01*
X211556552Y-96162019D02*
X211556552Y-95162019D01*
X211556552Y-95162019D02*
X211461314Y-95304876D01*
X211461314Y-95304876D02*
X211366076Y-95400114D01*
X211366076Y-95400114D02*
X211270838Y-95447733D01*
X192535980Y-98718666D02*
X192583600Y-98766285D01*
X192583600Y-98766285D02*
X192631219Y-98909142D01*
X192631219Y-98909142D02*
X192631219Y-99004380D01*
X192631219Y-99004380D02*
X192583600Y-99147237D01*
X192583600Y-99147237D02*
X192488361Y-99242475D01*
X192488361Y-99242475D02*
X192393123Y-99290094D01*
X192393123Y-99290094D02*
X192202647Y-99337713D01*
X192202647Y-99337713D02*
X192059790Y-99337713D01*
X192059790Y-99337713D02*
X191869314Y-99290094D01*
X191869314Y-99290094D02*
X191774076Y-99242475D01*
X191774076Y-99242475D02*
X191678838Y-99147237D01*
X191678838Y-99147237D02*
X191631219Y-99004380D01*
X191631219Y-99004380D02*
X191631219Y-98909142D01*
X191631219Y-98909142D02*
X191678838Y-98766285D01*
X191678838Y-98766285D02*
X191726457Y-98718666D01*
X191631219Y-98385332D02*
X191631219Y-97766285D01*
X191631219Y-97766285D02*
X192012171Y-98099618D01*
X192012171Y-98099618D02*
X192012171Y-97956761D01*
X192012171Y-97956761D02*
X192059790Y-97861523D01*
X192059790Y-97861523D02*
X192107409Y-97813904D01*
X192107409Y-97813904D02*
X192202647Y-97766285D01*
X192202647Y-97766285D02*
X192440742Y-97766285D01*
X192440742Y-97766285D02*
X192535980Y-97813904D01*
X192535980Y-97813904D02*
X192583600Y-97861523D01*
X192583600Y-97861523D02*
X192631219Y-97956761D01*
X192631219Y-97956761D02*
X192631219Y-98242475D01*
X192631219Y-98242475D02*
X192583600Y-98337713D01*
X192583600Y-98337713D02*
X192535980Y-98385332D01*
X207267980Y-110301066D02*
X207315600Y-110348685D01*
X207315600Y-110348685D02*
X207363219Y-110491542D01*
X207363219Y-110491542D02*
X207363219Y-110586780D01*
X207363219Y-110586780D02*
X207315600Y-110729637D01*
X207315600Y-110729637D02*
X207220361Y-110824875D01*
X207220361Y-110824875D02*
X207125123Y-110872494D01*
X207125123Y-110872494D02*
X206934647Y-110920113D01*
X206934647Y-110920113D02*
X206791790Y-110920113D01*
X206791790Y-110920113D02*
X206601314Y-110872494D01*
X206601314Y-110872494D02*
X206506076Y-110824875D01*
X206506076Y-110824875D02*
X206410838Y-110729637D01*
X206410838Y-110729637D02*
X206363219Y-110586780D01*
X206363219Y-110586780D02*
X206363219Y-110491542D01*
X206363219Y-110491542D02*
X206410838Y-110348685D01*
X206410838Y-110348685D02*
X206458457Y-110301066D01*
X206458457Y-109920113D02*
X206410838Y-109872494D01*
X206410838Y-109872494D02*
X206363219Y-109777256D01*
X206363219Y-109777256D02*
X206363219Y-109539161D01*
X206363219Y-109539161D02*
X206410838Y-109443923D01*
X206410838Y-109443923D02*
X206458457Y-109396304D01*
X206458457Y-109396304D02*
X206553695Y-109348685D01*
X206553695Y-109348685D02*
X206648933Y-109348685D01*
X206648933Y-109348685D02*
X206791790Y-109396304D01*
X206791790Y-109396304D02*
X207363219Y-109967732D01*
X207363219Y-109967732D02*
X207363219Y-109348685D01*
X191603333Y-103356580D02*
X191555714Y-103404200D01*
X191555714Y-103404200D02*
X191412857Y-103451819D01*
X191412857Y-103451819D02*
X191317619Y-103451819D01*
X191317619Y-103451819D02*
X191174762Y-103404200D01*
X191174762Y-103404200D02*
X191079524Y-103308961D01*
X191079524Y-103308961D02*
X191031905Y-103213723D01*
X191031905Y-103213723D02*
X190984286Y-103023247D01*
X190984286Y-103023247D02*
X190984286Y-102880390D01*
X190984286Y-102880390D02*
X191031905Y-102689914D01*
X191031905Y-102689914D02*
X191079524Y-102594676D01*
X191079524Y-102594676D02*
X191174762Y-102499438D01*
X191174762Y-102499438D02*
X191317619Y-102451819D01*
X191317619Y-102451819D02*
X191412857Y-102451819D01*
X191412857Y-102451819D02*
X191555714Y-102499438D01*
X191555714Y-102499438D02*
X191603333Y-102547057D01*
X192555714Y-103451819D02*
X191984286Y-103451819D01*
X192270000Y-103451819D02*
X192270000Y-102451819D01*
X192270000Y-102451819D02*
X192174762Y-102594676D01*
X192174762Y-102594676D02*
X192079524Y-102689914D01*
X192079524Y-102689914D02*
X191984286Y-102737533D01*
D12*
%TO.C,U4*%
X200346800Y-83114200D02*
X198396800Y-83114200D01*
X200346800Y-83114200D02*
X202296800Y-83114200D01*
X200346800Y-88234200D02*
X198396800Y-88234200D01*
X200346800Y-88234200D02*
X202296800Y-88234200D01*
X197646800Y-83209200D02*
X197406800Y-82879200D01*
X197886800Y-82879200D01*
X197646800Y-83209200D01*
G36*
X197646800Y-83209200D02*
G01*
X197406800Y-82879200D01*
X197886800Y-82879200D01*
X197646800Y-83209200D01*
G37*
%TO.C,U5*%
X198591000Y-121174500D02*
X198351000Y-120844500D01*
X198831000Y-120844500D01*
X198591000Y-121174500D01*
G36*
X198591000Y-121174500D02*
G01*
X198351000Y-120844500D01*
X198831000Y-120844500D01*
X198591000Y-121174500D01*
G37*
X202811000Y-125394500D02*
X202811000Y-124669500D01*
X202811000Y-121174500D02*
X202811000Y-121899500D01*
X202086000Y-125394500D02*
X202811000Y-125394500D01*
X202086000Y-121174500D02*
X202811000Y-121174500D01*
X199316000Y-125394500D02*
X198591000Y-125394500D01*
X199316000Y-121174500D02*
X198891000Y-121174500D01*
X198591000Y-125394500D02*
X198591000Y-124669500D01*
X198591000Y-121899500D02*
X198591000Y-121414500D01*
%TO.C,U3*%
X203473000Y-96013000D02*
X202993000Y-96013000D01*
X203233000Y-95683000D01*
X203473000Y-96013000D01*
G36*
X203473000Y-96013000D02*
G01*
X202993000Y-96013000D01*
X203233000Y-95683000D01*
X203473000Y-96013000D01*
G37*
X200533000Y-90658000D02*
X198583000Y-90658000D01*
X200533000Y-90658000D02*
X202483000Y-90658000D01*
X200533000Y-95778000D02*
X198583000Y-95778000D01*
X200533000Y-95778000D02*
X202483000Y-95778000D01*
%TO.C,U2*%
X203549200Y-119127000D02*
X203069200Y-119127000D01*
X203309200Y-118797000D01*
X203549200Y-119127000D01*
G36*
X203549200Y-119127000D02*
G01*
X203069200Y-119127000D01*
X203309200Y-118797000D01*
X203549200Y-119127000D01*
G37*
X200609200Y-113772000D02*
X198659200Y-113772000D01*
X200609200Y-113772000D02*
X202559200Y-113772000D01*
X200609200Y-118892000D02*
X198659200Y-118892000D01*
X200609200Y-118892000D02*
X202559200Y-118892000D01*
%TO.C,U1*%
X203489000Y-107062000D02*
X203009000Y-107062000D01*
X203249000Y-106732000D01*
X203489000Y-107062000D01*
G36*
X203489000Y-107062000D02*
G01*
X203009000Y-107062000D01*
X203249000Y-106732000D01*
X203489000Y-107062000D01*
G37*
X200549000Y-101707000D02*
X198599000Y-101707000D01*
X200549000Y-101707000D02*
X202499000Y-101707000D01*
X200549000Y-106827000D02*
X198599000Y-106827000D01*
X200549000Y-106827000D02*
X202499000Y-106827000D01*
%TO.C,R14*%
X206071800Y-102896936D02*
X206071800Y-103351064D01*
X207541800Y-102896936D02*
X207541800Y-103351064D01*
%TO.C,R13*%
X200068000Y-109320064D02*
X200068000Y-108865936D01*
X201538000Y-109320064D02*
X201538000Y-108865936D01*
%TO.C,R12*%
X203623936Y-108812000D02*
X204078064Y-108812000D01*
X203623936Y-107342000D02*
X204078064Y-107342000D01*
%TO.C,R11*%
X209624600Y-107227864D02*
X209624600Y-106773736D01*
X208154600Y-107227864D02*
X208154600Y-106773736D01*
%TO.C,R10*%
X209675400Y-111021864D02*
X209675400Y-110567736D01*
X208205400Y-111021864D02*
X208205400Y-110567736D01*
%TO.C,R9*%
X200382136Y-113257000D02*
X200836264Y-113257000D01*
X200382136Y-111787000D02*
X200836264Y-111787000D01*
%TO.C,R8*%
X195048200Y-113183936D02*
X195048200Y-113638064D01*
X196518200Y-113183936D02*
X196518200Y-113638064D01*
%TO.C,R7*%
X204801800Y-118644936D02*
X204801800Y-119099064D01*
X206271800Y-118644936D02*
X206271800Y-119099064D01*
%TO.C,R6*%
X206694264Y-115089000D02*
X206240136Y-115089000D01*
X206694264Y-116559000D02*
X206240136Y-116559000D01*
%TO.C,R5*%
X197585064Y-97817000D02*
X197130936Y-97817000D01*
X197585064Y-99287000D02*
X197130936Y-99287000D01*
%TO.C,R4*%
X199617064Y-99849000D02*
X199162936Y-99849000D01*
X199617064Y-101319000D02*
X199162936Y-101319000D01*
%TO.C,R3*%
X194352936Y-104294000D02*
X194807064Y-104294000D01*
X194352936Y-105764000D02*
X194807064Y-105764000D01*
%TO.C,R2*%
X193194000Y-94514936D02*
X193194000Y-94969064D01*
X194664000Y-94514936D02*
X194664000Y-94969064D01*
%TO.C,R1*%
X193194000Y-90577936D02*
X193194000Y-91032064D01*
X194664000Y-90577936D02*
X194664000Y-91032064D01*
%TO.C,J2*%
X190966000Y-84104000D02*
X190966000Y-94324000D01*
X190966000Y-81504000D02*
X190966000Y-82834000D01*
X189636000Y-81504000D02*
X190966000Y-81504000D01*
X188306000Y-94324000D02*
X190966000Y-94324000D01*
X188306000Y-84104000D02*
X190966000Y-84104000D01*
X188306000Y-84104000D02*
X188306000Y-94324000D01*
%TO.C,J1*%
X212429000Y-84104000D02*
X212429000Y-94324000D01*
X212429000Y-81504000D02*
X212429000Y-82834000D01*
X211099000Y-81504000D02*
X212429000Y-81504000D01*
X209769000Y-94324000D02*
X212429000Y-94324000D01*
X209769000Y-84104000D02*
X212429000Y-84104000D01*
X209769000Y-84104000D02*
X209769000Y-94324000D01*
%TO.C,C3*%
X193270200Y-98239948D02*
X193270200Y-98762452D01*
X194740200Y-98239948D02*
X194740200Y-98762452D01*
%TO.C,C2*%
X206071800Y-106723548D02*
X206071800Y-107246052D01*
X207541800Y-106723548D02*
X207541800Y-107246052D01*
%TO.C,C1*%
X194318748Y-103605000D02*
X194841252Y-103605000D01*
X194318748Y-102135000D02*
X194841252Y-102135000D01*
%TD*%
%LPC*%
D13*
%TO.C,U4*%
X197696800Y-83769200D03*
X197696800Y-85039200D03*
X197696800Y-86309200D03*
X197696800Y-87579200D03*
X202996800Y-87579200D03*
X202996800Y-86309200D03*
X202996800Y-85039200D03*
X202996800Y-83769200D03*
D14*
X200346800Y-85674200D03*
%TD*%
D15*
%TO.C,U5*%
X200701000Y-123284500D03*
D16*
X199726000Y-121347000D03*
X200376000Y-121347000D03*
X201026000Y-121347000D03*
X201676000Y-121347000D03*
D17*
X202638500Y-122309500D03*
X202638500Y-122959500D03*
X202638500Y-123609500D03*
X202638500Y-124259500D03*
D16*
X201676000Y-125222000D03*
X201026000Y-125222000D03*
X200376000Y-125222000D03*
X199726000Y-125222000D03*
D17*
X198763500Y-124259500D03*
X198763500Y-123609500D03*
X198763500Y-122959500D03*
X198763500Y-122309500D03*
%TD*%
D18*
%TO.C,U3*%
X198058000Y-95123000D03*
X198058000Y-93853000D03*
X198058000Y-92583000D03*
X198058000Y-91313000D03*
X203008000Y-91313000D03*
X203008000Y-92583000D03*
X203008000Y-93853000D03*
X203008000Y-95123000D03*
%TD*%
%TO.C,U2*%
X198134200Y-118237000D03*
X198134200Y-116967000D03*
X198134200Y-115697000D03*
X198134200Y-114427000D03*
X203084200Y-114427000D03*
X203084200Y-115697000D03*
X203084200Y-116967000D03*
X203084200Y-118237000D03*
%TD*%
%TO.C,U1*%
X198074000Y-106172000D03*
X198074000Y-104902000D03*
X198074000Y-103632000D03*
X198074000Y-102362000D03*
X203024000Y-102362000D03*
X203024000Y-103632000D03*
X203024000Y-104902000D03*
X203024000Y-106172000D03*
%TD*%
D19*
%TO.C,R14*%
X206806800Y-104124000D03*
X206806800Y-102124000D03*
%TD*%
D20*
%TO.C,R13*%
X200803000Y-110093000D03*
X200803000Y-108093000D03*
%TD*%
D21*
%TO.C,R12*%
X204851000Y-108077000D03*
X202851000Y-108077000D03*
%TD*%
D20*
%TO.C,R11*%
X208889600Y-106000800D03*
X208889600Y-108000800D03*
%TD*%
%TO.C,R10*%
X208940400Y-109794800D03*
X208940400Y-111794800D03*
%TD*%
D21*
%TO.C,R9*%
X201609200Y-112522000D03*
X199609200Y-112522000D03*
%TD*%
D19*
%TO.C,R8*%
X195783200Y-114411000D03*
X195783200Y-112411000D03*
%TD*%
%TO.C,R7*%
X205536800Y-119872000D03*
X205536800Y-117872000D03*
%TD*%
D22*
%TO.C,R6*%
X205467200Y-115824000D03*
X207467200Y-115824000D03*
%TD*%
%TO.C,R5*%
X196358000Y-98552000D03*
X198358000Y-98552000D03*
%TD*%
%TO.C,R4*%
X198390000Y-100584000D03*
X200390000Y-100584000D03*
%TD*%
D21*
%TO.C,R3*%
X193580000Y-105029000D03*
X195580000Y-105029000D03*
%TD*%
D19*
%TO.C,R2*%
X193929000Y-95742000D03*
X193929000Y-93742000D03*
%TD*%
%TO.C,R1*%
X193929000Y-91805000D03*
X193929000Y-89805000D03*
%TD*%
D23*
%TO.C,J2*%
X189636000Y-92994000D03*
X189636000Y-90454000D03*
X189636000Y-87914000D03*
X189636000Y-85374000D03*
D24*
X189636000Y-82834000D03*
%TD*%
D23*
%TO.C,J1*%
X211099000Y-92994000D03*
X211099000Y-90454000D03*
X211099000Y-87914000D03*
X211099000Y-85374000D03*
D24*
X211099000Y-82834000D03*
%TD*%
D25*
%TO.C,C3*%
X194005200Y-99538700D03*
X194005200Y-97463700D03*
%TD*%
%TO.C,C2*%
X206806800Y-108022300D03*
X206806800Y-105947300D03*
%TD*%
D26*
%TO.C,C1*%
X195617500Y-102870000D03*
X193542500Y-102870000D03*
%TD*%
%LPD*%
M02*
