%TF.GenerationSoftware,KiCad,Pcbnew,8.0.3*%
%TF.CreationDate,2025-09-08T17:35:16+08:00*%
%TF.ProjectId,balancing-car,62616c61-6e63-4696-9e67-2d6361722e6b,rev?*%
%TF.SameCoordinates,Original*%
%TF.FileFunction,Soldermask,Top*%
%TF.FilePolarity,Negative*%
%FSLAX46Y46*%
G04 Gerber Fmt 4.6, Leading zero omitted, Abs format (unit mm)*
G04 Created by KiCad (PCBNEW 8.0.3) date 2025-09-08 17:35:16*
%MOMM*%
%LPD*%
G01*
G04 APERTURE LIST*
G04 Aperture macros list*
%AMRoundRect*
0 Rectangle with rounded corners*
0 $1 Rounding radius*
0 $2 $3 $4 $5 $6 $7 $8 $9 X,Y pos of 4 corners*
0 Add a 4 corners polygon primitive as box body*
4,1,4,$2,$3,$4,$5,$6,$7,$8,$9,$2,$3,0*
0 Add four circle primitives for the rounded corners*
1,1,$1+$1,$2,$3*
1,1,$1+$1,$4,$5*
1,1,$1+$1,$6,$7*
1,1,$1+$1,$8,$9*
0 Add four rect primitives between the rounded corners*
20,1,$1+$1,$2,$3,$4,$5,0*
20,1,$1+$1,$4,$5,$6,$7,0*
20,1,$1+$1,$6,$7,$8,$9,0*
20,1,$1+$1,$8,$9,$2,$3,0*%
G04 Aperture macros list end*
%ADD10RoundRect,0.150000X-0.650000X-0.150000X0.650000X-0.150000X0.650000X0.150000X-0.650000X0.150000X0*%
%ADD11R,2.410000X3.100000*%
%ADD12R,2.350000X2.350000*%
%ADD13RoundRect,0.075000X-0.075000X-0.362500X0.075000X-0.362500X0.075000X0.362500X-0.075000X0.362500X0*%
%ADD14RoundRect,0.075000X-0.362500X-0.075000X0.362500X-0.075000X0.362500X0.075000X-0.362500X0.075000X0*%
%ADD15RoundRect,0.150000X0.825000X0.150000X-0.825000X0.150000X-0.825000X-0.150000X0.825000X-0.150000X0*%
%ADD16RoundRect,0.250000X-0.450000X0.350000X-0.450000X-0.350000X0.450000X-0.350000X0.450000X0.350000X0*%
%ADD17RoundRect,0.250000X0.450000X-0.350000X0.450000X0.350000X-0.450000X0.350000X-0.450000X-0.350000X0*%
%ADD18RoundRect,0.250000X-0.350000X-0.450000X0.350000X-0.450000X0.350000X0.450000X-0.350000X0.450000X0*%
%ADD19RoundRect,0.250000X0.350000X0.450000X-0.350000X0.450000X-0.350000X-0.450000X0.350000X-0.450000X0*%
%ADD20O,1.700000X1.700000*%
%ADD21R,1.700000X1.700000*%
%ADD22RoundRect,0.250000X-0.475000X0.337500X-0.475000X-0.337500X0.475000X-0.337500X0.475000X0.337500X0*%
%ADD23RoundRect,0.250000X-0.337500X-0.475000X0.337500X-0.475000X0.337500X0.475000X-0.337500X0.475000X0*%
G04 APERTURE END LIST*
D10*
%TO.C,U4*%
X197696800Y-83769200D03*
X197696800Y-85039200D03*
X197696800Y-86309200D03*
X197696800Y-87579200D03*
X202996800Y-87579200D03*
X202996800Y-86309200D03*
X202996800Y-85039200D03*
X202996800Y-83769200D03*
D11*
X200346800Y-85674200D03*
%TD*%
D12*
%TO.C,U5*%
X200701000Y-123284500D03*
D13*
X199726000Y-121347000D03*
X200376000Y-121347000D03*
X201026000Y-121347000D03*
X201676000Y-121347000D03*
D14*
X202638500Y-122309500D03*
X202638500Y-122959500D03*
X202638500Y-123609500D03*
X202638500Y-124259500D03*
D13*
X201676000Y-125222000D03*
X201026000Y-125222000D03*
X200376000Y-125222000D03*
X199726000Y-125222000D03*
D14*
X198763500Y-124259500D03*
X198763500Y-123609500D03*
X198763500Y-122959500D03*
X198763500Y-122309500D03*
%TD*%
D15*
%TO.C,U3*%
X198058000Y-95123000D03*
X198058000Y-93853000D03*
X198058000Y-92583000D03*
X198058000Y-91313000D03*
X203008000Y-91313000D03*
X203008000Y-92583000D03*
X203008000Y-93853000D03*
X203008000Y-95123000D03*
%TD*%
%TO.C,U2*%
X198134200Y-118237000D03*
X198134200Y-116967000D03*
X198134200Y-115697000D03*
X198134200Y-114427000D03*
X203084200Y-114427000D03*
X203084200Y-115697000D03*
X203084200Y-116967000D03*
X203084200Y-118237000D03*
%TD*%
%TO.C,U1*%
X198074000Y-106172000D03*
X198074000Y-104902000D03*
X198074000Y-103632000D03*
X198074000Y-102362000D03*
X203024000Y-102362000D03*
X203024000Y-103632000D03*
X203024000Y-104902000D03*
X203024000Y-106172000D03*
%TD*%
D16*
%TO.C,R14*%
X206806800Y-104124000D03*
X206806800Y-102124000D03*
%TD*%
D17*
%TO.C,R13*%
X200803000Y-110093000D03*
X200803000Y-108093000D03*
%TD*%
D18*
%TO.C,R12*%
X204851000Y-108077000D03*
X202851000Y-108077000D03*
%TD*%
D17*
%TO.C,R11*%
X208889600Y-106000800D03*
X208889600Y-108000800D03*
%TD*%
%TO.C,R10*%
X208940400Y-109794800D03*
X208940400Y-111794800D03*
%TD*%
D18*
%TO.C,R9*%
X201609200Y-112522000D03*
X199609200Y-112522000D03*
%TD*%
D16*
%TO.C,R8*%
X195783200Y-114411000D03*
X195783200Y-112411000D03*
%TD*%
%TO.C,R7*%
X205536800Y-119872000D03*
X205536800Y-117872000D03*
%TD*%
D19*
%TO.C,R6*%
X205467200Y-115824000D03*
X207467200Y-115824000D03*
%TD*%
%TO.C,R5*%
X196358000Y-98552000D03*
X198358000Y-98552000D03*
%TD*%
%TO.C,R4*%
X198390000Y-100584000D03*
X200390000Y-100584000D03*
%TD*%
D18*
%TO.C,R3*%
X193580000Y-105029000D03*
X195580000Y-105029000D03*
%TD*%
D16*
%TO.C,R2*%
X193929000Y-95742000D03*
X193929000Y-93742000D03*
%TD*%
%TO.C,R1*%
X193929000Y-91805000D03*
X193929000Y-89805000D03*
%TD*%
D20*
%TO.C,J2*%
X189636000Y-92994000D03*
X189636000Y-90454000D03*
X189636000Y-87914000D03*
X189636000Y-85374000D03*
D21*
X189636000Y-82834000D03*
%TD*%
D20*
%TO.C,J1*%
X211099000Y-92994000D03*
X211099000Y-90454000D03*
X211099000Y-87914000D03*
X211099000Y-85374000D03*
D21*
X211099000Y-82834000D03*
%TD*%
D22*
%TO.C,C3*%
X194005200Y-99538700D03*
X194005200Y-97463700D03*
%TD*%
%TO.C,C2*%
X206806800Y-108022300D03*
X206806800Y-105947300D03*
%TD*%
D23*
%TO.C,C1*%
X195617500Y-102870000D03*
X193542500Y-102870000D03*
%TD*%
M02*
